<svg width="30" height="40" viewBox="0 0 30 40" fill="none" xmlns="http://www.w3.org/2000/svg">
<path fill-rule="evenodd" clip-rule="evenodd" d="M13.4762 0.0748163C6.75869 0.747326 1.25758 5.96529 0.148851 12.7162C-0.107747 14.2785 -0.0251575 16.7967 0.339278 18.5249C1.34005 23.2701 4.51959 28.7108 9.61211 34.3926C10.2877 35.1465 11.7812 36.7166 12.9307 37.8817L15.0208 40L17.1109 37.8817C22.412 32.5089 25.6526 28.2802 27.7105 24.0502C29.4235 20.5292 29.9856 18.3569 29.9997 15.203C30.0124 12.3893 29.5709 10.4597 28.3936 8.18219C25.55 2.68187 19.6212 -0.540499 13.4762 0.0748163Z" fill="url(#paint0_linear_1622_40)" fill-opacity="0.4"/>
<path d="M13.5261 0.572329L13.5261 0.572328C19.4662 -0.0224846 25.1997 3.09296 27.9494 8.41179C29.0862 10.6108 29.5121 12.4597 29.4997 15.2007C29.486 18.2638 28.9488 20.3621 27.2609 23.8314L27.7105 24.0502L27.2609 23.8314C25.2368 27.9921 22.0381 32.176 16.755 37.5305L15.0208 39.2881L13.2866 37.5305C12.1397 36.3681 10.6525 34.8044 9.98446 34.0589L9.61211 34.3926L9.98445 34.0589C4.91996 28.4083 1.80366 23.0455 0.828518 18.4217C0.475391 16.7472 0.396779 14.2918 0.642241 12.7972L0.148851 12.7162L0.642241 12.7972C1.71501 6.26526 7.03778 1.22189 13.5261 0.572329Z" stroke="#373739" stroke-opacity="0.4"/>
<path fill-rule="evenodd" clip-rule="evenodd" d="M18.968 8.50763C19.0696 8.47977 19.1618 8.44687 19.2479 8.50763L20.7405 9.44219C20.8345 9.5086 21.0207 9.60728 21.0203 9.72256C21.0199 9.83784 20.8338 10.0029 20.8338 10.0029L20.0063 10.859C19.8915 10.939 19.811 11.0106 19.6917 10.9375L18.2924 10.0964C18.1411 10.0036 18.2423 9.97819 18.315 9.81603L18.7815 8.78799C18.7815 8.78799 18.8665 8.53549 18.968 8.50763ZM19.0613 8.69454L18.5016 9.90948L19.8076 10.6571L20.7405 9.72256L19.0613 8.69454Z" fill="#D5DCDF" fill-opacity="0.4"/>
<path d="M17.5689 9.81597L18.8701 10.4948L20.7358 11.5228L20.554 11.872L20.3874 12.2805L19.8354 12.1208L19.5279 12.7235C19.4857 12.7983 19.4367 12.9135 19.3413 13.0039C19.2866 13.0558 18.9681 12.9 18.8749 12.9935L18.595 13.6477C18.5383 13.8142 18.5191 13.9973 18.4969 14.0529C18.3759 14.5046 18.7768 14.7003 18.7768 14.7003C18.7768 14.7003 19.3376 15.1209 19.5231 15.2611C21.1546 16.5649 21.7156 18.5485 21.7156 19.5387C21.7156 20.1336 21.6334 20.8749 21.5033 21.4292C21.4388 21.7036 21.437 21.823 21.3888 21.9899C21.3646 22.0733 21.3093 22.319 21.2955 22.3637C21.2348 22.5491 21.2037 22.5833 21.3888 22.6441L21.6873 22.5347L21.6886 22.5306L21.6935 22.5155C21.6976 22.5024 21.7036 22.4835 21.7111 22.4592C21.7262 22.4106 21.7475 22.3404 21.7729 22.2524C21.8238 22.0765 21.8916 21.8288 21.9593 21.5403C22.0936 20.9687 22.2331 20.2154 22.2331 19.5387C22.2331 18.3564 21.6639 16.4222 19.8475 14.9707C19.7571 14.8984 19.6691 14.832 19.5844 14.7682C19.4174 14.6422 19.2635 14.5261 19.1305 14.3947C18.9429 14.2094 18.9208 14.1088 18.9299 14.0529C18.9634 13.9645 19.021 13.7972 19.0693 13.6553C19.0971 13.5736 19.1232 13.4962 19.1423 13.4392L19.1652 13.371L19.1739 13.3451C19.1799 13.3269 19.1855 13.3153 19.1894 13.3083C19.1933 13.308 19.1986 13.3079 19.2053 13.308C19.2264 13.3085 19.2508 13.3116 19.2866 13.3173C19.3598 13.3289 19.4456 13.3249 19.5313 13.2874C19.6162 13.2503 19.6742 13.1921 19.7119 13.1387C19.7773 13.0459 19.7984 12.9411 19.8073 12.8955C19.8129 12.8666 19.8174 12.8376 19.8209 12.8155L19.8209 12.8151C19.8247 12.7907 19.8275 12.7731 19.8305 12.7567C19.8326 12.7457 19.8343 12.7383 19.8354 12.7337L19.9788 12.4899C20.0036 12.4974 20.0295 12.5046 20.056 12.511C20.2223 12.551 20.421 12.6959 20.6425 12.3639L20.9707 11.637C21.0156 11.5228 20.9223 11.2425 20.7137 11.0961L18.2254 9.74579C18.2254 9.74579 17.7991 9.48712 17.5655 9.5356C17.3433 9.58171 17.2019 9.7314 17.1344 9.8173L17.1215 9.83362L17.1107 9.85134C17.1045 9.86155 17.0967 9.87409 17.0877 9.88846C17.0524 9.94517 16.9994 10.0304 16.9546 10.1132C16.9258 10.1664 16.8953 10.2277 16.8712 10.2902C16.8497 10.3461 16.8208 10.4339 16.8208 10.5311C16.8208 10.6596 16.8705 10.7708 16.9075 10.8399C16.9488 10.917 17.0007 10.9896 17.05 11.0512C17.0639 11.0685 17.0782 11.0858 17.0928 11.1028L16.982 11.255C16.9577 11.2707 16.9315 11.2886 16.9057 11.3086C16.8555 11.3475 16.7861 11.4094 16.7351 11.4985C16.6787 11.5971 16.6481 11.7247 16.6819 11.8646C16.713 11.9933 16.7894 12.0935 16.8687 12.1691L16.8705 12.1709C16.8691 12.1784 16.8657 12.1894 16.8592 12.2026C16.8519 12.2177 16.8443 12.2279 16.8418 12.2309L16.8154 12.2624L16.7972 12.2986C16.7972 12.2986 16.7944 12.3037 16.7871 12.3148C16.7789 12.3272 16.7677 12.3431 16.7532 12.3626C16.7241 12.4018 16.6864 12.449 16.643 12.5011C16.5563 12.6051 16.4544 12.7196 16.3694 12.8123L16.3585 12.8241L16.3488 12.8369C16.3139 12.8826 16.2529 12.9271 16.1222 12.9582C15.9858 12.9906 15.805 13.0009 15.5671 12.9969C15.4365 12.9947 15.2882 12.9878 15.1275 12.9803C14.7384 12.9621 14.2759 12.9404 13.8121 12.9744C10.577 13.2117 9.12242 15.7993 8.82793 16.3231L8.82767 16.3236C8.81772 16.3413 8.8091 16.3566 8.80179 16.3694C8.79455 16.3821 8.7863 16.3963 8.77712 16.4122C8.48419 16.9189 7.2486 19.0561 8.05202 22.2221C8.10001 22.4111 8.32584 22.7458 8.51457 22.6977C8.7033 22.6496 8.65662 22.6463 8.60864 22.4572C7.87524 19.5672 8.80567 17.1281 9.07507 16.6629C9.36219 16.1544 11.0132 13.5143 13.8636 13.3052C14.2843 13.2743 14.6707 13.2927 15.0421 13.3103C15.2158 13.3186 15.3862 13.3267 15.5553 13.3295C15.8063 13.3337 16.0597 13.3254 16.2851 13.2717C16.5111 13.2179 16.6312 13.205 16.7117 13.0928C16.7994 12.997 17.0043 12.6443 17.0043 12.6443C17.0043 12.6443 17.1644 12.3756 17.2198 12.2805C17.2873 12.1909 17.0263 11.9618 17.05 11.8032C17.0727 11.6508 17.3775 11.2425 17.3775 11.2425L17.5641 10.9621C17.5641 10.9621 17.2032 10.617 17.1344 10.5311L17.3775 10.1132L17.5689 9.81597Z" fill="#D5DCDF" fill-opacity="0.4"/>
<path fill-rule="evenodd" clip-rule="evenodd" d="M14.0243 16.9088L13.8916 17.3266C13.8916 17.3266 14.1442 17.6302 14.1714 17.7004C14.358 17.8873 14.7915 18.3601 16.2658 18.7975C16.3585 18.8249 16.4359 18.8893 16.4798 18.9756C16.5237 19.0618 16.5304 19.1623 16.4983 19.2536L16.1657 19.1362C16.4983 19.2536 16.4983 19.2536 16.4983 19.2536L16.4865 19.2872C16.4787 19.3092 16.4674 19.3417 16.4528 19.3833C16.4236 19.4666 16.3817 19.5866 16.3308 19.7333C16.2289 20.0267 16.0908 20.4265 15.9462 20.8527C15.6545 21.7126 15.2449 22.9824 15.1434 23.3888C15.0962 23.5781 14.8925 23.754 14.7036 23.7067C14.5146 23.6594 14.6563 23.1826 14.7036 22.9933L15.4488 20.7681L16.0491 19.1362C15.1782 18.841 14.6644 18.9017 13.7983 17.8737L12.3432 22.9933C12.2878 23.1804 12.1566 23.208 12.0633 23.1803C11.97 23.1526 11.836 23.0643 11.8914 22.8773L13.5441 17.2923C13.5499 17.2282 13.5605 17.169 13.5737 17.1155C13.5966 17.0224 13.627 16.947 13.6529 16.8929C13.6616 16.8747 13.6699 16.8588 13.6774 16.8452C13.8708 16.2682 14.3536 16.0078 14.837 15.9248C15.3212 15.8415 15.8544 15.9216 16.2684 16.0478C17.0066 16.2729 17.5088 16.5867 17.7814 16.9731C18.0609 17.3693 18.071 17.8032 17.9029 18.1735L16.4563 23.338C16.4037 23.5259 16.1971 23.4415 16.0096 23.3888C16.0096 23.3888 15.9569 23.2963 16.0096 23.1084L17.4364 18.3546L16.9424 18.4356C16.9424 18.4356 16.1904 18.4435 15.8302 18.3257C15.4793 18.2109 15.1219 18.0541 14.9016 17.8737C14.8063 17.7956 14.6442 17.6399 14.6368 17.4116C14.6277 17.1312 14.8421 16.9777 14.9887 16.9088C15.165 16.826 15.4576 16.8452 15.4576 17.0787C15.4576 17.3123 14.9887 17.0787 14.9887 17.3809C15.1043 17.7004 15.6892 17.8975 15.9439 17.9808C16.2651 18.0858 16.97 18.0742 16.97 18.0742C17.1063 18.0835 17.4929 17.9865 17.5297 17.8873C17.5834 17.7426 17.5513 17.3959 17.4364 17.2331C17.2924 17.029 16.8331 16.5622 16.1657 16.3587C15.8168 16.2523 15.1656 16.1465 14.8244 16.2051C14.4946 16.2618 14.1054 16.6419 14.0243 16.9088Z" fill="#D5DCDF" fill-opacity="0.4"/>
<path fill-rule="evenodd" clip-rule="evenodd" d="M8.17425 21.9627C8.13623 21.9781 8.01122 22.129 7.89645 22.2981C7.63807 22.6787 7.2223 23.0731 6.91218 23.2316C6.78305 23.2976 6.49386 23.3835 6.2696 23.4225C5.84292 23.4967 5.72144 23.5816 5.72144 23.8052C5.72144 23.8709 5.76743 23.9815 5.82356 24.051C5.913 24.1616 6.55217 23.9135 6.55217 23.9135C7.29845 23.5891 7.48274 23.5281 8.04473 22.9623L8.32459 22.6986L8.60445 22.9623C8.77762 23.2059 9.20895 23.4533 9.44402 23.6331C9.826 23.9253 11.2341 23.9135 11.785 23.6331C11.785 23.6331 12.2514 23.3232 12.438 23.1363L12.8111 22.6986L13.1843 23.1363C13.1843 23.1363 13.2776 23.3232 13.9306 23.6331C14.7432 24.0188 15.5164 23.8496 16.1694 23.6331C16.8224 23.4167 17.2888 22.6691 17.2888 22.6691C17.2888 22.6691 18.0351 23.4764 18.2217 23.6331C18.5695 23.9253 20.1807 24.2991 21.1136 23.2711L21.7666 22.6691L22.3263 23.2515C22.7927 23.7384 22.9659 23.7185 23.8304 24.051C24.1195 24.0624 24.187 24.1616 24.2764 24.051C24.3326 23.9815 24.3785 23.8709 24.3785 23.8052C24.3785 23.5816 24.2571 23.4967 23.8304 23.4225C23.6061 23.3835 23.3161 23.2972 23.186 23.2306C22.8789 23.0737 22.4228 22.6393 22.1795 22.2721C21.8713 21.8069 21.6516 21.821 21.3159 22.3278C20.3489 23.7871 18.7355 23.7975 17.7548 22.3506C17.3917 21.8151 17.1761 21.7989 16.8665 22.2838C16.5901 22.7166 16.2149 23.06 15.8093 23.2515C15.5139 23.3908 15.3904 23.4179 15.0474 23.4184C14.6939 23.419 14.5889 23.3948 14.2776 23.2413C13.8597 23.0352 13.5064 22.7112 13.2335 22.2838C12.9344 21.8154 12.7058 21.8181 12.3867 22.2939C11.381 23.7937 9.76542 23.8089 8.78413 22.3278C8.54262 21.9632 8.3939 21.8742 8.17425 21.9627Z" fill="#D5DCDF" fill-opacity="0.4"/>
<defs>
<linearGradient id="paint0_linear_1622_40" x1="15" y1="0" x2="15" y2="40" gradientUnits="userSpaceOnUse">
<stop stop-color="#45A83D"/>
<stop offset="1" stop-color="#11E600"/>
</linearGradient>
</defs>
</svg>
