<svg width="31" height="41" viewBox="0 0 31 41" fill="none" xmlns="http://www.w3.org/2000/svg">
<path fill-rule="evenodd" clip-rule="evenodd" d="M16.5238 39.932C23.2416 39.2623 28.7449 34.0466 29.8564 27.2962C30.1137 25.7339 30.0321 23.2157 29.6684 21.4874C28.6696 16.7418 25.4923 11.2998 20.4021 5.61581C19.7268 4.86165 18.234 3.29097 17.085 2.12541L14.9957 0.00620863L12.9048 2.12368C7.60144 7.49422 4.35907 11.7216 2.29944 15.9508C0.585016 19.471 0.0220408 21.6431 0.00655669 24.797C-0.00729505 27.6107 0.433458 29.5405 1.60978 31.8185C4.4511 37.32 10.3786 40.5448 16.5238 39.932Z" fill="url(#paint0_linear_1625_73)" fill-opacity="0.4"/>
<path d="M16.4742 39.4345L16.4742 39.4345C10.5338 40.0269 4.80162 36.909 2.05404 31.5891C0.918229 29.3896 0.493056 27.5405 0.50655 24.7995C0.521588 21.7364 1.05965 19.6384 2.74897 16.1697L2.29944 15.9508L2.74897 16.1697C4.77479 12.0099 7.97526 7.82726 13.2605 2.475L14.9954 0.718107L16.7289 2.47643C17.8753 3.63932 19.3619 5.20364 20.0296 5.94936L20.4021 5.61581L20.0296 5.94937C25.0918 11.6021 28.2059 16.9662 29.1791 21.5903C29.5315 23.265 29.6091 25.7205 29.3631 27.2149L29.8564 27.2962L29.3631 27.2149C28.2876 33.7465 22.9627 38.7876 16.4742 39.4345Z" stroke="#373739" stroke-opacity="0.4"/>
<path fill-rule="evenodd" clip-rule="evenodd" d="M11.0355 31.4969C10.9339 31.5247 10.8417 31.5576 10.7556 31.4968L9.26344 30.5616C9.16941 30.4952 8.98328 30.3964 8.9837 30.2811C8.98413 30.1659 9.17039 30.0009 9.17039 30.0009L9.99816 29.1451C10.1131 29.0652 10.1936 28.9936 10.3128 29.0668L11.7118 29.9085C11.8631 30.0013 11.7618 30.0267 11.689 30.1888L11.2222 31.2166C11.2222 31.2166 11.137 31.4691 11.0355 31.4969ZM10.9423 31.31L11.5025 30.0953L10.1968 29.3471L9.26356 30.2813L10.9423 31.31Z" fill="#D5DCDF" fill-opacity="0.4"/>
<path d="M12.4353 30.1892L11.1344 29.5098L9.26913 28.481L9.45105 28.1319L9.61785 27.7234L10.1698 27.8834L10.4775 27.2808C10.5198 27.2061 10.5688 27.0909 10.6642 27.0005C10.719 26.9487 11.0373 27.1045 11.1307 27.0111L11.4108 26.357C11.4675 26.1905 11.4868 26.0074 11.509 25.9519C11.6303 25.5002 11.2294 25.3043 11.2294 25.3043C11.2294 25.3043 10.6688 24.8835 10.4834 24.7432C8.85234 23.4388 8.29222 21.4549 8.29263 20.4647C8.29288 19.8698 8.37534 19.1286 8.50575 18.5743C8.57033 18.2999 8.57211 18.1805 8.62047 18.0136C8.64462 17.9303 8.70002 17.6846 8.71391 17.6399C8.77464 17.4545 8.80575 17.4203 8.62074 17.3594L8.32218 17.4687L8.32084 17.4729L8.31599 17.4879C8.31183 17.501 8.30585 17.5199 8.29831 17.5442C8.28323 17.5928 8.2619 17.663 8.2364 17.751C8.18544 17.9268 8.11761 18.1745 8.04973 18.463C7.91523 19.0346 7.77536 19.7878 7.77508 20.4645C7.77459 21.6467 8.34299 23.5813 10.1588 25.0335C10.2492 25.1058 10.3372 25.1722 10.4218 25.2361C10.5888 25.3621 10.7427 25.4783 10.8756 25.6098C11.0631 25.7952 11.0851 25.8957 11.0761 25.9517C11.0426 26.0401 10.9848 26.2074 10.9365 26.3492C10.9087 26.4308 10.8825 26.5083 10.8633 26.5653L10.8404 26.6335L10.8318 26.6594C10.8257 26.6775 10.8202 26.6892 10.8163 26.6962C10.8123 26.6964 10.8071 26.6966 10.8004 26.6964C10.7792 26.6959 10.7549 26.6928 10.7191 26.6871C10.6459 26.6755 10.56 26.6795 10.4743 26.7169C10.3895 26.7539 10.3313 26.8122 10.2937 26.8655C10.2283 26.9583 10.2071 27.0631 10.1982 27.1087C10.1926 27.1376 10.188 27.1666 10.1846 27.1887L10.1845 27.1891C10.1807 27.2135 10.178 27.2311 10.1749 27.2475C10.1728 27.2585 10.1711 27.2659 10.17 27.2704L10.0265 27.5142C10.0017 27.5067 9.9758 27.4995 9.94935 27.4931C9.78299 27.453 9.58436 27.308 9.36277 27.6399L9.03422 28.3667C8.98928 28.4809 9.08245 28.7613 9.29102 28.9078L11.7788 30.2591C11.7788 30.2591 12.205 30.5179 12.4386 30.4695C12.6608 30.4235 12.8023 30.2739 12.8698 30.188L12.8827 30.1717L12.8935 30.154C12.8997 30.1438 12.9076 30.1312 12.9165 30.1169C12.9518 30.0602 13.0048 29.975 13.0497 29.8922C13.0785 29.839 13.109 29.7777 13.1332 29.7152C13.1547 29.6593 13.1837 29.5715 13.1837 29.4744C13.1838 29.3458 13.134 29.2346 13.0971 29.1655C13.0558 29.0884 13.004 29.0157 12.9547 28.9542C12.9408 28.9368 12.9265 28.9195 12.912 28.9025L13.0228 28.7503C13.0471 28.7347 13.0733 28.7167 13.0991 28.6967C13.1493 28.6579 13.2187 28.596 13.2698 28.5069C13.3262 28.4084 13.3569 28.2808 13.3231 28.1409C13.2921 28.0122 13.2157 27.9119 13.1365 27.8363L13.1347 27.8345C13.1361 27.827 13.1395 27.816 13.1459 27.8028C13.1533 27.7878 13.1609 27.7775 13.1633 27.7745L13.1898 27.743L13.208 27.7068C13.208 27.7068 13.2108 27.7018 13.2182 27.6906C13.2263 27.6783 13.2375 27.6624 13.252 27.6429C13.2812 27.6037 13.3189 27.5565 13.3623 27.5044C13.4491 27.4004 13.551 27.286 13.6361 27.1934L13.6469 27.1815L13.6567 27.1688C13.6915 27.1231 13.7525 27.0786 13.8833 27.0476C14.0197 27.0152 14.2005 27.0049 14.4384 27.009C14.569 27.0113 14.7173 27.0183 14.878 27.0259C15.2671 27.0442 15.7296 27.0661 16.1934 27.0323C19.4286 26.7963 20.8842 24.2094 21.179 23.6856L21.1792 23.6852C21.1892 23.6675 21.1978 23.6521 21.2051 23.6393C21.2124 23.6267 21.2206 23.6124 21.2298 23.5965C21.5229 23.09 22.7594 20.9533 21.9573 17.787C21.9094 17.5979 21.6837 17.2632 21.495 17.3112C21.3062 17.3591 21.3529 17.3625 21.4008 17.5516C22.133 20.4419 21.2015 22.8807 20.932 23.3457C20.6446 23.8541 18.9926 26.4936 16.1421 26.7015C15.7213 26.7322 15.335 26.7136 14.9635 26.6958C14.7899 26.6875 14.6195 26.6794 14.4503 26.6765C14.1994 26.6721 13.946 26.6804 13.7205 26.734C13.4945 26.7876 13.3744 26.8005 13.2938 26.9127C13.2062 27.0084 13.001 27.3611 13.001 27.3611C13.001 27.3611 12.8409 27.6297 12.7854 27.7247C12.7179 27.8143 12.9787 28.0436 12.9551 28.2021C12.9323 28.3546 12.6273 28.7627 12.6273 28.7627L12.4406 29.043C12.4406 29.043 12.8013 29.3882 12.8701 29.4742L12.6268 29.892L12.4353 30.1892Z" fill="#D5DCDF" fill-opacity="0.4"/>
<path fill-rule="evenodd" clip-rule="evenodd" d="M15.9829 23.0978L16.1157 22.6801C16.1157 22.6801 15.8632 22.3763 15.836 22.3062C15.6495 22.1192 15.2162 21.6462 13.7421 21.2082C13.6494 21.1807 13.5721 21.1163 13.5282 21.03C13.4843 20.9438 13.4776 20.8433 13.5098 20.752L13.8423 20.8696C13.5098 20.752 13.5098 20.752 13.5098 20.752L13.5216 20.7184C13.5294 20.6964 13.5408 20.6639 13.5554 20.6223C13.5845 20.539 13.6265 20.419 13.6775 20.2724C13.7796 19.9791 13.9178 19.5793 14.0625 19.1532C14.3546 18.2934 14.7648 17.0237 14.8664 16.6174C14.9137 16.4281 15.1175 16.2523 15.3064 16.2997C15.4953 16.3471 15.3534 16.8238 15.3061 17.013L14.5599 19.238L13.959 20.8696C14.8297 21.1652 15.3435 21.1046 16.2092 22.133L17.6665 17.014C17.7219 16.827 17.8531 16.7994 17.9464 16.8272C18.0397 16.8549 18.1736 16.9432 18.1182 17.1303L16.4632 22.7145C16.4573 22.7786 16.4467 22.8379 16.4335 22.8913C16.4106 22.9844 16.3802 23.0598 16.3542 23.1139C16.3455 23.1321 16.3372 23.148 16.3297 23.1616C16.1361 23.7385 15.6532 23.9987 15.1698 24.0815C14.6854 24.1646 14.1523 24.0843 13.7384 23.9579C13.0002 23.7325 12.4982 23.4185 12.2258 23.032C11.9465 22.6356 11.9365 22.2017 12.1048 21.8315L13.5535 16.6676C13.6062 16.4798 13.8128 16.5642 14.0002 16.617C14.0002 16.617 14.0528 16.7096 14.0001 16.8974L12.5713 21.6506L13.0653 21.5698C13.0653 21.5698 13.8174 21.5622 14.1775 21.6802C14.5284 21.7951 14.8857 21.9521 15.1059 22.1326C15.2012 22.2107 15.3632 22.3665 15.3705 22.5948C15.3795 22.8751 15.165 23.0286 15.0184 23.0974C14.8421 23.1801 14.5495 23.1609 14.5496 22.9273C14.5497 22.6937 15.0185 22.9275 15.0186 22.6254C14.9031 22.3058 14.3183 22.1084 14.0637 22.0251C13.7425 21.9199 13.0376 21.9312 13.0376 21.9312C12.9013 21.9219 12.5146 22.0187 12.4778 22.1179C12.4241 22.2625 12.456 22.6092 12.5708 22.7721C12.7147 22.9763 13.1739 23.4433 13.8412 23.647C14.1901 23.7536 14.8412 23.8596 15.1824 23.8012C15.5123 23.7446 15.9016 23.3647 15.9829 23.0978Z" fill="#D5DCDF" fill-opacity="0.4"/>
<path fill-rule="evenodd" clip-rule="evenodd" d="M21.8348 18.0463C21.8729 18.031 21.9979 17.8802 22.1128 17.7111C22.3713 17.3306 22.7872 16.9364 23.0974 16.778C23.2266 16.712 23.5158 16.6263 23.7401 16.5873C24.1668 16.5133 24.2883 16.4285 24.2884 16.2049C24.2884 16.1392 24.2425 16.0285 24.1864 15.959C24.097 15.8484 23.4577 16.0962 23.4577 16.0962C22.7113 16.4203 22.527 16.4812 21.9648 17.0468L21.6848 17.3104L21.4051 17.0466C21.232 16.8029 20.8008 16.5553 20.5658 16.3754C20.1839 16.083 18.7758 16.0943 18.2248 16.3744C18.2248 16.3744 17.7582 16.6841 17.5716 16.871L17.1983 17.3086L16.8253 16.8707C16.8253 16.8707 16.7321 16.6837 16.0792 16.3735C15.2667 15.9876 14.4935 16.1565 13.8404 16.3726C13.1873 16.5888 12.7205 17.3362 12.7205 17.3362C12.7205 17.3362 11.9746 16.5286 11.7881 16.3718C11.4404 16.0794 9.82936 15.7049 8.89608 16.7326L8.24283 17.3344L7.68336 16.7517C7.21713 16.2646 7.0439 16.2844 6.17957 15.9516C5.89044 15.94 5.82296 15.8409 5.73354 15.9514C5.67737 16.0209 5.63133 16.1315 5.63131 16.1972C5.63122 16.4207 5.75267 16.5057 6.17931 16.5801C6.40356 16.6192 6.69352 16.7056 6.82366 16.7722C7.13068 16.9293 7.58657 17.3638 7.82972 17.7312C8.13775 18.1965 8.35746 18.1824 8.69339 17.6758C9.66091 16.2169 11.2743 16.2072 12.2545 17.6544C12.6173 18.1902 12.8329 18.2065 13.1428 17.7216C13.4193 17.289 13.7946 16.9457 14.2003 16.7544C14.4958 16.6152 14.6193 16.5882 14.9623 16.5878C15.3158 16.5874 15.4208 16.6116 15.7321 16.7653C16.1498 16.9715 16.503 17.2956 16.7757 17.7231C17.0746 18.1917 17.3033 18.1891 17.6225 17.7134C18.6288 16.2141 20.2444 16.1995 21.2251 17.681C21.4665 18.0457 21.6152 18.1347 21.8348 18.0463Z" fill="#D5DCDF" fill-opacity="0.4"/>
<defs>
<linearGradient id="paint0_linear_1625_73" x1="15" y1="40.0062" x2="15.0165" y2="0.00621724" gradientUnits="userSpaceOnUse">
<stop offset="0.232322" stop-color="#BA26C5"/>
<stop offset="1" stop-color="#EA89F1"/>
</linearGradient>
</defs>
</svg>
