<svg width="30" height="40" viewBox="0 0 30 40" fill="none" xmlns="http://www.w3.org/2000/svg">
<path fill-rule="evenodd" clip-rule="evenodd" d="M16.5238 39.9252C23.2413 39.2527 28.7424 34.0347 29.8511 27.2838C30.1077 25.7215 30.0252 23.2033 29.6607 21.4751C28.66 16.7299 25.4804 11.2892 20.3879 5.60736C19.7123 4.85349 18.2188 3.28342 17.0693 2.11834L14.9792 0L12.8891 2.11834C7.58799 7.49107 4.34737 11.7198 2.28949 15.9498C0.576521 19.4708 0.0144444 21.6431 0.000265121 24.797C-0.0124226 27.6107 0.429129 29.5403 1.60639 31.8178C4.44999 37.3181 10.3788 40.5405 16.5238 39.9252Z" fill="url(#paint0_linear_1625_80)" fill-opacity="0.4"/>
<path d="M16.4739 39.4277L16.4739 39.4277C10.5338 40.0225 4.80034 36.907 2.05056 31.5882C0.913837 29.3892 0.4879 27.5403 0.500259 24.7993C0.51403 21.7362 1.05122 19.6379 2.73911 16.1686L2.28949 15.9498L2.73911 16.1686C4.76321 12.0079 7.96195 7.82396 13.245 2.46951L14.9792 0.711899L16.7134 2.46951C17.8603 3.63192 19.3475 5.19563 20.0155 5.94107L20.3879 5.60736L20.0156 5.94108C25.08 11.5917 28.1963 16.9545 29.1715 21.5783C29.5246 23.2528 29.6032 25.7082 29.3578 27.2028L29.8511 27.2838L29.3578 27.2028C28.285 33.7347 22.9622 38.7781 16.4739 39.4277Z" stroke="#373739" stroke-opacity="0.4"/>
<path fill-rule="evenodd" clip-rule="evenodd" d="M11.032 31.4923C10.9304 31.5202 10.8382 31.5531 10.7521 31.4923L9.25953 30.5578C9.16548 30.4914 8.9793 30.3927 8.97968 30.2774C8.98006 30.1621 9.16625 29.997 9.16625 29.997L9.99367 29.141C10.1085 29.061 10.189 28.9893 10.3083 29.0625L11.7076 29.9036C11.8589 29.9964 11.7577 30.0218 11.685 30.1839L11.2185 31.212C11.2185 31.212 11.1335 31.4645 11.032 31.4923ZM10.9387 31.3054L11.4984 30.0905L10.1924 29.3428L9.25953 30.2774L10.9387 31.3054Z" fill="#D5DCDF" fill-opacity="0.4"/>
<path d="M12.4311 30.184L11.1299 29.5051L9.26423 28.4771L9.446 28.1279L9.61263 27.7194L10.1646 27.8792L10.4721 27.2764C10.5143 27.2017 10.5633 27.0865 10.6587 26.996C10.7134 26.9442 11.0319 27.0999 11.1251 27.0065L11.405 26.3523C11.4617 26.1857 11.4809 26.0026 11.5031 25.9471C11.6241 25.4953 11.2232 25.2996 11.2232 25.2996C11.2232 25.2996 10.6624 24.8791 10.4769 24.7389C8.84535 23.4351 8.28441 21.4514 8.28441 20.4612C8.28441 19.8663 8.36657 19.125 8.49675 18.5708C8.56121 18.2963 8.56295 18.1769 8.61124 18.01C8.63535 17.9267 8.69065 17.681 8.70452 17.6362C8.76518 17.4508 8.79627 17.4166 8.61124 17.3558L8.31272 17.4652L8.31138 17.4694L8.30654 17.4845C8.30239 17.4975 8.29641 17.5164 8.28888 17.5407C8.27383 17.5893 8.25252 17.6595 8.22706 17.7475C8.17617 17.9234 8.10844 18.1711 8.04069 18.4596C7.90642 19.0313 7.76686 19.7845 7.76686 20.4612C7.76686 21.6435 8.33606 23.5778 10.1525 25.0293C10.2429 25.1015 10.3309 25.1679 10.4156 25.2318C10.5826 25.3577 10.7365 25.4738 10.8695 25.6052C11.0571 25.7906 11.0792 25.8911 11.0701 25.9471C11.0366 26.0354 10.979 26.2028 10.9307 26.3446C10.9029 26.4263 10.8768 26.5037 10.8577 26.5607L10.8348 26.629L10.8261 26.6549C10.8201 26.673 10.8145 26.6847 10.8106 26.6917C10.8067 26.6919 10.8014 26.6921 10.7947 26.6919C10.7736 26.6914 10.7492 26.6883 10.7134 26.6826C10.6402 26.671 10.5544 26.6751 10.4687 26.7125C10.3838 26.7496 10.3258 26.8079 10.2881 26.8613C10.2227 26.9541 10.2016 27.0588 10.1927 27.1044C10.1871 27.1333 10.1826 27.1623 10.1791 27.1844L10.1791 27.1848C10.1753 27.2092 10.1725 27.2268 10.1695 27.2432C10.1674 27.2542 10.1657 27.2617 10.1646 27.2662L10.0212 27.51C9.99644 27.5025 9.9705 27.4953 9.94404 27.4889C9.77767 27.4489 9.57898 27.304 9.35752 27.636L9.02928 28.3629C8.98438 28.4771 9.07766 28.7575 9.28629 28.9039L11.7746 30.2541C11.7746 30.2541 12.2009 30.5128 12.4345 30.4643C12.6567 30.4182 12.7981 30.2685 12.8656 30.1826L12.8785 30.1663L12.8893 30.1486C12.8955 30.1384 12.9033 30.1258 12.9123 30.1115C12.9476 30.0548 13.0006 29.9696 13.0454 29.8867C13.0742 29.8335 13.1047 29.7722 13.1288 29.7097C13.1503 29.6538 13.1792 29.566 13.1792 29.4689C13.1792 29.3403 13.1295 29.2292 13.0925 29.16C13.0512 29.0829 12.9993 29.0103 12.95 28.9488C12.9361 28.9314 12.9218 28.9142 12.9072 28.8972L13.018 28.7449C13.0423 28.7293 13.0685 28.7113 13.0943 28.6913C13.1445 28.6524 13.2139 28.5905 13.2649 28.5014C13.3213 28.4028 13.3519 28.2752 13.3181 28.1353C13.287 28.0067 13.2106 27.9064 13.1313 27.8308L13.1295 27.829C13.1309 27.8216 13.1343 27.8105 13.1408 27.7973C13.1481 27.7823 13.1557 27.772 13.1582 27.7691L13.1846 27.7375L13.2028 27.7013C13.2028 27.7013 13.2056 27.6963 13.2129 27.6851C13.2211 27.6728 13.2323 27.6568 13.2468 27.6373C13.2759 27.5982 13.3136 27.551 13.357 27.4988C13.4437 27.3948 13.5456 27.2804 13.6306 27.1877L13.6415 27.1758L13.6512 27.1631C13.6861 27.1174 13.7471 27.0729 13.8778 27.0418C14.0142 27.0093 14.195 26.999 14.4329 27.003C14.5635 27.0052 14.7118 27.0121 14.8725 27.0197C15.2616 27.0379 15.7241 27.0595 16.1879 27.0255C19.423 26.7882 20.8776 24.2007 21.1721 23.6768L21.1723 23.6764C21.1823 23.6587 21.1909 23.6433 21.1982 23.6305C21.2054 23.6179 21.2137 23.6036 21.2229 23.5877C21.5158 23.081 22.7514 20.9438 21.948 17.7779C21.9 17.5888 21.6742 17.2542 21.4854 17.3022C21.2967 17.3503 21.3434 17.3537 21.3914 17.5427C22.1248 20.4327 21.1943 22.8719 20.9249 23.337C20.6378 23.8455 18.9868 26.4857 16.1364 26.6947C15.7157 26.7256 15.3293 26.7073 14.9579 26.6896C14.7842 26.6814 14.6138 26.6733 14.4447 26.6704C14.1937 26.6662 13.9403 26.6746 13.7149 26.7282C13.4889 26.782 13.3688 26.7949 13.2883 26.9072C13.2006 27.0029 12.9957 27.3556 12.9957 27.3556C12.9957 27.3556 12.8356 27.6243 12.7802 27.7194C12.7127 27.809 12.9737 28.0382 12.95 28.1967C12.9273 28.3492 12.6225 28.7575 12.6225 28.7575L12.4359 29.0378C12.4359 29.0378 12.7968 29.3829 12.8656 29.4689L12.6225 29.8867L12.4311 30.184Z" fill="#D5DCDF" fill-opacity="0.4"/>
<path fill-rule="evenodd" clip-rule="evenodd" d="M15.9757 23.0912L16.1084 22.6734C16.1084 22.6734 15.8558 22.3698 15.8286 22.2996C15.642 22.1127 15.2085 21.6399 13.7342 21.2025C13.6415 21.1751 13.5641 21.1107 13.5202 21.0244C13.4763 20.9382 13.4696 20.8377 13.5017 20.7464L13.8343 20.8638C13.5017 20.7464 13.5017 20.7464 13.5017 20.7464L13.5135 20.7128C13.5213 20.6908 13.5326 20.6583 13.5472 20.6167C13.5764 20.5334 13.6183 20.4134 13.6692 20.2667C13.7711 19.9733 13.9092 19.5735 14.0538 19.1473C14.3455 18.2874 14.7551 17.0176 14.8566 16.6112C14.9038 16.4219 15.1075 16.246 15.2964 16.2933C15.4854 16.3406 15.3437 16.8174 15.2964 17.0067L14.5512 19.2319L13.9509 20.8638C14.8218 21.159 15.3356 21.0983 16.2017 22.1263L17.6568 17.0067C17.7122 16.8196 17.8434 16.792 17.9367 16.8197C18.03 16.8474 18.164 16.9357 18.1086 17.1227L16.4559 22.7077C16.4501 22.7718 16.4395 22.831 16.4263 22.8845C16.4034 22.9776 16.373 23.053 16.3471 23.1071C16.3384 23.1253 16.3301 23.1412 16.3226 23.1548C16.1292 23.7318 15.6464 23.9922 15.163 24.0752C14.6788 24.1585 14.1456 24.0784 13.7316 23.9522C12.9934 23.7271 12.4912 23.4133 12.2186 23.0269C11.9391 22.6307 11.929 22.1968 12.0971 21.8265L13.5437 16.662C13.5963 16.4741 13.8029 16.5585 13.9904 16.6112C13.9904 16.6112 14.0431 16.7037 13.9904 16.8916L12.5636 21.6454L13.0576 21.5644C13.0576 21.5644 13.8096 21.5565 14.1698 21.6743C14.5207 21.7891 14.8781 21.9459 15.0984 22.1263C15.1937 22.2044 15.3558 22.3601 15.3632 22.5884C15.3723 22.8688 15.1579 23.0223 15.0113 23.0912C14.835 23.174 14.5424 23.1548 14.5424 22.9213C14.5424 22.6877 15.0113 22.9213 15.0113 22.6191C14.8957 22.2996 14.3108 22.1025 14.0561 22.0192C13.7349 21.9142 13.03 21.9258 13.03 21.9258C12.8937 21.9165 12.5071 22.0135 12.4703 22.1127C12.4166 22.2574 12.4487 22.6041 12.5636 22.7669C12.7076 22.971 13.1669 23.4378 13.8343 23.6413C14.1832 23.7477 14.8344 23.8535 15.1756 23.7949C15.5054 23.7382 15.8946 23.3581 15.9757 23.0912Z" fill="#D5DCDF" fill-opacity="0.4"/>
<path fill-rule="evenodd" clip-rule="evenodd" d="M21.8258 18.0373C21.8638 18.0219 21.9888 17.871 22.1035 17.7019C22.3619 17.3213 22.7777 16.9269 23.0878 16.7684C23.217 16.7024 23.5061 16.6165 23.7304 16.5775C24.1571 16.5033 24.2786 16.4184 24.2786 16.1948C24.2786 16.1291 24.2326 16.0185 24.1764 15.949C24.087 15.8384 23.4478 16.0865 23.4478 16.0865C22.7016 16.4109 22.5173 16.4719 21.9553 17.0377L21.6754 17.3014L21.3956 17.0377C21.2224 16.7941 20.7911 16.5467 20.556 16.3669C20.174 16.0747 18.7659 16.0865 18.215 16.3669C18.215 16.3669 17.7486 16.6768 17.562 16.8637L17.1889 17.3014L16.8157 16.8637C16.8157 16.8637 16.7224 16.6768 16.0694 16.3669C15.2568 15.9812 14.4836 16.1504 13.8306 16.3669C13.1776 16.5833 12.7112 17.3309 12.7112 17.3309C12.7112 17.3309 11.9649 16.5236 11.7783 16.3669C11.4305 16.0747 9.8193 15.7009 8.88645 16.7289L8.23345 17.3309L7.67373 16.7485C7.20731 16.2616 7.03408 16.2815 6.16961 15.949C5.88048 15.9376 5.81296 15.8384 5.72358 15.949C5.66744 16.0185 5.62145 16.1291 5.62145 16.1948C5.62145 16.4184 5.74294 16.5033 6.16961 16.5775C6.39388 16.6165 6.68388 16.7028 6.81404 16.7694C7.12113 16.9263 7.57719 17.3607 7.8205 17.7279C8.12872 18.1931 8.34843 18.179 8.68415 17.6722C9.65106 16.2129 11.2645 16.2025 12.2452 17.6494C12.6083 18.1849 12.8239 18.2011 13.1335 17.7162C13.4099 17.2834 13.7851 16.94 14.1907 16.7485C14.4861 16.6092 14.6096 16.5821 14.9526 16.5816C15.3061 16.581 15.4111 16.6052 15.7224 16.7587C16.1403 16.9648 16.4936 17.2888 16.7665 17.7162C17.0656 18.1846 17.2942 18.1819 17.6133 17.7061C18.619 16.2063 20.2346 16.1911 21.2159 17.6722C21.4574 18.0368 21.6061 18.1258 21.8258 18.0373Z" fill="#D5DCDF" fill-opacity="0.4"/>
<defs>
<linearGradient id="paint0_linear_1625_80" x1="15" y1="40" x2="15" y2="0" gradientUnits="userSpaceOnUse">
<stop stop-color="#653B9B"/>
<stop offset="1" stop-color="#A771EC"/>
</linearGradient>
</defs>
</svg>
