<svg width="26" height="25" viewBox="0 0 26 25" fill="none" xmlns="http://www.w3.org/2000/svg">
<path fill-rule="evenodd" clip-rule="evenodd" d="M20.7814 0.122291C19.4708 0.414774 19.7458 0.166646 12.5064 7.58673C7.13409 13.0932 5.79701 14.5116 5.59059 14.9233C5.36012 15.3828 5.33453 15.5261 5.33372 16.3616C5.33254 17.4537 5.51455 17.945 6.16916 18.6168C6.98951 19.4586 8.12433 19.7379 9.27849 19.382L9.94396 19.1767L15.0299 13.9665C19.1411 9.75483 20.1158 8.71017 20.1158 8.51549C20.1158 8.21911 19.7727 7.87105 19.4805 7.87105C19.3148 7.87105 18.0911 9.07169 14.2874 12.9661C8.98391 18.3961 9.13238 18.2654 8.27125 18.2612C7.37116 18.257 6.46618 17.3113 6.46347 16.3723C6.4613 15.6439 6.39132 15.7235 13.2361 8.67899C20.6931 1.00438 20.3194 1.32906 21.6962 1.32925C22.5352 1.32934 23.1836 1.58257 23.7941 2.1487C24.5286 2.82971 24.9313 4.05522 24.7334 5.007C24.5083 6.0885 24.6598 5.91729 16.4635 14.3478C12.1816 18.7521 8.4689 22.5223 8.21321 22.7259C6.37739 24.1879 4.04185 24.0579 2.43515 22.4043C1.10314 21.0334 0.778904 19.0812 1.59346 17.3359C1.85016 16.7858 2.44699 16.1444 8.38002 10.042C14.6068 3.63747 14.8839 3.33821 14.8557 3.04536C14.8365 2.84372 14.7436 2.67623 14.5836 2.55411C14.3744 2.39469 14.3043 2.3843 14.079 2.48006C13.935 2.54131 10.9483 5.54352 7.44177 9.15168C0.738667 16.0491 0.658921 16.1404 0.211451 17.4287C0.0338728 17.9401 0.00168469 18.2155 5.71911e-05 19.2382C-0.0015703 20.2643 0.0306179 20.5461 0.215158 21.1245C0.761453 22.8357 2.1583 24.228 3.88606 24.783C4.84827 25.0922 6.26112 25.0686 7.22089 24.7274C7.61293 24.588 8.2029 24.2922 8.53192 24.0701C9.30697 23.5468 25.1345 7.28951 25.4771 6.66474C25.8359 6.01055 25.9997 5.3082 26 4.42287C26.0005 2.30728 24.614 0.562036 22.5814 0.119972C21.843 -0.0405598 21.5092 -0.0401889 20.7814 0.122291Z" fill="#D5DCDF"/>
</svg>
