<svg width="25" height="25" viewBox="0 0 25 25" fill="none" xmlns="http://www.w3.org/2000/svg">
<path fill-rule="evenodd" clip-rule="evenodd" d="M10.6465 0.11105C7.90259 0.537297 5.63088 1.69233 3.64169 3.67257C1.82442 5.48169 0.736406 7.48889 0.18025 10.058C0.0258068 10.7713 0 11.1236 0 12.5163C0 14.3065 0.113947 15.0698 0.596732 16.5141C1.8133 20.1534 4.85294 23.1891 8.49701 24.404C9.94314 24.8862 10.7075 25 12.5 25C14.2835 25 15.058 24.8858 16.473 24.414C20.1539 23.187 23.1805 20.1719 24.4033 16.5141C24.8861 15.0698 25 14.3065 25 12.5163C25 10.7262 24.8861 9.96279 24.4033 8.51855C22.9187 4.07749 18.9572 0.782895 14.2866 0.104785C13.307 -0.0374029 11.5832 -0.0344687 10.6465 0.11105ZM14.4116 1.22215C17.9324 1.81144 21.0451 4.08383 22.6911 7.26669C23.1547 8.16296 23.6443 9.62631 23.8089 10.6072C23.9731 11.5856 23.9731 13.447 23.8089 14.4254C23.5401 16.0274 22.782 17.8414 21.8112 19.2054C21.2254 20.0286 20.0221 21.2303 19.1978 21.8153C17.8075 22.8023 16.0004 23.5488 14.3449 23.8201C13.2214 24.0042 11.0971 23.951 10.074 23.7131C6.57675 22.8997 3.79653 20.7359 2.22089 17.6012C1.82116 16.806 1.34314 15.3319 1.19108 14.4254C1.02687 13.447 1.02687 11.5856 1.19108 10.6072C1.87135 6.55337 4.78028 3.09113 8.64471 1.73594C9.29877 1.50652 10.3742 1.23531 10.9516 1.15411C11.5957 1.06354 13.7125 1.1051 14.4116 1.22215ZM9.45973 7.65907C7.9376 9.17477 6.63924 10.5147 6.57461 10.6369C6.37316 11.0173 6.6101 11.4061 7.04342 11.4061C7.26416 11.4061 7.55931 11.1404 9.61846 9.08833L11.9442 6.7705V13.2913C11.9442 19.7064 11.9467 19.8146 12.103 19.9707C12.3071 20.1746 12.6929 20.1746 12.897 19.9707C13.0533 19.8146 13.0558 19.7064 13.0558 13.2913V6.7705L15.3815 9.08833C17.4407 11.1404 17.7358 11.4061 17.9566 11.4061C18.3899 11.4061 18.6268 11.0173 18.4254 10.6369C18.3608 10.5147 17.0624 9.17477 15.5403 7.65907C12.9795 5.10928 12.7523 4.90334 12.5 4.90334C12.2477 4.90334 12.0205 5.10928 9.45973 7.65907Z" fill="#D5DCDF"/>
</svg>
