<svg width="112" height="72" viewBox="0 0 112 72" fill="none" xmlns="http://www.w3.org/2000/svg">
<path d="M54.3781 24.5988C53.935 25.1621 53.907 25.4849 53.907 30.0523V34.907H49.0523C44.4849 34.907 44.1621 34.935 43.5988 35.3781C43.2018 35.6903 43 36.0675 43 36.4976C43 36.9278 43.2018 37.305 43.5988 37.6172C44.1621 38.0603 44.4849 38.0883 49.0523 38.0883H53.907V42.943C53.907 47.5103 53.935 47.8332 54.3781 48.3965C55.0107 49.2012 55.9846 49.2012 56.6172 48.3965C57.0603 47.8332 57.0883 47.5103 57.0883 42.943V38.0883H61.943C66.5103 38.0883 66.8332 38.0603 67.3965 37.6172C68.2012 36.9846 68.2012 36.0107 67.3965 35.3781C66.8332 34.935 66.5103 34.907 61.943 34.907H57.0883V30.0523C57.0883 25.4849 57.0603 25.1621 56.6172 24.5988C56.305 24.2018 55.9278 24 55.4976 24C55.0675 24 54.6903 24.2018 54.3781 24.5988Z" fill="#D5DCDF" fill-opacity="0.6" stroke="#D5DCDF" stroke-opacity="0.6"/>
<rect width="112" height="72" rx="8" fill="#D5DCDF" fill-opacity="0.05" stroke="#373839" stroke-width="2" stroke-dasharray="15 15"/>
</svg>
