<svg width="20" height="20" viewBox="0 0 20 20" fill="none" xmlns="http://www.w3.org/2000/svg">
<path fill-rule="evenodd" clip-rule="evenodd" d="M9.73961 0.116212C9.68243 0.182672 9.07925 1.74551 8.39912 3.58911L7.16257 6.94121L6.87994 6.96012C6.72452 6.97046 5.15916 7.05669 3.40145 7.15167C0.261652 7.32136 0.203661 7.32681 0.100532 7.46089C-0.0323184 7.63347 -0.033598 7.84147 0.0972752 7.99771C0.153231 8.06453 1.36384 9.11803 2.78745 10.3388C4.21106 11.5596 5.38688 12.5684 5.40043 12.5805C5.41399 12.5927 5.02736 14.1834 4.54132 16.1155C3.7662 19.1964 3.6661 19.6479 3.72688 19.7883C3.80797 19.9756 4.02545 20.0506 4.23729 19.9645C4.31965 19.931 5.63705 19.0593 7.16484 18.0274C8.69262 16.9955 9.96983 16.1513 10.003 16.1513C10.0361 16.1513 11.3485 17.0187 12.9194 18.079C16.0369 20.1832 16.065 20.1973 16.2756 19.7764C16.3349 19.6581 16.2169 19.1292 15.46 16.1203C14.9733 14.1856 14.586 12.5928 14.5996 12.5808C14.6132 12.5688 15.789 11.561 17.2126 10.3413C18.6362 9.12158 19.8468 8.06796 19.9028 7.99991C20.0339 7.84049 20.0323 7.63334 19.8985 7.45955C19.794 7.32381 19.7458 7.31922 16.6267 7.15001C14.8855 7.05559 13.3206 6.96991 13.1492 6.95975L12.8375 6.94121L11.6009 3.58911C10.9208 1.74551 10.3176 0.182672 10.2604 0.116212C10.1271 -0.0387374 9.87292 -0.0387374 9.73961 0.116212ZM11.1044 4.56813C11.6958 6.17424 12.2324 7.55134 12.2968 7.62839C12.4122 7.76638 12.4558 7.77079 15.2059 7.92084C16.7414 8.00462 18.1091 8.07322 18.245 8.07328C18.381 8.07328 18.491 8.09403 18.4896 8.11924C18.4881 8.14446 17.4272 9.07391 16.1318 10.1846C14.7315 11.3854 13.7638 12.2573 13.7449 12.3353C13.7272 12.4084 14.0519 13.8133 14.4781 15.5082C14.8988 17.1811 15.2303 18.5633 15.2147 18.5796C15.1991 18.596 14.0393 17.8341 12.6374 16.8864C10.8595 15.6847 10.0513 15.171 9.96547 15.1882C9.89782 15.2018 8.71147 15.9777 7.3291 16.9123C5.94679 17.847 4.8026 18.5978 4.78643 18.5808C4.77026 18.5638 5.10123 17.1811 5.52194 15.5082C5.94847 13.8121 6.27292 12.4079 6.25536 12.3342C6.23633 12.2546 5.3033 11.409 3.91581 10.2141C2.64645 9.12085 1.57957 8.20718 1.54497 8.18374C1.51042 8.16037 1.49442 8.12995 1.50948 8.11618C1.52455 8.10248 2.89796 8.01888 4.56151 7.93045C7.55402 7.7714 7.58735 7.76816 7.70322 7.629C7.76761 7.55165 8.30419 6.17424 8.89562 4.56813C9.48705 2.96203 9.98402 1.64796 10 1.64796C10.016 1.64796 10.513 2.96203 11.1044 4.56813Z" fill="url(#paint0_linear_1572_6)"/>
<defs>
<linearGradient id="paint0_linear_1572_6" x1="-3.39001e-08" y1="11" x2="22.5" y2="7.5" gradientUnits="userSpaceOnUse">
<stop stop-color="#766AC8"/>
<stop offset="1" stop-color="#B77EFF"/>
</linearGradient>
</defs>
</svg>
