<svg width="20" height="20" viewBox="0 0 20 20" fill="none" xmlns="http://www.w3.org/2000/svg">
<path fill-rule="evenodd" clip-rule="evenodd" d="M8.39912 3.58911C9.07925 1.74551 9.68243 0.182672 9.73961 0.116212C9.87292 -0.0387374 10.1271 -0.0387374 10.2604 0.116212C10.3176 0.182672 10.9208 1.74551 11.6009 3.58911L12.8375 6.94121L13.1492 6.95975C13.3206 6.96991 14.8855 7.05559 16.6267 7.15001C19.7458 7.31922 19.794 7.32381 19.8985 7.45955C20.0323 7.63334 20.0339 7.84049 19.9028 7.99991C19.8468 8.06796 18.6362 9.12158 17.2126 10.3413C15.789 11.561 14.6132 12.5688 14.5996 12.5808C14.586 12.5928 14.9733 14.1856 15.46 16.1203C16.2169 19.1292 16.3349 19.6581 16.2756 19.7764C16.065 20.1973 16.0369 20.1831 12.9194 18.079C11.3485 17.0187 10.0361 16.1513 10.003 16.1513C9.96983 16.1513 8.69262 16.9955 7.16484 18.0274C5.63705 19.0593 4.31965 19.931 4.23729 19.9645C4.02545 20.0506 3.80797 19.9756 3.72688 19.7883C3.6661 19.6479 3.7662 19.1964 4.54132 16.1155C5.02736 14.1834 5.41399 12.5927 5.40043 12.5805C5.38688 12.5683 4.21106 11.5596 2.78745 10.3388C1.36384 9.11803 0.153231 8.06453 0.0972752 7.99771C-0.033598 7.84147 -0.0323184 7.63347 0.100532 7.46089C0.203661 7.32681 0.261652 7.32136 3.40145 7.15167C5.15916 7.05669 6.72452 6.97046 6.87994 6.96012L7.16257 6.94121L8.39912 3.58911ZM12.2968 7.62839C12.2324 7.55134 11.6958 6.17424 11.1044 4.56813C10.513 2.96203 10.016 1.64796 10 1.64796L9.96547 15.1882C10.0513 15.171 10.8595 15.6847 12.6374 16.8864C14.0393 17.8341 15.1991 18.596 15.2147 18.5796C15.2303 18.5633 14.8988 17.1811 14.4781 15.5082C14.0519 13.8133 13.7272 12.4084 13.7449 12.3353C13.7638 12.2573 14.7315 11.3854 16.1318 10.1846C17.4272 9.07391 18.4881 8.14446 18.4896 8.11924C18.491 8.09403 18.381 8.07329 18.245 8.07329C18.1091 8.07322 16.7414 8.00462 15.2059 7.92084C12.4558 7.77079 12.4122 7.76639 12.2968 7.62839Z" fill="url(#paint0_linear_1170_943)"/>
<defs>
<linearGradient id="paint0_linear_1170_943" x1="0.916667" y1="17.5" x2="20.4222" y2="17.4444" gradientUnits="userSpaceOnUse">
<stop stop-color="#766AC8"/>
<stop offset="1" stop-color="#B77EFF"/>
</linearGradient>
</defs>
</svg>
