<svg width="20" height="20" viewBox="0 0 20 20" fill="none" xmlns="http://www.w3.org/2000/svg">
<path fill-rule="evenodd" clip-rule="evenodd" d="M9.73961 0.116212C9.68243 0.182672 9.07925 1.74551 8.39912 3.58911L7.16257 6.94121L6.87994 6.96012C6.72452 6.97046 5.15916 7.05669 3.40145 7.15167C0.261652 7.32136 0.203661 7.32681 0.100532 7.46089C-0.0323184 7.63347 -0.033598 7.84147 0.0972752 7.99771C0.153231 8.06453 1.36384 9.11803 2.78745 10.3388C4.21106 11.5596 5.38688 12.5683 5.40043 12.5805C5.41399 12.5927 5.02736 14.1834 4.54132 16.1155C3.7662 19.1964 3.6661 19.6479 3.72688 19.7883C3.80797 19.9756 4.02545 20.0506 4.23729 19.9645C4.31965 19.931 5.63705 19.0593 7.16484 18.0274C8.69262 16.9955 9.96983 16.1513 10.003 16.1513C10.0361 16.1513 11.3485 17.0187 12.9194 18.079C16.0369 20.1831 16.065 20.1973 16.2756 19.7764C16.3349 19.6581 16.2169 19.1292 15.46 16.1203C14.9733 14.1856 14.586 12.5928 14.5996 12.5808C14.6132 12.5688 15.789 11.561 17.2126 10.3413C18.6362 9.12158 19.8468 8.06796 19.9028 7.99991C20.0339 7.84049 20.0323 7.63334 19.8985 7.45955C19.794 7.32381 19.7458 7.31922 16.6267 7.15001C14.8855 7.05559 13.3206 6.96991 13.1492 6.95975L12.8375 6.94121L11.6009 3.58911C10.9208 1.74551 10.3176 0.182672 10.2604 0.116212C10.1271 -0.0387374 9.87292 -0.0387374 9.73961 0.116212Z" fill="url(#paint0_linear_1170_939)"/>
<defs>
<linearGradient id="paint0_linear_1170_939" x1="0.916667" y1="17.5" x2="20.4222" y2="17.4444" gradientUnits="userSpaceOnUse">
<stop stop-color="#766AC8"/>
<stop offset="1" stop-color="#B77EFF"/>
</linearGradient>
</defs>
</svg>
