<svg width="509" height="678" viewBox="0 0 509 678" fill="none" xmlns="http://www.w3.org/2000/svg">
<path fill-rule="evenodd" clip-rule="evenodd" d="M228.647 1.2671C114.672 12.6568 21.337 101.029 2.5255 215.363C-1.8281 241.823 -0.426839 284.472 5.75642 313.741C22.7361 394.106 76.6824 486.25 163.085 582.479C174.549 595.247 199.887 621.837 219.391 641.569L254.853 677.446L290.315 641.569C380.257 550.576 435.24 478.958 470.155 407.317C499.218 347.686 508.755 310.896 508.995 257.48C509.211 209.828 501.719 177.146 481.745 138.575C433.499 45.4205 332.906 -9.15396 228.647 1.2671Z" fill="url(#paint0_linear_1836_57)"/>
<mask id="mask0_1836_57" style="mask-type:alpha" maskUnits="userSpaceOnUse" x="37" y="86" width="435" height="317">
<path d="M146.54 115.351C174.503 99.2953 204.419 90.0976 238.528 87.0695C239.815 86.9557 248.238 86.9359 257.246 87.0259C269.954 87.1532 275.401 87.4246 281.556 88.2383C323.837 93.8271 361.462 110.272 393.988 137.381C403.493 145.303 417.062 159.333 425.219 169.674C446.491 196.64 461.418 229.652 467.773 263.782C476.437 310.319 469.72 357.493 449.062 399.19L445.923 400.401C441.75 402.717 428.085 399.319 420.125 393.989C418.762 393.075 414.934 389.651 411.62 386.38L405.596 380.432L404.681 381.827C402.791 384.712 395.771 391.544 392.379 393.799C388.327 396.493 383.097 398.97 379.854 399.731C378.62 400.021 374.66 400.505 371.053 400.806C365.109 401.302 363.994 401.251 359.108 400.255C349.018 398.199 343.782 395.231 334.687 386.406L329.719 381.586L326.168 385.506C315.669 397.099 302.107 402.482 287.645 400.798C280.321 399.944 276.853 398.962 271.882 396.331C265.244 392.817 259.056 387.334 255.044 381.411C254.731 380.95 254.218 381.283 253.233 382.587C250.423 386.307 243.229 392.926 239.765 394.98C232.462 399.31 225.528 401.031 215.651 400.962C203.095 400.875 193.859 396.595 183.448 386.038L179.062 381.59L173.951 386.777C165.39 395.464 158.346 399.048 145.956 401.019C143.369 401.43 132.299 400.447 128.562 399.473C121.221 397.561 112.811 391.91 106.873 384.901L103.14 380.494L98.228 385.735C89.1209 395.451 80.3236 399.839 67.4292 401.096L61.2514 402.309C58.2348 396.406 55.4884 390.346 53.0307 384.147C43.7946 360.849 39.1958 339.574 37.8299 313.826C33.556 233.257 75.9291 155.896 146.54 115.351Z" fill="#C4C4C4"/>
</mask>
<g mask="url(#mask0_1836_57)">
<mask id="path-3-inside-1_1836_57" fill="white">
<path fill-rule="evenodd" clip-rule="evenodd" d="M295.066 155.922C300.401 143.939 301.154 142.673 303.477 141.779C305.936 140.832 305.328 140.484 321.938 147.88C338.548 155.275 337.883 155.055 338.825 157.517C339.714 159.841 339.277 161.248 333.942 173.231L328.083 186.392L347.812 195.914C356.013 201.582 358.888 212.065 354.77 221.282C352.974 225.3 345.87 230.983 341.541 231.865C339.429 232.295 335.685 232.301 333.222 231.878L328.744 231.108L318.024 255.371C314.258 263.231 313.926 264.381 315.105 265.488C325.992 275.709 337.282 292.978 343.281 308.584C360.966 354.589 348.413 406.921 311.695 440.266C297.087 453.531 275.384 464.71 256.819 468.531L251.7 469.585L191.057 442.585L130.414 415.585L126.895 409.237C121.259 399.074 116.05 384.044 114.005 372.043C104.615 316.964 133.472 263.847 185.143 241.096C198.873 235.05 224.071 230.659 238.206 231.847L241.553 232.129L245.308 223.017L255.533 198.513L251.872 195.627C240.141 186.378 242.104 168.39 255.521 162.197C260.302 159.99 263.939 159.609 268.929 160.793L289.119 169.28L295.066 155.922ZM316.528 181.483L320.464 172.644L324.399 163.804L316.428 160.255L308.457 156.706L304.521 165.546L300.585 174.385L308.557 177.934L316.528 181.483ZM338.368 218.668C342.209 217.694 344.24 213.817 342.835 210.143C341.887 207.667 340.682 207.066 303.047 190.31C265.412 173.554 264.158 173.06 261.685 174.013C258.014 175.426 256.492 179.53 258.338 183.037C259.81 185.836 260.742 186.303 297.537 202.685C334.332 219.067 335.302 219.448 338.368 218.668ZM299.569 268.068C299.329 267.211 301.517 260.922 304.577 253.679L316.481 225.418L292.71 214.553C279.636 208.578 268.547 203.84 268.068 204.024C267.59 204.208 258.212 225.405 255.136 232.314C250.871 241.893 249.149 244.988 247.881 245.345C246.967 245.602 242.223 245.638 237.337 245.422C232.452 245.207 225.21 245.329 221.244 245.695C213.982 246.365 198.81 249.933 194.121 252.075C185.465 256.029 182.444 257.187 172.848 262.868C171.158 263.868 166.419 267.581 162.284 271.14C126.008 302.363 115.137 355.222 136.158 398.182L139.369 404.743L196.612 430.229L253.854 455.715L260.879 453.711C311.028 439.401 344.404 388.346 336.985 337.291L336.286 332.479L331.579 315.554L329.947 311.04C326.012 300.162 315.746 285.075 305.271 274.777C302.369 271.925 299.803 268.906 299.569 268.068Z"/>
</mask>
<path fill-rule="evenodd" clip-rule="evenodd" d="M295.066 155.922C300.401 143.939 301.154 142.673 303.477 141.779C305.936 140.832 305.328 140.484 321.938 147.88C338.548 155.275 337.883 155.055 338.825 157.517C339.714 159.841 339.277 161.248 333.942 173.231L328.083 186.392L347.812 195.914C356.013 201.582 358.888 212.065 354.77 221.282C352.974 225.3 345.87 230.983 341.541 231.865C339.429 232.295 335.685 232.301 333.222 231.878L328.744 231.108L318.024 255.371C314.258 263.231 313.926 264.381 315.105 265.488C325.992 275.709 337.282 292.978 343.281 308.584C360.966 354.589 348.413 406.921 311.695 440.266C297.087 453.531 275.384 464.71 256.819 468.531L251.7 469.585L191.057 442.585L130.414 415.585L126.895 409.237C121.259 399.074 116.05 384.044 114.005 372.043C104.615 316.964 133.472 263.847 185.143 241.096C198.873 235.05 224.071 230.659 238.206 231.847L241.553 232.129L245.308 223.017L255.533 198.513L251.872 195.627C240.141 186.378 242.104 168.39 255.521 162.197C260.302 159.99 263.939 159.609 268.929 160.793L289.119 169.28L295.066 155.922ZM316.528 181.483L320.464 172.644L324.399 163.804L316.428 160.255L308.457 156.706L304.521 165.546L300.585 174.385L308.557 177.934L316.528 181.483ZM338.368 218.668C342.209 217.694 344.24 213.817 342.835 210.143C341.887 207.667 340.682 207.066 303.047 190.31C265.412 173.554 264.158 173.06 261.685 174.013C258.014 175.426 256.492 179.53 258.338 183.037C259.81 185.836 260.742 186.303 297.537 202.685C334.332 219.067 335.302 219.448 338.368 218.668ZM299.569 268.068C299.329 267.211 301.517 260.922 304.577 253.679L316.481 225.418L292.71 214.553C279.636 208.578 268.547 203.84 268.068 204.024C267.59 204.208 258.212 225.405 255.136 232.314C250.871 241.893 249.149 244.988 247.881 245.345C246.967 245.602 242.223 245.638 237.337 245.422C232.452 245.207 225.21 245.329 221.244 245.695C213.982 246.365 198.81 249.933 194.121 252.075C185.465 256.029 182.444 257.187 172.848 262.868C171.158 263.868 166.419 267.581 162.284 271.14C126.008 302.363 115.137 355.222 136.158 398.182L139.369 404.743L196.612 430.229L253.854 455.715L260.879 453.711C311.028 439.401 344.404 388.346 336.985 337.291L336.286 332.479L331.579 315.554L329.947 311.04C326.012 300.162 315.746 285.075 305.271 274.777C302.369 271.925 299.803 268.906 299.569 268.068Z" fill="#D5DCDF"/>
<path d="M316.333 181.944L327.887 186.852L328.278 185.931L316.724 181.023L316.333 181.944ZM288.915 169.737L300.382 174.842L300.789 173.928L289.322 168.823L288.915 169.737ZM255.332 198.97L267.867 204.482L268.269 203.566L255.734 198.055L255.332 198.97ZM316.27 225.872L328.534 231.562L328.954 230.655L316.691 224.965L316.27 225.872ZM303.477 141.779L303.117 140.845L303.477 141.779ZM289.119 169.28L288.731 170.202L289.634 170.581L290.032 169.687L289.119 169.28ZM268.929 160.793L269.316 159.871L269.24 159.839L269.16 159.82L268.929 160.793ZM255.521 162.197L255.94 163.105L255.94 163.105L255.521 162.197ZM251.872 195.627L252.492 194.841L252.492 194.841L251.872 195.627ZM255.533 198.513L256.456 198.898L256.748 198.197L256.152 197.727L255.533 198.513ZM245.308 223.017L244.385 222.632L244.383 222.636L245.308 223.017ZM241.553 232.129L241.469 233.126L242.199 233.187L242.478 232.51L241.553 232.129ZM238.206 231.847L238.29 230.851L238.289 230.851L238.206 231.847ZM185.143 241.096L185.546 242.011L185.143 241.096ZM114.005 372.043L114.99 371.875L114.99 371.875L114.005 372.043ZM126.895 409.237L127.769 408.752L127.769 408.752L126.895 409.237ZM130.414 415.585L129.54 416.07L129.702 416.362L130.007 416.498L130.414 415.585ZM251.7 469.585L251.293 470.498L251.586 470.629L251.901 470.564L251.7 469.585ZM256.819 468.531L256.618 467.551L256.618 467.551L256.819 468.531ZM311.695 440.266L312.367 441.007L312.367 441.007L311.695 440.266ZM343.281 308.584L344.215 308.225L344.215 308.225L343.281 308.584ZM315.105 265.488L314.421 266.217L314.421 266.217L315.105 265.488ZM318.024 255.371L318.926 255.803L318.933 255.789L318.939 255.775L318.024 255.371ZM328.744 231.108L328.913 230.123L328.145 229.991L327.829 230.704L328.744 231.108ZM333.222 231.878L333.053 232.863L333.053 232.863L333.222 231.878ZM341.541 231.865L341.741 232.845L341.741 232.845L341.541 231.865ZM354.77 221.282L355.683 221.69L355.683 221.69L354.77 221.282ZM347.812 195.914L348.38 195.091L348.316 195.047L348.246 195.013L347.812 195.914ZM328.083 186.392L327.169 185.985L326.775 186.871L327.648 187.292L328.083 186.392ZM338.825 157.517L339.759 157.159L338.825 157.517ZM316.528 181.483L316.121 182.397L317.035 182.804L317.442 181.89L316.528 181.483ZM300.585 174.385L299.672 173.979L299.265 174.892L300.179 175.299L300.585 174.385ZM308.457 156.706L308.863 155.793L307.95 155.386L307.543 156.299L308.457 156.706ZM324.399 163.804L325.313 164.211L325.72 163.297L324.806 162.891L324.399 163.804ZM342.835 210.143L341.901 210.5L342.835 210.143ZM338.368 218.668L338.122 217.699L338.121 217.699L338.368 218.668ZM258.338 183.037L259.223 182.572L259.223 182.571L258.338 183.037ZM261.685 174.013L262.044 174.946L261.685 174.013ZM304.577 253.679L305.498 254.068L305.499 254.067L304.577 253.679ZM299.569 268.068L300.532 267.799L300.532 267.798L299.569 268.068ZM305.271 274.777L305.972 274.064L305.972 274.064L305.271 274.777ZM329.947 311.04L330.887 310.7L330.887 310.7L329.947 311.04ZM331.579 315.554L332.542 315.286L332.532 315.25L332.519 315.214L331.579 315.554ZM194.121 252.075L194.536 252.984L194.121 252.075ZM221.244 245.695L221.336 246.691L221.336 246.691L221.244 245.695ZM247.881 245.345L247.61 244.382L247.881 245.345ZM268.068 204.024L267.71 203.09L267.709 203.091L268.068 204.024ZM292.71 214.553L293.125 213.644L293.125 213.644L292.71 214.553ZM316.481 225.418L317.402 225.807L317.779 224.912L316.896 224.509L316.481 225.418ZM336.985 337.291L335.995 337.435L335.995 337.435L336.985 337.291ZM260.879 453.711L261.153 454.673L261.153 454.673L260.879 453.711ZM253.854 455.715L253.447 456.629L253.779 456.776L254.128 456.677L253.854 455.715ZM139.369 404.743L138.471 405.183L138.631 405.509L138.963 405.657L139.369 404.743ZM136.158 398.182L135.26 398.622L135.26 398.622L136.158 398.182ZM162.284 271.14L161.632 270.382L161.632 270.382L162.284 271.14ZM172.848 262.868L173.357 263.728L172.848 262.868ZM336.286 332.479L337.275 332.335L337.266 332.272L337.249 332.211L336.286 332.479ZM303.117 140.845C302.47 141.095 301.867 141.396 301.265 141.937C300.678 142.464 300.139 143.176 299.541 144.181C298.358 146.17 296.809 149.548 294.152 155.516L295.979 156.329C298.657 150.314 300.152 147.067 301.26 145.203C301.808 144.282 302.226 143.761 302.601 143.425C302.96 143.102 303.322 142.91 303.836 142.712L303.117 140.845ZM294.152 155.516L288.205 168.873L290.032 169.687L295.979 156.329L294.152 155.516ZM289.506 168.358L269.316 159.871L268.541 161.715L288.731 170.202L289.506 168.358ZM269.16 159.82C266.585 159.209 264.312 158.991 262.043 159.229C259.774 159.467 257.562 160.154 255.102 161.29L255.94 163.105C258.262 162.033 260.258 161.427 262.251 161.218C264.242 161.009 266.282 161.193 268.698 161.766L269.16 159.82ZM255.102 161.289C240.987 167.804 238.953 186.715 251.253 196.412L252.492 194.841C241.328 186.04 243.222 168.975 255.94 163.105L255.102 161.289ZM251.253 196.412L254.914 199.298L256.152 197.727L252.492 194.841L251.253 196.412ZM254.61 198.128L244.385 222.632L246.231 223.403L256.456 198.898L254.61 198.128ZM244.383 222.636L240.629 231.748L242.478 232.51L246.232 223.398L244.383 222.636ZM241.637 231.133L238.29 230.851L238.122 232.844L241.469 233.126L241.637 231.133ZM238.289 230.851C231.102 230.246 221.174 231.062 211.351 232.774C201.525 234.486 191.707 237.113 184.741 240.18L185.546 242.011C192.31 239.033 201.955 236.441 211.695 234.744C221.437 233.046 231.175 232.26 238.122 232.844L238.289 230.851ZM184.741 240.18C132.656 263.114 103.551 316.674 113.019 372.211L114.99 371.875C105.679 317.255 134.288 264.58 185.546 242.011L184.741 240.18ZM113.019 372.211C115.082 384.318 120.327 399.455 126.02 409.722L127.769 408.752C122.19 398.692 117.018 383.771 114.99 371.875L113.019 372.211ZM126.02 409.722L129.54 416.07L131.289 415.1L127.769 408.752L126.02 409.722ZM130.007 416.498L190.65 443.498L191.464 441.671L130.821 414.671L130.007 416.498ZM190.65 443.498L251.293 470.498L252.106 468.671L191.464 441.671L190.65 443.498ZM251.901 470.564L257.021 469.51L256.618 467.551L251.498 468.605L251.901 470.564ZM257.021 469.51C275.769 465.652 297.633 454.387 312.367 441.007L311.022 439.526C296.542 452.676 275 463.768 256.618 467.551L257.021 469.51ZM312.367 441.007C349.388 407.387 362.048 354.619 344.215 308.225L342.348 308.943C359.883 354.56 347.437 406.456 311.022 439.526L312.367 441.007ZM344.215 308.225C338.168 292.496 326.799 275.095 315.79 264.759L314.421 266.217C325.185 276.324 336.396 293.461 342.348 308.943L344.215 308.225ZM315.79 264.759C315.584 264.565 315.537 264.461 315.516 264.353C315.485 264.197 315.484 263.886 315.671 263.239C316.049 261.929 317.028 259.764 318.926 255.803L317.123 254.939C315.254 258.838 314.184 261.177 313.749 262.684C313.53 263.446 313.432 264.121 313.553 264.738C313.683 265.402 314.037 265.857 314.421 266.217L315.79 264.759ZM318.939 255.775L329.659 231.512L327.829 230.704L317.11 254.967L318.939 255.775ZM328.575 232.094L333.053 232.863L333.391 230.892L328.913 230.123L328.575 232.094ZM333.053 232.863C335.619 233.304 339.489 233.303 341.741 232.845L341.342 230.885C339.368 231.287 335.752 231.298 333.391 230.892L333.053 232.863ZM341.741 232.845C344.138 232.357 347.146 230.598 349.73 228.53C352.314 226.463 354.687 223.917 355.683 221.69L353.857 220.874C353.056 222.665 350.98 224.969 348.481 226.969C345.982 228.968 343.273 230.492 341.342 230.885L341.741 232.845ZM355.683 221.69C359.994 212.042 356.986 201.038 348.38 195.091L347.243 196.736C355.041 202.126 357.782 212.089 353.857 220.874L355.683 221.69ZM348.246 195.013L328.517 185.491L327.648 187.292L347.377 196.814L348.246 195.013ZM328.996 186.798L334.856 173.638L333.028 172.824L327.169 185.985L328.996 186.798ZM334.856 173.638C337.513 167.67 338.986 164.259 339.673 162.049C340.02 160.932 340.188 160.055 340.187 159.267C340.186 158.457 340.007 157.807 339.759 157.159L337.891 157.874C338.088 158.388 338.187 158.786 338.187 159.269C338.188 159.772 338.081 160.432 337.763 161.455C337.119 163.526 335.707 166.809 333.028 172.824L334.856 173.638ZM339.759 157.159C339.555 156.627 339.362 155.997 338.926 155.414C338.476 154.812 337.814 154.296 336.759 153.683C334.672 152.472 330.617 150.649 322.345 146.966L321.531 148.793C329.869 152.506 333.787 154.271 335.755 155.413C336.728 155.978 337.114 156.331 337.324 156.611C337.547 156.909 337.624 157.175 337.891 157.874L339.759 157.159ZM322.345 146.966C314.073 143.283 310.005 141.489 307.708 140.749C306.547 140.375 305.721 140.228 304.972 140.297C304.246 140.363 303.649 140.641 303.117 140.845L303.836 142.712C304.534 142.443 304.783 142.322 305.154 142.288C305.502 142.256 306.023 142.307 307.094 142.653C309.26 143.351 313.193 145.081 321.531 148.793L322.345 146.966ZM319.55 172.237L315.614 181.077L317.442 181.89L321.377 173.051L319.55 172.237ZM316.935 180.57L308.963 177.021L308.15 178.848L316.121 182.397L316.935 180.57ZM308.963 177.021L300.992 173.472L300.179 175.299L308.15 178.848L308.963 177.021ZM301.499 174.792L305.435 165.952L303.608 165.139L299.672 173.979L301.499 174.792ZM305.435 165.952L309.37 157.113L307.543 156.299L303.608 165.139L305.435 165.952ZM308.05 157.62L316.021 161.169L316.835 159.342L308.863 155.793L308.05 157.62ZM316.021 161.169L323.993 164.718L324.806 162.891L316.835 159.342L316.021 161.169ZM323.486 163.397L319.55 172.237L321.377 173.051L325.313 164.211L323.486 163.397ZM341.901 210.5C343.09 213.608 341.391 216.87 338.122 217.699L338.613 219.638C343.027 218.518 345.391 214.027 343.769 209.785L341.901 210.5ZM338.121 217.699C337.432 217.875 336.945 217.968 336.033 217.817C335.047 217.653 333.573 217.202 330.965 216.181C325.768 214.146 316.355 209.969 297.944 201.772L297.13 203.599C315.514 211.784 324.984 215.987 330.236 218.044C332.854 219.068 334.497 219.589 335.705 219.79C336.987 220.003 337.771 219.852 338.614 219.638L338.121 217.699ZM297.944 201.772C279.532 193.574 270.129 189.375 265.139 186.873C262.636 185.619 261.314 184.825 260.533 184.202C259.81 183.626 259.554 183.201 259.223 182.572L257.453 183.502C257.858 184.272 258.27 184.956 259.286 185.766C260.244 186.53 261.73 187.402 264.243 188.661C269.286 191.189 278.747 195.414 297.13 203.599L297.944 201.772ZM259.223 182.571C257.652 179.586 258.939 176.141 262.044 174.946L261.325 173.079C257.088 174.711 255.332 179.474 257.453 183.503L259.223 182.571ZM262.044 174.946C262.326 174.837 262.53 174.773 262.758 174.744C262.985 174.714 263.283 174.713 263.736 174.787C264.674 174.943 266.151 175.402 268.814 176.451C274.115 178.539 283.809 182.839 302.64 191.223L303.454 189.396C284.649 181.024 274.9 176.699 269.547 174.59C266.883 173.54 265.23 173.007 264.062 172.814C263.461 172.715 262.961 172.7 262.499 172.761C262.038 172.821 261.662 172.95 261.325 173.079L262.044 174.946ZM302.64 191.223C321.471 199.607 331.153 203.935 336.252 206.476C338.814 207.753 340.144 208.544 340.886 209.137C341.245 209.423 341.443 209.646 341.573 209.834C341.704 210.024 341.793 210.218 341.901 210.5L343.769 209.785C343.64 209.449 343.484 209.083 343.22 208.7C342.956 208.316 342.61 207.955 342.135 207.574C341.209 206.835 339.707 205.964 337.145 204.687C331.996 202.12 322.258 197.768 303.454 189.396L302.64 191.223ZM303.656 253.289C302.12 256.926 300.799 260.329 299.891 262.939C299.438 264.242 299.082 265.362 298.854 266.219C298.74 266.646 298.653 267.027 298.602 267.343C298.577 267.5 298.559 267.658 298.553 267.807C298.548 267.94 298.55 268.136 298.606 268.337L300.532 267.798C300.558 267.892 300.549 267.938 300.551 267.882C300.553 267.841 300.56 267.769 300.577 267.658C300.613 267.438 300.681 267.13 300.786 266.734C300.996 265.945 301.334 264.879 301.78 263.597C302.671 261.037 303.974 257.675 305.498 254.068L303.656 253.289ZM298.606 268.336C298.67 268.566 298.788 268.793 298.898 268.983C299.017 269.187 299.167 269.413 299.337 269.65C299.678 270.126 300.131 270.695 300.657 271.315C301.713 272.556 303.1 274.046 304.57 275.49L305.972 274.064C304.539 272.656 303.193 271.21 302.181 270.019C301.675 269.423 301.26 268.901 300.964 268.486C300.815 268.279 300.703 268.108 300.626 267.976C300.54 267.829 300.527 267.778 300.532 267.799L298.606 268.336ZM304.57 275.49C314.966 285.71 325.134 300.676 329.006 311.38L330.887 310.7C326.89 299.649 316.526 284.439 305.972 274.064L304.57 275.49ZM329.006 311.38L330.638 315.894L332.519 315.214L330.887 310.7L329.006 311.38ZM194.536 252.984C196.779 251.96 201.654 250.551 206.946 249.306C212.218 248.067 217.774 247.02 221.336 246.691L221.152 244.7C217.452 245.041 211.79 246.113 206.488 247.36C201.206 248.602 196.151 250.048 193.705 251.165L194.536 252.984ZM221.336 246.691C225.248 246.33 232.444 246.207 237.293 246.421L237.382 244.423C232.461 244.206 225.172 244.328 221.152 244.7L221.336 246.691ZM237.293 246.421C239.751 246.53 242.176 246.575 244.106 246.561C245.07 246.554 245.919 246.531 246.591 246.494C247.222 246.459 247.8 246.406 248.152 246.307L247.61 244.382C247.505 244.412 247.147 244.46 246.479 244.497C245.852 244.532 245.038 244.554 244.091 244.561C242.199 244.575 239.809 244.53 237.382 244.423L237.293 246.421ZM248.152 246.307C248.762 246.135 249.269 245.686 249.719 245.143C250.184 244.583 250.686 243.802 251.258 242.774C252.405 240.714 253.918 237.508 256.049 232.721L254.222 231.907C252.089 236.699 250.608 239.829 249.511 241.801C248.961 242.789 248.528 243.447 248.18 243.867C247.817 244.304 247.633 244.376 247.61 244.382L248.152 246.307ZM256.049 232.721C257.588 229.264 260.7 222.241 263.488 216.058C264.882 212.966 266.192 210.089 267.184 207.975C267.68 206.917 268.093 206.057 268.394 205.459C268.546 205.159 268.663 204.937 268.746 204.793C268.788 204.719 268.811 204.683 268.818 204.673C268.823 204.667 268.809 204.687 268.781 204.719C268.767 204.734 268.737 204.766 268.693 204.802C268.657 204.833 268.566 204.904 268.428 204.957L267.709 203.091C267.462 203.186 267.316 203.356 267.298 203.377C267.246 203.434 267.205 203.49 267.177 203.53C267.121 203.611 267.063 203.706 267.01 203.799C266.901 203.989 266.765 204.248 266.609 204.558C266.294 205.182 265.871 206.063 265.373 207.126C264.375 209.254 263.059 212.142 261.664 215.236C258.874 221.425 255.759 228.455 254.222 231.907L256.049 232.721ZM268.426 204.958C268.29 205.01 268.177 205.017 268.137 205.018C268.086 205.02 268.051 205.017 268.039 205.015C268.015 205.013 268.015 205.011 268.051 205.02C268.12 205.036 268.238 205.07 268.415 205.128C268.764 205.243 269.268 205.429 269.919 205.683C271.215 206.189 273.043 206.946 275.273 207.898C279.73 209.803 285.762 212.477 292.294 215.463L293.125 213.644C286.583 210.653 280.535 207.972 276.059 206.059C273.822 205.103 271.971 204.337 270.646 203.82C269.985 203.562 269.442 203.361 269.042 203.229C268.844 203.164 268.662 203.109 268.509 203.073C268.435 203.055 268.344 203.036 268.249 203.026C268.206 203.022 267.968 202.991 267.71 203.09L268.426 204.958ZM292.294 215.463L316.065 226.328L316.896 224.509L293.125 213.644L292.294 215.463ZM315.559 225.03L303.656 253.29L305.499 254.067L317.402 225.807L315.559 225.03ZM335.995 337.435C343.341 387.986 310.28 438.574 260.604 452.749L261.153 454.673C311.776 440.227 345.467 388.706 337.975 337.148L335.995 337.435ZM260.604 452.749L253.58 454.754L254.128 456.677L261.153 454.673L260.604 452.749ZM254.261 454.802L197.018 429.316L196.205 431.143L253.447 456.629L254.261 454.802ZM197.018 429.316L139.776 403.83L138.963 405.657L196.205 431.143L197.018 429.316ZM140.268 404.304L137.057 397.742L135.26 398.622L138.471 405.183L140.268 404.304ZM137.057 397.742C116.236 355.192 127.005 302.825 162.937 271.897L161.632 270.382C125.011 301.902 114.039 355.253 135.26 398.622L137.057 397.742ZM162.937 271.897C167.08 268.332 171.755 264.677 173.357 263.728L172.338 262.007C170.561 263.059 165.759 266.83 161.632 270.382L162.937 271.897ZM335.296 332.622L335.995 337.435L337.975 337.148L337.275 332.335L335.296 332.622ZM173.357 263.728C182.902 258.078 185.877 256.94 194.536 252.984L193.705 251.165C185.054 255.117 181.987 256.296 172.338 262.007L173.357 263.728ZM330.615 315.822L335.322 332.747L337.249 332.211L332.542 315.286L330.615 315.822Z" fill="#D5DCDF" mask="url(#path-3-inside-1_1836_57)"/>
<path fill-rule="evenodd" clip-rule="evenodd" d="M183.397 306.734L150.887 440.599L213.066 448.588L213.093 448.592L246.332 453.033L276.771 313.567C278.767 310.348 278.483 306.598 277.395 303.586C276.155 300.15 273.649 296.792 270.432 293.775C263.93 287.678 253.483 281.991 239.848 279.053C226.219 276.116 213.177 276.846 202.906 281.46C192.526 286.123 185.131 294.741 183.397 306.734ZM263.407 323.28C261.676 323.967 259.899 324.537 258.11 325.004C251.475 326.738 244.285 327.164 237.639 326.713C231.009 326.264 224.626 324.92 219.601 322.896C217.097 321.887 214.729 320.629 212.813 319.072C210.95 317.558 209.04 315.366 208.419 312.414C207.512 308.108 208.306 304.087 211.113 301.069C213.637 298.354 217.093 297.232 219.904 296.742C225.53 295.762 231.879 296.758 234.755 297.619C237.661 298.488 239.312 301.549 238.442 304.456C237.573 307.362 234.512 309.013 231.605 308.143C229.919 307.639 225.335 306.947 221.789 307.565C220.013 307.874 219.323 308.372 219.158 308.55L219.156 308.551C219.126 308.584 219.106 308.605 219.082 308.71C219.052 308.84 218.997 309.22 219.129 309.952C219.203 310.048 219.378 310.251 219.743 310.547C220.532 311.189 221.833 311.952 223.706 312.706C227.436 314.209 232.64 315.363 238.382 315.753C244.107 316.141 250.075 315.749 255.334 314.375C260.447 313.04 264.536 310.875 267.246 307.961C267.222 307.821 267.169 307.612 267.063 307.317C266.603 306.045 265.363 304.082 262.918 301.789C258.095 297.267 249.546 292.381 237.534 289.793C225.518 287.203 214.986 288.076 207.408 291.481C200.237 294.702 195.604 300.186 194.344 307.822C195.465 315.4 200.868 322.3 209.135 327.369C217.61 332.566 228.402 335.36 238.374 334.783L245.773 334.355L220.567 438.507L237.757 440.804L263.407 323.28ZM209.612 437.068L231.724 345.703C221.738 345.017 211.703 341.83 203.393 336.735C198.346 333.64 193.766 329.726 190.244 325.091L164.458 431.267L209.612 437.068ZM267.261 308.191C267.258 308.189 267.257 308.163 267.266 308.119C267.268 308.17 267.264 308.193 267.261 308.191Z" fill="#D5DCDF"/>
<path d="M102.216 365.466L102.217 365.466C102.701 365.27 103.276 365.13 103.808 365.065C104.355 365 104.789 365.023 105.019 365.098L105.02 365.098C105.68 365.315 106.588 365.504 107.122 365.522C107.13 365.527 107.139 365.533 107.149 365.54C107.219 365.589 107.32 365.674 107.45 365.799C107.709 366.048 108.046 366.419 108.438 366.89C109.22 367.828 110.196 369.131 111.173 370.568L111.173 370.568C116.081 377.788 123.244 384.287 129.635 387.282C137.238 390.844 147.573 390.844 155.176 387.282C161.535 384.302 168.536 377.964 173.103 371.085L173.103 371.085C174.528 368.938 175.799 367.382 176.992 366.388C178.179 365.399 179.249 364.998 180.296 365.076C181.355 365.156 182.494 365.735 183.796 366.934C185.096 368.13 186.514 369.903 188.128 372.283C192.765 379.12 197.573 383.375 204.888 387.111L205.115 386.666L204.888 387.111C207.093 388.237 208.652 388.903 210.53 389.274C212.394 389.641 214.549 389.711 217.935 389.692L217.932 389.192L217.935 389.692C223.761 389.657 226.874 389.168 230.039 387.735L229.833 387.279L230.039 387.735C236.553 384.784 243.178 379.001 247.682 372.361L247.268 372.081L247.682 372.361C249.309 369.961 250.737 368.171 252.044 366.961C253.354 365.749 254.497 365.162 255.559 365.077C256.607 364.993 257.678 365.392 258.865 366.38C260.059 367.374 261.332 368.933 262.76 371.085C267.328 377.964 274.328 384.302 280.687 387.282C288.305 390.851 298.624 390.845 306.26 387.267C312.519 384.335 320.491 377.107 324.666 370.6C327.07 366.854 329.359 365.117 331.429 365.033C333.468 364.949 335.584 366.469 337.664 370.016C340.631 375.08 345.209 379.765 350.308 383.325C355.403 386.883 361.057 389.345 366.19 389.918C370.355 390.382 373.099 391.866 374.249 393.682C374.816 394.578 375.009 395.569 374.796 396.611C374.582 397.663 373.945 398.803 372.791 399.957L373.145 400.31L372.791 399.957C372.166 400.582 371.583 401.039 370.938 401.358C370.296 401.675 369.568 401.868 368.642 401.932C366.761 402.062 364.118 401.663 359.813 400.75C350.907 398.863 344.93 395.437 337.758 388.083L331.35 381.512L330.957 381.109L330.603 381.546L326.588 386.502C321.892 392.297 313.593 397.908 306.631 399.998C302.954 401.101 297.78 401.598 292.633 401.498C287.484 401.399 282.427 400.704 278.979 399.466C271.663 396.837 264.455 391.726 260.083 386.081L256.422 381.355L256.061 380.888L255.66 381.321L249.814 387.636C232.264 406.592 203.59 406.582 186.027 387.613L180.203 381.321L179.802 380.888L179.441 381.355L175.78 386.081C171.408 391.726 164.2 396.837 156.884 399.466C153.437 400.704 148.379 401.399 143.231 401.498C138.083 401.598 132.909 401.101 129.232 399.998C122.255 397.904 114.008 392.32 109.218 386.44L109.218 386.44L105.114 381.403L104.747 380.952L104.356 381.383L98.6786 387.647L98.6785 387.647C91.7059 395.34 83.4859 399.711 72.9671 401.313L73.0424 401.808L72.9671 401.313C69.6178 401.824 67.8674 402.051 66.6599 401.954C65.5234 401.862 64.8764 401.484 63.7283 400.63L63.7283 400.63C62.3117 399.577 61.4818 398.44 61.1272 397.341C60.7751 396.25 60.8793 395.161 61.3932 394.159C62.4308 392.135 65.1955 390.39 69.4163 389.955C74.5981 389.42 80.301 386.974 85.4416 383.409C90.5854 379.842 95.2047 375.128 98.2042 370.01L98.2042 370.01C98.8278 368.946 99.6072 367.891 100.357 367.054C100.731 366.635 101.094 366.277 101.42 366C101.753 365.718 102.024 365.544 102.216 365.466Z" fill="#D5DCDF" stroke="#D5DCDF"/>
<path d="M175.454 365.466L175.455 365.466C175.939 365.27 176.514 365.13 177.046 365.065C177.594 365 178.027 365.023 178.257 365.098L178.258 365.098C178.918 365.315 179.827 365.504 180.36 365.522C180.368 365.527 180.377 365.533 180.387 365.54C180.457 365.589 180.558 365.674 180.688 365.799C180.947 366.048 181.284 366.419 181.676 366.89C182.458 367.828 183.434 369.131 184.411 370.568L184.411 370.568C189.319 377.788 196.482 384.287 202.873 387.282C210.476 390.844 220.811 390.844 228.414 387.282C234.773 384.302 241.774 377.964 246.341 371.085L246.341 371.085C247.766 368.938 249.037 367.382 250.23 366.388C251.417 365.399 252.487 364.998 253.534 365.076C254.593 365.156 255.732 365.735 257.034 366.934C258.334 368.13 259.752 369.903 261.366 372.283C266.003 379.12 270.811 383.375 278.126 387.111L278.353 386.666L278.126 387.111C280.331 388.237 281.89 388.903 283.768 389.274C285.632 389.641 287.787 389.711 291.173 389.692L291.17 389.192L291.173 389.692C296.999 389.657 300.112 389.168 303.277 387.735L303.071 387.279L303.277 387.735C309.791 384.784 316.416 379.001 320.92 372.361L320.506 372.081L320.92 372.361C322.548 369.961 323.975 368.171 325.282 366.961C326.592 365.749 327.735 365.162 328.797 365.077C329.845 364.993 330.916 365.392 332.103 366.38C333.298 367.374 334.57 368.933 335.998 371.085C340.566 377.964 347.566 384.302 353.925 387.282C361.543 390.851 371.862 390.845 379.498 387.267C385.757 384.335 393.729 377.107 397.904 370.6C400.308 366.854 402.597 365.117 404.667 365.033C406.706 364.949 408.822 366.469 410.902 370.016C413.869 375.08 418.447 379.765 423.546 383.325C428.641 386.883 434.295 389.345 439.428 389.918C443.593 390.382 446.337 391.866 447.487 393.682C448.055 394.578 448.247 395.569 448.034 396.611C447.82 397.663 447.183 398.803 446.029 399.957L446.383 400.31L446.029 399.957C445.404 400.582 444.821 401.039 444.176 401.358C443.534 401.675 442.806 401.868 441.88 401.932C439.999 402.062 437.356 401.663 433.051 400.75C424.145 398.863 418.168 395.437 410.996 388.083L404.588 381.512L404.195 381.109L403.841 381.546L399.826 386.502C395.13 392.297 386.831 397.908 379.869 399.998C376.192 401.101 371.018 401.598 365.871 401.498C360.722 401.399 355.665 400.704 352.217 399.466C344.901 396.837 337.693 391.726 333.321 386.081L329.66 381.355L329.299 380.888L328.898 381.321L323.052 387.636C305.502 406.592 276.828 406.582 259.265 387.613L253.441 381.321L253.04 380.888L252.679 381.355L249.018 386.081C244.646 391.726 237.438 396.837 230.122 399.466C226.675 400.704 221.617 401.399 216.469 401.498C211.322 401.598 206.147 401.101 202.47 399.998C195.493 397.904 187.246 392.32 182.456 386.44L182.456 386.44L178.352 381.403L177.985 380.952L177.594 381.383L171.917 387.647L171.917 387.647C164.944 395.34 156.724 399.711 146.205 401.313L146.28 401.808L146.205 401.313C142.856 401.824 141.105 402.051 139.898 401.954C138.761 401.862 138.114 401.484 136.966 400.63L136.966 400.63C135.55 399.577 134.72 398.44 134.365 397.341C134.013 396.25 134.117 395.161 134.631 394.159C135.669 392.135 138.434 390.39 142.654 389.955C147.836 389.42 153.539 386.974 158.68 383.409C163.823 379.842 168.443 375.128 171.442 370.01L171.442 370.01C172.066 368.946 172.845 367.891 173.595 367.054C173.97 366.635 174.332 366.277 174.658 366C174.991 365.718 175.262 365.544 175.454 365.466Z" fill="#D5DCDF" stroke="#D5DCDF"/>
</g>
<defs>
<linearGradient id="paint0_linear_1836_57" x1="-26.1569" y1="2.45193e-05" x2="575.158" y2="38.2988" gradientUnits="userSpaceOnUse">
<stop stop-color="#6B11DF"/>
<stop offset="1" stop-color="#8F46EC"/>
</linearGradient>
</defs>
</svg>
