<svg width="847" height="218" viewBox="0 0 847 218" fill="none" xmlns="http://www.w3.org/2000/svg">
<path d="M621.118 26C758.148 26.0001 776.037 93.9988 847 128.145V224.914H807.429H675.591H108.884C108.884 224.914 22.7007 257.224 164.855 199.988C310.779 174.574 491.685 25.9999 621.118 26Z" fill="url(#paint0_linear_0_1)"/>
<path d="M590 0C727.03 5.9476e-05 762.5 76 847 104V204L807.429 188.914H675.591L0.5 204C0.5 204 22.7007 221.224 164.855 163.988C352.5 139.5 460.567 -5.61785e-05 590 0Z" fill="url(#paint1_linear_0_1)" fill-opacity="0.6"/>
<defs>
<linearGradient id="paint0_linear_0_1" x1="658.565" y1="163.334" x2="847.628" y2="183.176" gradientUnits="userSpaceOnUse">
<stop offset="0.197365" stop-color="#CC9D3A"/>
<stop offset="1" stop-color="#E2BC6D"/>
</linearGradient>
<linearGradient id="paint1_linear_0_1" x1="658.565" y1="127.334" x2="847.628" y2="147.176" gradientUnits="userSpaceOnUse">
<stop offset="0.197365" stop-color="#CC9D3A"/>
<stop offset="1" stop-color="#E2BC6D"/>
</linearGradient>
</defs>
</svg>
