<svg width="1274" height="234" viewBox="0 0 1274 234" fill="none" xmlns="http://www.w3.org/2000/svg">
<path d="M933.994 26C1140.26 26.0001 1167.18 93.9988 1274 128.145V224.914H1214.44H1015.99H162.961C162.961 224.914 33.2354 257.224 247.211 199.988C466.861 174.574 739.167 25.9999 933.994 26Z" fill="url(#paint0_linear_1628_17)"/>
<path d="M887.21 0C1093.44 5.93517e-05 1146.83 75.8411 1274 103.783V203.574L1214.44 188.519H1016.03L0 203.574C0 203.574 33.4126 220.762 247.357 163.645C529.767 139.208 692.411 -5.6061e-05 887.21 0Z" fill="url(#paint1_linear_1628_17)" fill-opacity="0.6"/>
<defs>
<linearGradient id="paint0_linear_1628_17" x1="990.36" y1="163.334" x2="1271.07" y2="207.679" gradientUnits="userSpaceOnUse">
<stop offset="0.197365" stop-color="#CC9D3A"/>
<stop offset="1" stop-color="#E2BC6D"/>
</linearGradient>
<linearGradient id="paint1_linear_1628_17" x1="990.401" y1="127.068" x2="1271.05" y2="171.489" gradientUnits="userSpaceOnUse">
<stop offset="0.197365" stop-color="#CC9D3A"/>
<stop offset="1" stop-color="#E2BC6D"/>
</linearGradient>
</defs>
</svg>
