<svg width="50" height="50" viewBox="0 0 50 50" fill="none" xmlns="http://www.w3.org/2000/svg">
<rect width="50" height="50" rx="7" fill="#7246AB"/>
<path fill-rule="evenodd" clip-rule="evenodd" d="M21.0529 12.6131C20.3043 12.8813 19.7395 13.4254 19.4523 14.1552C19.3328 14.459 19.322 14.9881 19.3022 21.5305L19.2808 28.5785L18.4966 27.8057C17.4708 26.7949 17.0054 26.5546 16.0856 26.5614C15.2669 26.5674 14.7731 26.7587 14.195 27.2939C13.6337 27.8136 13.3926 28.3128 13.3413 29.0615C13.2984 29.6881 13.4305 30.2695 13.7334 30.7864C13.9632 31.1784 17.736 34.9286 18.4131 35.438C19.3902 36.173 20.3571 36.67 21.5587 37.055C22.8697 37.4749 23.1883 37.5003 27.1402 37.5C30.4854 37.4997 30.7831 37.4895 31.3452 37.3547C33.8304 36.7589 35.8403 34.6033 36.2271 32.1189C36.2892 31.7205 36.306 29.3774 36.2898 23.428L36.2675 15.2825L36.0997 14.9453C35.8427 14.4286 35.4878 14.0606 34.9821 13.7865C34.5492 13.5518 34.4812 13.5371 33.8311 13.5382C33.2465 13.5391 33.0843 13.5667 32.7766 13.7177C32.3113 13.9459 31.8015 14.4549 31.5735 14.9189C31.3964 15.2791 31.3945 15.3042 31.3737 17.633C31.3621 18.9258 31.3294 19.9716 31.3009 19.9568C30.5535 19.5696 30.3583 19.5103 29.8317 19.5108C29.1661 19.5114 28.5432 19.7603 28.1185 20.1952L27.8424 20.4779L27.5222 20.1828C27.0242 19.7237 26.4875 19.5103 25.8311 19.5103C25.2996 19.5103 25.1482 19.5563 24.3584 19.9578C24.3284 19.9731 24.3038 18.7568 24.3038 17.2549C24.3038 14.6365 24.2974 14.5071 24.147 14.1053C23.9508 13.5808 23.4046 12.9877 22.8825 12.7323C22.3585 12.4759 21.5779 12.4251 21.0529 12.6131ZM22.3961 13.6133C22.7179 13.7477 22.9651 13.9673 23.1289 14.2643C23.2373 14.4608 23.2529 15.079 23.2857 20.4825L23.322 26.4825L23.4892 26.8962C23.6977 27.4121 24.2122 27.9638 24.7402 28.2374C25.0928 28.4202 25.2178 28.4449 25.7948 28.4455C26.3511 28.4461 26.5093 28.4177 26.8493 28.2559C27.0693 28.1513 27.3769 27.9353 27.533 27.776L27.8166 27.4862L28.1041 27.7737C28.2621 27.9317 28.5763 28.1477 28.8022 28.2536C29.1455 28.4145 29.3144 28.4462 29.8311 28.4462C30.3479 28.4462 30.5167 28.4145 30.8601 28.2536C31.3605 28.019 31.7948 27.5977 32.065 27.085L32.2675 26.7007L32.3039 21.1371C32.3365 16.1374 32.3524 15.5512 32.4607 15.3537C32.6307 15.0439 32.9544 14.7338 33.2288 14.6178C33.5283 14.4912 34.1322 14.4907 34.4335 14.6168C34.8139 14.7761 35.1871 15.2485 35.2839 15.6933C35.3463 15.9804 35.3615 18.153 35.3418 23.9734C35.3116 32.8553 35.3519 32.2198 34.7411 33.4644C34.2 34.567 33.3683 35.4 32.2675 35.942C31.0847 36.5242 31.1321 36.5189 27.1402 36.5189C24.5864 36.5189 23.478 36.4933 23.124 36.4262C21.5505 36.1279 20.2331 35.5505 18.9584 34.6005C18.2085 34.0416 14.7884 30.6022 14.5823 30.1998C14.2299 29.5115 14.2851 28.6863 14.7184 28.1605C15.1944 27.5832 16.1147 27.3667 16.7766 27.6764C16.9406 27.7531 17.6294 28.355 18.356 29.0566C19.1022 29.777 19.7027 30.3007 19.7826 30.3007C19.8584 30.3007 20.0068 30.2329 20.1122 30.1499L20.3038 29.9993L20.3043 22.4227C20.3045 17.3601 20.3299 14.755 20.3809 14.5714C20.4743 14.2351 20.8185 13.8309 21.1693 13.6455C21.4903 13.4758 22.033 13.4615 22.3961 13.6133ZM26.5318 20.6775C26.8822 20.8585 27.2105 21.3134 27.2908 21.7293C27.3781 22.1811 27.3729 25.7683 27.2842 26.2355C27.1982 26.6888 26.9313 27.0595 26.5151 27.3036C26.1252 27.5323 25.3894 27.5064 25.0166 27.2509C24.7174 27.0459 24.4728 26.7089 24.3746 26.3665C24.2718 26.0079 24.2836 22.0091 24.3888 21.5915C24.4894 21.1916 24.965 20.6739 25.3348 20.5614C25.6784 20.4571 26.2036 20.508 26.5318 20.6775ZM30.2748 20.5653C30.6487 20.6905 30.9778 20.9657 31.159 21.3049C31.3151 21.5972 31.3228 21.6974 31.3458 23.7342C31.3737 26.191 31.3316 26.5325 30.95 26.9549C30.586 27.3579 30.2688 27.486 29.7212 27.4511C29.0468 27.4082 28.5612 27.0171 28.3746 26.3665C28.2718 26.0079 28.2836 22.0091 28.3888 21.5915C28.4471 21.3598 28.5706 21.1574 28.7833 20.9446C29.2112 20.5168 29.7334 20.384 30.2748 20.5653Z" fill="#D5DCDF"/>
</svg>
