<svg width="50" height="50" viewBox="0 0 50 50" fill="none" xmlns="http://www.w3.org/2000/svg">
<rect width="50" height="50" rx="7" fill="#CC9D3A"/>
<path fill-rule="evenodd" clip-rule="evenodd" d="M18.1685 12.5554C17.9362 12.6584 17.7356 12.8407 17.6283 13.0464C17.5316 13.2318 17.5172 13.9415 17.5167 18.4982C17.5163 23.4333 17.524 23.7512 17.6492 23.9847C17.7223 24.121 17.8937 24.2924 18.03 24.3655C18.2655 24.4918 18.6606 24.4984 26.0261 24.4981C33.5779 24.4979 33.7803 24.4942 34.0069 24.3561C34.5343 24.0345 34.5019 24.4195 34.5019 18.4874C34.5019 13.2147 34.5003 13.159 34.3512 12.9557C34.2684 12.8427 34.0883 12.6931 33.9511 12.6232C33.7181 12.5043 33.1941 12.4963 25.9909 12.501C21.7499 12.5037 18.2299 12.5282 18.1685 12.5554ZM33.5198 18.4971V23.48H26.0273H18.5347V18.4971V13.5141H26.0273H33.5198V18.4971ZM23.1118 14.698C22.304 15.2423 22.3426 16.3931 23.1835 16.8367C23.5011 17.0042 23.5275 17.0058 25.9841 17.0042C28.241 17.0028 28.4909 16.9905 28.7609 16.8679C29.4823 16.5403 29.7155 15.7104 29.2737 15.0429C28.9397 14.5381 28.9038 14.5325 25.9725 14.5325C23.3728 14.5325 23.3558 14.5335 23.1118 14.698ZM28.4497 15.632C28.4903 15.6966 28.5031 15.8029 28.4781 15.8684C28.437 15.9753 28.1872 15.9874 26.0321 15.9874C23.735 15.9874 23.6286 15.9814 23.5567 15.8469C23.4999 15.7408 23.5096 15.6785 23.5967 15.5914C23.6978 15.4903 23.9967 15.4786 26.0438 15.4954C28.0973 15.5123 28.3844 15.5286 28.4497 15.632ZM17.7709 26.6736C17.4908 26.7495 16.9319 26.9432 16.5288 27.1042C15.4524 27.534 12.787 28.7686 12.6313 28.9095C12.4656 29.0594 12.4543 29.4646 12.6113 29.6216C12.804 29.8143 13.0681 29.7535 14.056 29.2887C15.4413 28.6371 17.2476 27.8665 17.8 27.6916C18.1716 27.5739 18.4774 27.5387 19.153 27.5356C20.7424 27.5284 21.2794 27.7344 22.3173 28.7494C22.6974 29.121 23.1066 29.4751 23.2266 29.5362C23.9961 29.9282 26.0932 30.4086 27.5702 30.5314C28.4485 30.6044 28.8002 30.717 28.9348 30.9685C29.0537 31.1906 29.0223 31.5206 28.869 31.6592C28.5472 31.9505 28.2573 31.9845 26.0636 31.9875C23.8802 31.9904 23.3438 31.9432 22.0677 31.6349C21.4451 31.4844 21.219 31.5143 21.0851 31.7644C20.9702 31.9792 20.9914 32.1926 21.1426 32.3438C21.2987 32.4999 22.2546 32.7469 23.2994 32.9011C24.3499 33.0562 27.9386 33.053 28.5394 32.8965C29.0517 32.7631 28.7695 32.9372 31.7989 30.8855C34.3845 29.1344 34.6969 28.9478 35.3705 28.752C35.7119 28.6528 35.8494 28.644 36.0638 28.7083C36.3769 28.8021 36.5427 29.056 36.4728 29.3345C36.3626 29.7732 35.8011 30.2039 32.3196 32.5196C28.3519 35.1585 26.7537 36.1691 26.2381 36.365C25.7783 36.5397 25.1434 36.5389 24.5776 36.3628C24.3334 36.2868 22.9909 35.6336 21.5945 34.9113C20.198 34.189 18.8873 33.5431 18.6818 33.4759C18.2357 33.3299 17.5908 33.3661 17.2189 33.5579C16.6245 33.8645 15.263 34.8026 15.1946 34.9528C15.0596 35.249 15.3031 35.6281 15.6283 35.6281C15.7484 35.6281 16.0827 35.4604 16.4718 35.2052C16.8262 34.9726 17.2732 34.6903 17.4651 34.5779C18.0595 34.23 18.1537 34.2611 21.0443 35.7596C22.4446 36.4855 23.8359 37.1631 24.1359 37.2652C25.197 37.6266 26.0959 37.5726 27.0401 37.0907C28.0756 36.5621 36.0674 31.2985 36.6869 30.737C37.0709 30.389 37.3973 29.8654 37.483 29.4599C37.555 29.1192 37.4021 28.5651 37.1525 28.2621C36.6762 27.6844 35.8326 27.5406 34.8838 27.8754L34.3927 28.0488V27.8837C34.3927 27.6562 34.1426 27.3592 33.8068 27.1878C33.4178 26.9894 32.6753 26.9952 32.0647 27.2014C31.6805 27.3312 31.5939 27.3406 31.5661 27.2559C31.4938 27.0362 31.0593 26.6897 30.7512 26.606C30.3369 26.4937 29.5955 26.5542 29.0537 26.7446C28.823 26.8257 28.0722 27.2418 27.3853 27.6694C26.6984 28.097 25.8976 28.5952 25.6056 28.7766L25.0749 29.1065L24.4054 28.895C23.7537 28.6892 23.7164 28.665 23.0084 27.9909C21.8446 26.8827 21.1358 26.6042 19.3712 26.5618C18.4692 26.5401 18.1918 26.5596 17.7709 26.6736ZM30.5678 27.5978C30.8491 27.7057 30.6491 27.9099 29.4857 28.7023L28.2885 29.5177L27.7217 29.5123C27.4099 29.5093 27.0075 29.484 26.8274 29.456L26.5001 29.4051L26.9002 29.1474C28.1239 28.3591 29.0927 27.8047 29.4462 27.6906C29.8524 27.5594 30.3588 27.5175 30.5678 27.5978ZM33.4037 28.0851C33.4836 28.1435 33.524 28.2486 33.5085 28.3579C33.4886 28.4991 33.1245 28.7769 31.7376 29.7089L29.9918 30.8822L29.8562 30.6182C29.7818 30.473 29.6441 30.2722 29.5504 30.1718L29.38 29.9894L30.4824 29.2261C31.7703 28.3345 31.9351 28.2402 32.4459 28.1027C32.9353 27.9709 33.24 27.9653 33.4037 28.0851Z" fill="#D5DCDF" stroke="#D5DCDF" stroke-width="0.4"/>
</svg>
