<svg width="50" height="50" viewBox="0 0 50 50" fill="none" xmlns="http://www.w3.org/2000/svg">
<rect width="50" height="50" rx="7" fill="#3784BE"/>
<path fill-rule="evenodd" clip-rule="evenodd" d="M23.2631 10.9413C19.9696 11.4795 17.3885 12.7924 15.077 15.105C12.9606 17.2225 11.6892 19.5728 11.0434 22.5612C10.8634 23.3938 10.8334 23.8051 10.8334 25.4307C10.8334 27.0563 10.8634 27.4676 11.0434 28.3002C11.6892 31.2886 12.9606 33.6389 15.077 35.7564C17.1858 37.8662 19.5654 39.1547 22.5297 39.7914C23.3589 39.9695 23.7787 40 25.3978 40C27.0183 40 27.4358 39.9697 28.2659 39.791C31.2462 39.1496 33.6013 37.8747 35.7185 35.7564C38.4187 33.0549 39.8403 29.8128 39.9873 26.0209C40.1207 22.5788 39.2088 19.5861 37.1495 16.7076C36.9214 16.3888 36.2553 15.647 35.6691 15.0592C33.6147 12.9986 31.2181 11.7031 28.3121 11.0819C27.1046 10.8238 24.4366 10.7495 23.2631 10.9413ZM24.7501 18.4421V24.7828H22.5314H20.3127L20.2738 24.5745C20.2524 24.4599 20.1858 24.033 20.1259 23.6257C19.9119 22.1713 19.2137 20.483 18.2778 19.1564C17.7424 18.3977 16.6708 17.2891 16.0221 16.8232C15.7848 16.6527 15.5907 16.4628 15.5907 16.4013C15.5907 16.1481 17.5636 14.5421 18.6916 13.8772C20.2994 12.9294 22.8154 12.138 24.3107 12.1098L24.7501 12.1015V18.4421ZM27.6251 12.2477C29.3615 12.5388 31.3704 13.3449 32.8395 14.3398C33.5791 14.8408 34.9088 15.9676 35.094 16.2503C35.2307 16.459 35.2284 16.4833 35.0608 16.6037C34.0297 17.3449 33.0141 18.4045 32.2499 19.5364C31.5128 20.6281 30.7605 22.6131 30.6296 23.8118C30.5963 24.1168 30.5497 24.4599 30.5259 24.5745L30.4828 24.7828H28.2641H26.0454V18.4421V12.1015H26.3992C26.5938 12.1015 27.1453 12.1673 27.6251 12.2477ZM15.2971 17.8785C17.303 19.4387 18.6525 21.7971 18.9696 24.2968L19.0313 24.7828H15.5532H12.075V24.4288C12.075 23.3529 12.6343 21.2137 13.283 19.8082C13.6243 19.0688 14.6046 17.4702 14.7168 17.4702C14.7472 17.4702 15.0083 17.6539 15.2971 17.8785ZM36.6473 18.2577C37.2901 19.2445 37.7931 20.3276 38.1564 21.5072C38.4588 22.4889 38.7205 23.8425 38.7205 24.4246V24.7828H35.2424H31.7642L31.8259 24.2968C32.0795 22.298 32.9673 20.4088 34.3395 18.9477C34.8669 18.3862 35.9558 17.4702 36.0959 17.4702C36.1169 17.4702 36.3651 17.8246 36.6473 18.2577ZM18.9696 26.5646C18.7125 28.5911 17.7688 30.5565 16.3434 32.0341C15.8499 32.5458 14.8364 33.3912 14.7168 33.3912C14.6046 33.3912 13.6243 31.7927 13.283 31.0532C12.6343 29.6478 12.075 27.5085 12.075 26.4326V26.0787H15.5532H19.0313L18.9696 26.5646ZM24.7501 32.4321V38.7855L24.0331 38.7224C21.3852 38.4894 18.6464 37.2693 16.456 35.3468C15.6154 34.609 15.4986 34.4276 15.7476 34.247C18.0739 32.5603 19.7335 29.9027 20.1259 27.2357C20.1858 26.8284 20.2524 26.4015 20.2738 26.2869L20.3127 26.0787H22.5314H24.7501V32.4321ZM30.5217 26.2869C30.5431 26.4015 30.6097 26.8284 30.6696 27.2357C31.0618 29.9014 32.7438 32.5931 35.0546 34.2531C35.3061 34.4338 35.1709 34.6277 34.2307 35.4355C31.9992 37.3528 29.4417 38.4775 26.7608 38.7206L26.0454 38.7855V32.4321V26.0787H28.2641H30.4828L30.5217 26.2869ZM38.6812 26.7945C38.501 28.7847 37.7629 30.8914 36.6442 32.6083L36.128 33.4006L35.8386 33.2339C35.3777 32.9685 34.1375 31.7627 33.6347 31.0912C32.7403 29.8967 32.0199 28.094 31.8259 26.5646L31.7642 26.0787H35.2551H38.7461L38.6812 26.7945Z" fill="#D5DCDF" stroke="#D5DCDF"/>
</svg>
