<svg width="330" height="73" viewBox="0 0 330 73" fill="none" xmlns="http://www.w3.org/2000/svg">
<path d="M4.86681 72.628C3.49412 72.628 2.33981 72.1631 1.40389 71.2331C0.467963 70.3032 0 69.1563 0 67.7924V4.83567C0 3.40977 0.467963 2.26284 1.40389 1.3949C2.33981 0.464968 3.49412 0 4.86681 0H27.2354C31.4783 0 35.1908 0.836942 38.373 2.51083C41.6175 4.12272 44.1445 6.38556 45.9539 9.29936C47.8258 12.2132 48.7617 15.5609 48.7617 19.3427C48.7617 22.3805 47.9194 25.1393 46.2347 27.6191C44.6125 30.0369 42.3662 31.9588 39.4961 33.3847C43.6141 34.3766 46.9211 36.3295 49.4169 39.2433C51.9127 42.1571 53.1606 45.9699 53.1606 50.6815C53.1606 54.9592 52.131 58.741 50.072 62.0268C48.0754 65.3125 45.2676 67.9164 41.6487 69.8382C38.0298 71.6981 33.8805 72.628 29.2009 72.628H4.86681ZM9.73363 63.7006H29.2009C32.071 63.7006 34.598 63.2047 36.7819 62.2127C38.9657 61.2208 40.6816 59.7639 41.9295 57.842C43.1774 55.9202 43.8013 53.5333 43.8013 50.6815C43.8013 48.0157 43.1774 45.8149 41.9295 44.079C40.6816 42.3431 38.9657 41.0412 36.7819 40.1733C34.598 39.2433 32.071 38.7783 29.2009 38.7783H9.73363V63.7006ZM9.73363 29.851H27.2354C30.7919 29.851 33.6933 28.983 35.9395 27.2471C38.2482 25.5112 39.4025 22.8764 39.4025 19.3427C39.4025 15.8089 38.2482 13.2051 35.9395 11.5312C33.6933 9.79533 30.7919 8.92738 27.2354 8.92738H9.73363V29.851Z" fill="#D5DCDF"/>
<path d="M89.9103 73C84.8563 73 80.395 71.9151 76.5265 69.7452C72.658 67.5134 69.6007 64.4756 67.3545 60.6318C65.1706 56.7261 64.0787 52.2624 64.0787 47.2408C64.0787 42.1571 65.1706 37.6934 67.3545 33.8497C69.6007 29.9439 72.658 26.9062 76.5265 24.7363C80.395 22.5045 84.8563 21.3885 89.9103 21.3885C94.9019 21.3885 99.3319 22.5045 103.2 24.7363C107.069 26.9062 110.095 29.9439 112.279 33.8497C114.525 37.6934 115.648 42.1571 115.648 47.2408C115.648 52.2624 114.556 56.7261 112.372 60.6318C110.189 64.4756 107.163 67.5134 103.294 69.7452C99.4255 71.9151 94.9643 73 89.9103 73ZM89.9103 64.6306C93.1548 64.6306 96.025 63.8866 98.5208 62.3987C101.017 60.9108 102.951 58.865 104.324 56.2611C105.759 53.6573 106.476 50.6505 106.476 47.2408C106.476 43.831 105.759 40.8242 104.324 38.2204C102.951 35.5546 101.017 33.4777 98.5208 31.9898C96.025 30.5019 93.1548 29.758 89.9103 29.758C86.6657 29.758 83.7956 30.5019 81.2998 31.9898C78.804 33.4777 76.8385 35.5546 75.4034 38.2204C73.9683 40.8242 73.2508 43.831 73.2508 47.2408C73.2508 50.6505 73.9683 53.6573 75.4034 56.2611C76.8385 58.865 78.804 60.9108 81.2998 62.3987C83.7956 63.8866 86.6657 64.6306 89.9103 64.6306Z" fill="#D5DCDF"/>
<path d="M153.067 73C148.013 73 143.552 71.9151 139.683 69.7452C135.815 67.5134 132.757 64.4756 130.511 60.6318C128.327 56.7261 127.235 52.2624 127.235 47.2408C127.235 42.1571 128.327 37.6934 130.511 33.8497C132.757 29.9439 135.815 26.9062 139.683 24.7363C143.552 22.5045 148.013 21.3885 153.067 21.3885C158.059 21.3885 162.489 22.5045 166.357 24.7363C170.226 26.9062 173.252 29.9439 175.436 33.8497C177.682 37.6934 178.805 42.1571 178.805 47.2408C178.805 52.2624 177.713 56.7261 175.529 60.6318C173.345 64.4756 170.319 67.5134 166.451 69.7452C162.582 71.9151 158.121 73 153.067 73ZM153.067 64.6306C156.312 64.6306 159.182 63.8866 161.677 62.3987C164.173 60.9108 166.108 58.865 167.48 56.2611C168.915 53.6573 169.633 50.6505 169.633 47.2408C169.633 43.831 168.915 40.8242 167.48 38.2204C166.108 35.5546 164.173 33.4777 161.677 31.9898C159.182 30.5019 156.312 29.758 153.067 29.758C149.822 29.758 146.952 30.5019 144.456 31.9898C141.961 33.4777 139.995 35.5546 138.56 38.2204C137.125 40.8242 136.407 43.831 136.407 47.2408C136.407 50.6505 137.125 53.6573 138.56 56.2611C139.995 58.865 141.961 60.9108 144.456 62.3987C146.952 63.8866 149.822 64.6306 153.067 64.6306Z" fill="#D5DCDF"/>
<path d="M218.751 73C213.884 73 209.516 71.8841 205.648 69.6522C201.779 67.3584 198.722 64.2586 196.476 60.3529C194.229 56.4471 193.075 52.0454 193.013 47.1478V4.74267C193.013 3.31677 193.449 2.16985 194.323 1.30191C195.259 0.433969 196.413 0 197.786 0C199.221 0 200.375 0.433969 201.249 1.30191C202.122 2.16985 202.559 3.31677 202.559 4.74267V29.851C204.743 27.2471 207.364 25.2013 210.421 23.7134C213.541 22.1635 216.941 21.3885 220.622 21.3885C225.177 21.3885 229.264 22.5355 232.883 24.8293C236.502 27.0611 239.341 30.1299 241.4 34.0357C243.521 37.8794 244.582 42.2501 244.582 47.1478C244.582 52.0454 243.428 56.4471 241.119 60.3529C238.873 64.2586 235.816 67.3584 231.947 69.6522C228.079 71.8841 223.68 73 218.751 73ZM218.751 64.6306C221.933 64.6306 224.772 63.8866 227.268 62.3987C229.763 60.8488 231.729 58.741 233.164 56.0752C234.661 53.4093 235.41 50.4335 235.41 47.1478C235.41 43.8 234.661 40.8242 233.164 38.2204C231.729 35.6166 229.763 33.5707 227.268 32.0828C224.772 30.5329 221.933 29.758 218.751 29.758C215.631 29.758 212.792 30.5329 210.234 32.0828C207.738 33.5707 205.772 35.6166 204.337 38.2204C202.902 40.8242 202.185 43.8 202.185 47.1478C202.185 50.4335 202.902 53.4093 204.337 56.0752C205.772 58.741 207.738 60.8488 210.234 62.3987C212.792 63.8866 215.631 64.6306 218.751 64.6306Z" fill="#D5DCDF"/>
<path d="M270.987 72.628C268.242 72.628 265.808 71.8841 263.687 70.3962C261.565 68.9083 259.912 66.8934 258.726 64.3516C257.541 61.7478 256.948 58.772 256.948 55.4242V4.64968C256.948 3.28577 257.385 2.16985 258.258 1.30191C259.132 0.433969 260.255 0 261.628 0C263 0 264.124 0.433969 264.997 1.30191C265.871 2.16985 266.307 3.28577 266.307 4.64968V55.4242C266.307 57.718 266.744 59.6089 267.618 61.0968C268.491 62.5847 269.614 63.3287 270.987 63.3287H273.327C274.575 63.3287 275.573 63.7626 276.322 64.6306C277.133 65.4985 277.538 66.6144 277.538 67.9783C277.538 69.3423 276.946 70.4582 275.76 71.3261C274.575 72.1941 273.046 72.628 271.174 72.628H270.987Z" fill="#D5DCDF"/>
<path d="M308.099 73C302.921 73 298.303 71.9151 294.248 69.7452C290.254 67.5134 287.103 64.4756 284.795 60.6318C282.549 56.7261 281.425 52.2624 281.425 47.2408C281.425 42.1571 282.486 37.6934 284.608 33.8497C286.791 29.9439 289.786 26.9062 293.592 24.7363C297.399 22.5045 301.766 21.3885 306.695 21.3885C311.562 21.3885 315.743 22.4735 319.237 24.6433C322.731 26.7512 325.383 29.696 327.192 33.4777C329.064 37.1975 330 41.5062 330 46.4038C330 47.5817 329.594 48.5737 328.783 49.3796C327.972 50.1236 326.943 50.4955 325.695 50.4955H287.977V43.056H325.414L321.577 45.6599C321.514 42.5601 320.89 39.8013 319.705 37.3834C318.519 34.9036 316.835 32.9507 314.651 31.5248C312.467 30.0989 309.815 29.386 306.695 29.386C303.139 29.386 300.082 30.1609 297.523 31.7108C295.028 33.2607 293.125 35.3996 291.814 38.1274C290.504 40.7932 289.849 43.831 289.849 47.2408C289.849 50.6505 290.629 53.6883 292.189 56.3541C293.749 59.02 295.901 61.1278 298.647 62.6777C301.392 64.2276 304.543 65.0025 308.099 65.0025C310.034 65.0025 311.999 64.6616 313.996 63.9796C316.055 63.2357 317.708 62.3987 318.956 61.4688C319.892 60.7868 320.89 60.4459 321.951 60.4459C323.074 60.3839 324.041 60.6938 324.852 61.3758C325.913 62.3057 326.475 63.3287 326.537 64.4446C326.599 65.5605 326.1 66.5214 325.04 67.3274C322.918 69.0013 320.266 70.3652 317.084 71.4191C313.964 72.473 310.97 73 308.099 73Z" fill="#D5DCDF"/>
</svg>
