<svg width="8" height="8" viewBox="0 0 8 8" fill="none" xmlns="http://www.w3.org/2000/svg">
<path fill-rule="evenodd" clip-rule="evenodd" d="M0.215217 0.219998L0.00139811 0.439947L1.75973 2.21599L3.5181 3.99199L1.75905 5.76872L0 7.54545L0.2251 7.7727L0.450152 8L2.22299 6.2372L3.99588 4.47444L5.73415 6.22921C6.69019 7.19435 7.49493 7.98398 7.52242 7.98398C7.5499 7.98398 7.66859 7.88501 7.78618 7.76399L8 7.54404L6.24167 5.76799L4.4833 3.99199L6.24167 2.21599L8 0.439947L7.78618 0.219998C7.66859 0.0989721 7.5499 0 7.52242 0C7.49493 0 6.69019 0.789635 5.73415 1.75477L3.99588 3.50954L2.23104 1.75477C1.26045 0.789635 0.457866 0 0.447645 0C0.437376 0 0.332805 0.0989721 0.215217 0.219998Z" fill="#D5DCDF"/>
</svg>
