<svg width="62" height="62" viewBox="0 0 62 62" fill="none" xmlns="http://www.w3.org/2000/svg">
<g filter="url(#filter0_d_1162_668)">
<rect x="6" y="2" width="50" height="50" rx="7" fill="#CC9D3A"/>
<path fill-rule="evenodd" clip-rule="evenodd" d="M24.1685 14.5554C23.9362 14.6584 23.7356 14.8407 23.6283 15.0464C23.5316 15.2318 23.5172 15.9415 23.5167 20.4982C23.5163 25.4333 23.524 25.7512 23.6492 25.9847C23.7223 26.121 23.8937 26.2924 24.03 26.3655C24.2655 26.4918 24.6606 26.4984 32.0261 26.4981C39.5779 26.4979 39.7803 26.4942 40.0069 26.3561C40.5343 26.0345 40.5019 26.4195 40.5019 20.4874C40.5019 15.2147 40.5003 15.159 40.3512 14.9557C40.2684 14.8427 40.0883 14.6931 39.9511 14.6232C39.7181 14.5043 39.1941 14.4963 31.9909 14.501C27.7499 14.5037 24.2299 14.5282 24.1685 14.5554ZM39.5198 20.4971V25.48H32.0273H24.5347V20.4971V15.5141H32.0273H39.5198V20.4971ZM29.1118 16.698C28.304 17.2423 28.3426 18.3931 29.1835 18.8367C29.5011 19.0042 29.5275 19.0058 31.9841 19.0042C34.241 19.0028 34.4909 18.9905 34.7609 18.8679C35.4823 18.5403 35.7155 17.7104 35.2737 17.0429C34.9397 16.5381 34.9038 16.5325 31.9725 16.5325C29.3728 16.5325 29.3558 16.5335 29.1118 16.698ZM34.4497 17.632C34.4903 17.6966 34.5031 17.8029 34.4781 17.8684C34.437 17.9753 34.1872 17.9874 32.0321 17.9874C29.735 17.9874 29.6286 17.9814 29.5567 17.8469C29.4999 17.7408 29.5096 17.6785 29.5967 17.5914C29.6978 17.4903 29.9967 17.4786 32.0438 17.4954C34.0973 17.5123 34.3844 17.5286 34.4497 17.632ZM23.7709 28.6736C23.4908 28.7495 22.9319 28.9432 22.5288 29.1042C21.4524 29.534 18.787 30.7686 18.6313 30.9095C18.4656 31.0594 18.4543 31.4646 18.6113 31.6216C18.804 31.8143 19.0681 31.7535 20.056 31.2887C21.4413 30.6371 23.2476 29.8665 23.8 29.6916C24.1716 29.5739 24.4774 29.5387 25.153 29.5356C26.7424 29.5284 27.2794 29.7344 28.3173 30.7494C28.6974 31.121 29.1066 31.4751 29.2266 31.5362C29.9961 31.9282 32.0932 32.4086 33.5702 32.5314C34.4485 32.6044 34.8002 32.717 34.9348 32.9685C35.0537 33.1906 35.0223 33.5206 34.869 33.6592C34.5472 33.9505 34.2573 33.9845 32.0636 33.9875C29.8802 33.9904 29.3437 33.9432 28.0677 33.6349C27.4451 33.4844 27.219 33.5143 27.0851 33.7644C26.9702 33.9792 26.9914 34.1926 27.1426 34.3438C27.2987 34.4999 28.2546 34.7469 29.2994 34.9011C30.3499 35.0562 33.9386 35.053 34.5394 34.8965C35.0517 34.7631 34.7695 34.9372 37.7989 32.8855C40.3845 31.1344 40.6969 30.9478 41.3705 30.752C41.7119 30.6528 41.8494 30.644 42.0638 30.7083C42.3769 30.8021 42.5427 31.056 42.4728 31.3345C42.3626 31.7732 41.8011 32.2039 38.3196 34.5196C34.3519 37.1585 32.7537 38.1691 32.2381 38.365C31.7783 38.5397 31.1434 38.5389 30.5776 38.3628C30.3334 38.2868 28.9909 37.6336 27.5945 36.9113C26.198 36.189 24.8873 35.5431 24.6818 35.4759C24.2357 35.3299 23.5908 35.3661 23.2189 35.5579C22.6245 35.8645 21.263 36.8026 21.1946 36.9528C21.0596 37.249 21.3031 37.6281 21.6283 37.6281C21.7484 37.6281 22.0827 37.4604 22.4718 37.2052C22.8262 36.9726 23.2732 36.6903 23.4651 36.5779C24.0595 36.23 24.1537 36.2611 27.0443 37.7596C28.4446 38.4855 29.8359 39.1631 30.1359 39.2652C31.197 39.6266 32.0959 39.5726 33.0401 39.0907C34.0756 38.5621 42.0674 33.2985 42.6869 32.737C43.0709 32.389 43.3973 31.8654 43.483 31.4599C43.555 31.1192 43.4021 30.5651 43.1525 30.2621C42.6762 29.6844 41.8326 29.5406 40.8838 29.8754L40.3927 30.0488V29.8837C40.3927 29.6562 40.1426 29.3592 39.8068 29.1878C39.4178 28.9894 38.6753 28.9952 38.0647 29.2014C37.6805 29.3312 37.5939 29.3406 37.5661 29.2559C37.4938 29.0362 37.0593 28.6897 36.7512 28.606C36.3369 28.4937 35.5955 28.5542 35.0537 28.7446C34.823 28.8257 34.0722 29.2418 33.3853 29.6694C32.6984 30.097 31.8976 30.5952 31.6056 30.7766L31.0749 31.1065L30.4054 30.895C29.7537 30.6892 29.7164 30.665 29.0084 29.9909C27.8446 28.8827 27.1358 28.6042 25.3712 28.5618C24.4692 28.5401 24.1918 28.5596 23.7709 28.6736ZM36.5678 29.5978C36.8491 29.7057 36.6491 29.9099 35.4857 30.7023L34.2885 31.5177L33.7217 31.5123C33.4099 31.5093 33.0075 31.484 32.8274 31.456L32.5001 31.4051L32.9002 31.1474C34.1239 30.3591 35.0927 29.8047 35.4462 29.6906C35.8524 29.5594 36.3588 29.5175 36.5678 29.5978ZM39.4037 30.0851C39.4836 30.1435 39.524 30.2486 39.5085 30.3579C39.4886 30.4991 39.1245 30.7769 37.7376 31.7089L35.9918 32.8822L35.8562 32.6182C35.7818 32.473 35.6441 32.2722 35.5504 32.1718L35.38 31.9894L36.4824 31.2261C37.7703 30.3345 37.9351 30.2402 38.4459 30.1027C38.9353 29.9709 39.24 29.9653 39.4037 30.0851Z" fill="#D5DCDF" stroke="#D5DCDF" stroke-width="0.4"/>
</g>
<defs>
<filter id="filter0_d_1162_668" x="0" y="0" width="62" height="62" filterUnits="userSpaceOnUse" color-interpolation-filters="sRGB">
<feFlood flood-opacity="0" result="BackgroundImageFix"/>
<feColorMatrix in="SourceAlpha" type="matrix" values="0 0 0 0 0 0 0 0 0 0 0 0 0 0 0 0 0 0 127 0" result="hardAlpha"/>
<feOffset dy="4"/>
<feGaussianBlur stdDeviation="3"/>
<feComposite in2="hardAlpha" operator="out"/>
<feColorMatrix type="matrix" values="0 0 0 0 0 0 0 0 0 0 0 0 0 0 0 0 0 0 0.25 0"/>
<feBlend mode="normal" in2="BackgroundImageFix" result="effect1_dropShadow_1162_668"/>
<feBlend mode="normal" in="SourceGraphic" in2="effect1_dropShadow_1162_668" result="shape"/>
</filter>
</defs>
</svg>
