<svg width="16" height="20" viewBox="0 0 16 20" fill="none" xmlns="http://www.w3.org/2000/svg">
<path fill-rule="evenodd" clip-rule="evenodd" d="M5.60461 0.147333C5.44807 0.228312 5.23283 0.415914 5.12628 0.56407C4.94604 0.814796 4.931 0.879503 4.91052 1.49315L4.8885 2.1527H2.59896H0.309345L0.15087 2.30813C-0.0502901 2.5053 -0.0502901 2.6865 0.15087 2.88366C0.272664 3.00314 0.377345 3.0391 0.602916 3.0391H0.896423V10.9756C0.896423 16.8556 0.915925 18.9679 0.971721 19.1274C1.08764 19.4586 1.33116 19.7347 1.63436 19.8786C1.90765 20.0082 1.95931 20.0092 8.07633 19.9925L14.2429 19.9758L14.5097 19.7945C14.6763 19.6812 14.8378 19.4925 14.94 19.2914L15.1036 18.9695V11.0043V3.0391H15.3971C15.6227 3.0391 15.7273 3.00314 15.8491 2.88366C16.0503 2.6865 16.0503 2.5053 15.8491 2.30813L15.6907 2.1527H13.401H11.1115L11.0895 1.49315C11.069 0.879503 11.054 0.814796 10.8737 0.56407C10.7672 0.415914 10.5519 0.228312 10.3954 0.147333C10.1142 0.00177279 10.085 0 8 0C5.91503 0 5.88578 0.00177279 5.60461 0.147333ZM10.0775 0.99119C10.174 1.07673 10.1956 1.19285 10.1956 1.62434V2.1527H8H5.80435V1.63535C5.80435 0.833853 5.6511 0.886404 7.98876 0.886404C9.73192 0.886404 9.97311 0.898497 10.0775 0.99119ZM14.1995 10.9643C14.1995 18.2499 14.1908 18.8988 14.0926 19.0052C13.9905 19.1158 13.7172 19.121 8.01124 19.121C2.54252 19.121 2.02673 19.1121 1.91863 19.0162C1.80542 18.9157 1.80051 18.5833 1.80051 10.9753V3.0391H8H14.1995V10.9643ZM5.07042 5.32305L4.90026 5.45424V11.0847C4.90026 16.6307 4.90219 16.717 5.02941 16.8417C5.19828 17.0072 5.49295 17.0041 5.64904 16.835C5.76806 16.7061 5.77206 16.5192 5.77206 11.0678V5.43385L5.61959 5.31285C5.42366 5.15729 5.28191 5.15995 5.07042 5.32305ZM7.70649 5.34723L7.54795 5.50261V11.0687C7.54795 16.6037 7.54873 16.6356 7.68182 16.8015C7.77055 16.9121 7.87775 16.9683 8 16.9683C8.12224 16.9683 8.22944 16.9121 8.31817 16.8015C8.45127 16.6356 8.45204 16.6037 8.45204 11.0687V5.50261L8.29351 5.34723C8.20633 5.26176 8.07426 5.1918 8 5.1918C7.92573 5.1918 7.79367 5.26176 7.70649 5.34723ZM10.3804 5.31285L10.2279 5.43385V11.0678C10.2279 16.5192 10.2319 16.7061 10.351 16.835C10.507 17.0041 10.8017 17.0072 10.9706 16.8417C11.0978 16.717 11.0997 16.6307 11.0997 11.0847V5.45424L10.9296 5.32305C10.7181 5.15995 10.5763 5.15729 10.3804 5.31285Z" fill="#D5DCDF"/>
</svg>
