<svg width="62" height="62" viewBox="0 0 62 62" fill="none" xmlns="http://www.w3.org/2000/svg">
<g filter="url(#filter0_d_1166_691)">
<rect x="6" y="2" width="50" height="50" rx="7" fill="#7246AB"/>
<path fill-rule="evenodd" clip-rule="evenodd" d="M27.0529 14.6131C26.3043 14.8813 25.7395 15.4254 25.4523 16.1552C25.3328 16.459 25.322 16.9881 25.3022 23.5305L25.2808 30.5785L24.4966 29.8057C23.4708 28.7949 23.0054 28.5546 22.0856 28.5614C21.2669 28.5674 20.7731 28.7587 20.195 29.2939C19.6337 29.8136 19.3926 30.3128 19.3413 31.0615C19.2984 31.6881 19.4305 32.2695 19.7334 32.7864C19.9632 33.1784 23.736 36.9286 24.4131 37.438C25.3902 38.173 26.3571 38.67 27.5587 39.055C28.8697 39.4749 29.1883 39.5003 33.1402 39.5C36.4854 39.4997 36.7831 39.4895 37.3452 39.3547C39.8304 38.7589 41.8403 36.6033 42.2271 34.1189C42.2892 33.7205 42.306 31.3774 42.2898 25.428L42.2675 17.2825L42.0997 16.9453C41.8427 16.4286 41.4878 16.0606 40.9821 15.7865C40.5492 15.5518 40.4812 15.5371 39.8311 15.5382C39.2465 15.5391 39.0843 15.5667 38.7766 15.7177C38.3113 15.9459 37.8015 16.4549 37.5735 16.9189C37.3964 17.2791 37.3945 17.3042 37.3737 19.633C37.3621 20.9258 37.3294 21.9716 37.3009 21.9568C36.5535 21.5696 36.3583 21.5103 35.8317 21.5108C35.1661 21.5114 34.5432 21.7603 34.1185 22.1952L33.8424 22.4779L33.5222 22.1828C33.0242 21.7237 32.4875 21.5103 31.8311 21.5103C31.2996 21.5103 31.1482 21.5563 30.3584 21.9578C30.3284 21.9731 30.3038 20.7568 30.3038 19.2549C30.3038 16.6365 30.2974 16.5071 30.147 16.1053C29.9508 15.5808 29.4046 14.9877 28.8825 14.7323C28.3585 14.4759 27.5779 14.4251 27.0529 14.6131ZM28.3961 15.6133C28.7179 15.7477 28.9651 15.9673 29.1289 16.2643C29.2373 16.4608 29.2529 17.079 29.2857 22.4825L29.322 28.4825L29.4892 28.8962C29.6977 29.4121 30.2122 29.9638 30.7402 30.2374C31.0928 30.4202 31.2178 30.4449 31.7948 30.4455C32.3511 30.4461 32.5093 30.4177 32.8493 30.2559C33.0693 30.1513 33.3769 29.9353 33.533 29.776L33.8166 29.4862L34.1041 29.7737C34.2621 29.9317 34.5763 30.1477 34.8022 30.2536C35.1455 30.4145 35.3144 30.4462 35.8311 30.4462C36.3479 30.4462 36.5167 30.4145 36.8601 30.2536C37.3605 30.019 37.7948 29.5977 38.065 29.085L38.2675 28.7007L38.3039 23.1371C38.3365 18.1374 38.3524 17.5512 38.4607 17.3537C38.6307 17.0439 38.9544 16.7338 39.2288 16.6178C39.5283 16.4912 40.1322 16.4907 40.4335 16.6168C40.8139 16.7761 41.1871 17.2485 41.2839 17.6933C41.3463 17.9804 41.3615 20.153 41.3418 25.9734C41.3116 34.8553 41.3519 34.2198 40.7411 35.4644C40.2 36.567 39.3683 37.4 38.2675 37.942C37.0847 38.5242 37.1321 38.5189 33.1402 38.5189C30.5864 38.5189 29.478 38.4933 29.124 38.4262C27.5505 38.1279 26.2331 37.5505 24.9584 36.6005C24.2085 36.0416 20.7884 32.6022 20.5823 32.1998C20.2299 31.5115 20.2851 30.6863 20.7184 30.1605C21.1944 29.5832 22.1147 29.3667 22.7766 29.6764C22.9406 29.7531 23.6294 30.355 24.356 31.0566C25.1022 31.777 25.7027 32.3007 25.7826 32.3007C25.8584 32.3007 26.0068 32.2329 26.1122 32.1499L26.3038 31.9993L26.3043 24.4227C26.3045 19.3601 26.3299 16.755 26.3809 16.5714C26.4743 16.2351 26.8185 15.8309 27.1693 15.6455C27.4903 15.4758 28.033 15.4615 28.3961 15.6133ZM32.5318 22.6775C32.8822 22.8585 33.2105 23.3134 33.2908 23.7293C33.3781 24.1811 33.3729 27.7683 33.2842 28.2355C33.1982 28.6888 32.9313 29.0595 32.5151 29.3036C32.1252 29.5323 31.3894 29.5064 31.0166 29.2509C30.7174 29.0459 30.4728 28.7089 30.3746 28.3665C30.2718 28.0079 30.2836 24.0091 30.3888 23.5915C30.4894 23.1916 30.965 22.6739 31.3348 22.5614C31.6784 22.4571 32.2036 22.508 32.5318 22.6775ZM36.2748 22.5653C36.6487 22.6905 36.9778 22.9657 37.159 23.3049C37.3151 23.5972 37.3228 23.6974 37.3458 25.7342C37.3737 28.191 37.3316 28.5325 36.95 28.9549C36.586 29.3579 36.2688 29.486 35.7212 29.4511C35.0468 29.4082 34.5612 29.0171 34.3746 28.3665C34.2718 28.0079 34.2836 24.0091 34.3888 23.5915C34.4471 23.3598 34.5706 23.1574 34.7833 22.9446C35.2112 22.5168 35.7334 22.384 36.2748 22.5653Z" fill="#D5DCDF"/>
</g>
<defs>
<filter id="filter0_d_1166_691" x="0" y="0" width="62" height="62" filterUnits="userSpaceOnUse" color-interpolation-filters="sRGB">
<feFlood flood-opacity="0" result="BackgroundImageFix"/>
<feColorMatrix in="SourceAlpha" type="matrix" values="0 0 0 0 0 0 0 0 0 0 0 0 0 0 0 0 0 0 127 0" result="hardAlpha"/>
<feOffset dy="4"/>
<feGaussianBlur stdDeviation="3"/>
<feComposite in2="hardAlpha" operator="out"/>
<feColorMatrix type="matrix" values="0 0 0 0 0 0 0 0 0 0 0 0 0 0 0 0 0 0 0.25 0"/>
<feBlend mode="normal" in2="BackgroundImageFix" result="effect1_dropShadow_1166_691"/>
<feBlend mode="normal" in="SourceGraphic" in2="effect1_dropShadow_1166_691" result="shape"/>
</filter>
</defs>
</svg>
