<svg width="62" height="62" viewBox="0 0 62 62" fill="none" xmlns="http://www.w3.org/2000/svg">
<g filter="url(#filter0_d_1166_709)">
<rect x="6" y="2" width="50" height="50" rx="7" fill="#BB27C5"/>
<path fill-rule="evenodd" clip-rule="evenodd" d="M24.9527 17.8553C24.8532 17.878 24.5481 17.9405 24.2745 17.9939C22.753 18.2914 21.1213 19.5818 20.3979 21.0595C19.4083 23.081 19.5809 25.2509 20.8755 27.0651C21.0948 27.3725 21.4443 27.7776 21.6522 27.9654C21.8602 28.1532 22.0164 28.319 21.9996 28.334C21.9828 28.3488 21.7858 28.4531 21.5621 28.5657C18.9662 29.8715 17.094 32.6678 16.8898 35.544L16.8334 36.3399H17.7844H18.7355L18.8379 35.5416C19.2497 32.3304 21.5832 29.9778 24.7783 29.5527C25.8111 29.4152 26.9222 29.553 27.9747 29.9492C30.3571 30.8456 32.0002 32.944 32.3293 35.5104L32.4357 36.3399H39.2178H46L45.9502 35.3679C45.8105 32.6438 44.1288 30.2317 41.5893 29.1131C41.0756 28.8868 39.8253 28.568 39.4193 28.5598C39.2305 28.556 39.3556 28.4929 39.8311 28.3521C41.1207 27.9702 42.0252 27.2259 42.5913 26.0805C43.4206 24.4024 43.1376 22.4965 41.8601 21.1573C40.215 19.4325 37.553 19.3267 35.7855 20.9158C33.9941 22.5264 33.8535 25.2743 35.4721 27.0409C36.0825 27.7071 36.7062 28.0991 37.5556 28.3506C38.0482 28.4964 38.1645 28.5557 37.9645 28.5592C37.4107 28.5689 36.2379 28.9308 35.3957 29.352C34.6965 29.7019 34.3806 29.9339 33.6966 30.6003L32.8564 31.419L32.4972 30.9533C31.7852 30.0303 30.6419 29.0852 29.6091 28.5657C29.3853 28.4531 29.1884 28.3488 29.1716 28.334C29.1548 28.319 29.311 28.1532 29.519 27.9654C30.9981 26.6291 31.6972 24.4461 31.2819 22.461C30.9323 20.7901 29.6736 19.1759 28.1624 18.4603C27.7397 18.2601 27.1967 18.0495 26.9557 17.9921C26.4661 17.8758 25.2312 17.7913 24.9527 17.8553ZM27.2916 20.1859C28.1033 20.5871 28.6987 21.1971 29.0951 22.0339C29.367 22.6078 29.3831 22.7001 29.3831 23.6835C29.3831 24.681 29.3703 24.7511 29.0822 25.3363C28.5203 26.4777 27.4281 27.2834 26.1574 27.494C24.5427 27.7615 22.8377 26.8569 22.0882 25.3349C21.8008 24.7514 21.7881 24.6816 21.7881 23.6795C21.7881 22.6521 21.7942 22.6209 22.1286 21.944C22.507 21.1777 23.1078 20.5627 23.8406 20.1913C24.4794 19.8676 24.8594 19.7972 25.7916 19.8299C26.5417 19.8561 26.7006 19.8938 27.2916 20.1859Z" fill="#D5DFDE"/>
</g>
<defs>
<filter id="filter0_d_1166_709" x="0" y="0" width="62" height="62" filterUnits="userSpaceOnUse" color-interpolation-filters="sRGB">
<feFlood flood-opacity="0" result="BackgroundImageFix"/>
<feColorMatrix in="SourceAlpha" type="matrix" values="0 0 0 0 0 0 0 0 0 0 0 0 0 0 0 0 0 0 127 0" result="hardAlpha"/>
<feOffset dy="4"/>
<feGaussianBlur stdDeviation="3"/>
<feComposite in2="hardAlpha" operator="out"/>
<feColorMatrix type="matrix" values="0 0 0 0 0 0 0 0 0 0 0 0 0 0 0 0 0 0 0.25 0"/>
<feBlend mode="normal" in2="BackgroundImageFix" result="effect1_dropShadow_1166_709"/>
<feBlend mode="normal" in="SourceGraphic" in2="effect1_dropShadow_1166_709" result="shape"/>
</filter>
</defs>
</svg>
