<svg width="62" height="62" viewBox="0 0 62 62" fill="none" xmlns="http://www.w3.org/2000/svg">
<g filter="url(#filter0_d_1169_751)">
<rect x="6" y="2" width="50" height="50" rx="7" fill="#3784BE"/>
<path fill-rule="evenodd" clip-rule="evenodd" d="M29.2631 12.9411C25.9696 13.4794 23.3885 14.7922 21.077 17.1049C18.9606 19.2224 17.6892 21.5727 17.0434 24.5611C16.8634 25.3937 16.8334 25.805 16.8334 27.4306C16.8334 29.0562 16.8634 29.4675 17.0434 30.3001C17.6892 33.2885 18.9606 35.6388 21.077 37.7563C23.1858 39.8661 25.5654 41.1545 28.5297 41.7913C29.3589 41.9694 29.7787 41.9999 31.3978 41.9999C33.0183 41.9999 33.4358 41.9696 34.2659 41.7909C37.2462 41.1494 39.6013 39.8745 41.7185 37.7563C44.4187 35.0547 45.8403 31.8127 45.9873 28.0208C46.1207 24.5787 45.2088 21.586 43.1495 18.7074C42.9214 18.3886 42.2553 17.6469 41.6691 17.059C39.6147 14.9985 37.2181 13.7029 34.3121 13.0817C33.1046 12.8237 30.4366 12.7493 29.2631 12.9411ZM30.7501 20.442V26.7826H28.5314H26.3127L26.2738 26.5744C26.2524 26.4598 26.1858 26.0329 26.1259 25.6256C25.9119 24.1712 25.2137 22.4828 24.2778 21.1563C23.7424 20.3976 22.6708 19.289 22.0221 18.823C21.7848 18.6525 21.5907 18.4627 21.5907 18.4012C21.5907 18.148 23.5636 16.542 24.6916 15.8771C26.2994 14.9293 28.8154 14.1379 30.3107 14.1097L30.7501 14.1013V20.442ZM33.6251 14.2476C35.3615 14.5387 37.3704 15.3448 38.8395 16.3397C39.5791 16.8407 40.9088 17.9675 41.094 18.2502C41.2307 18.4589 41.2284 18.4831 41.0608 18.6036C40.0297 19.3448 39.0141 20.4044 38.2499 21.5363C37.5128 22.628 36.7605 24.613 36.6296 25.8116C36.5963 26.1166 36.5497 26.4598 36.5259 26.5744L36.4828 26.7826H34.2641H32.0454V20.442V14.1013H32.3992C32.5938 14.1013 33.1453 14.1672 33.6251 14.2476ZM21.2971 19.8784C23.303 21.4385 24.6525 23.797 24.9696 26.2967L25.0313 26.7826H21.5532H18.075V26.4287C18.075 25.3528 18.6343 23.2135 19.283 21.8081C19.6243 21.0686 20.6046 19.4701 20.7168 19.4701C20.7472 19.4701 21.0083 19.6538 21.2971 19.8784ZM42.6473 20.2576C43.2901 21.2443 43.7931 22.3274 44.1564 23.5071C44.4588 24.4888 44.7205 25.8424 44.7205 26.4245V26.7826H41.2424H37.7642L37.8259 26.2967C38.0795 24.2978 38.9673 22.4087 40.3395 20.9476C40.8669 20.3861 41.9558 19.4701 42.0959 19.4701C42.1169 19.4701 42.3651 19.8245 42.6473 20.2576ZM24.9696 28.5645C24.7125 30.591 23.7688 32.5563 22.3434 34.034C21.8499 34.5456 20.8364 35.3911 20.7168 35.3911C20.6046 35.3911 19.6243 33.7925 19.283 33.0531C18.6343 31.6476 18.075 29.5084 18.075 28.4325V28.0785H21.5532H25.0313L24.9696 28.5645ZM30.7501 34.432V40.7854L30.0331 40.7223C27.3852 40.4893 24.6464 39.2692 22.456 37.3467C21.6154 36.6089 21.4986 36.4275 21.7476 36.2469C24.0739 34.5602 25.7335 31.9025 26.1259 29.2356C26.1858 28.8283 26.2524 28.4014 26.2738 28.2868L26.3127 28.0785H28.5314H30.7501V34.432ZM36.5217 28.2868C36.5431 28.4014 36.6097 28.8283 36.6696 29.2356C37.0618 31.9013 38.7438 34.5929 41.0546 36.253C41.3061 36.4337 41.1709 36.6276 40.2307 37.4354C37.9992 39.3527 35.4417 40.4774 32.7608 40.7205L32.0454 40.7854V34.432V28.0785H34.2641H36.4828L36.5217 28.2868ZM44.6812 28.7943C44.501 30.7846 43.7629 32.8912 42.6442 34.6082L42.128 35.4005L41.8386 35.2338C41.3777 34.9684 40.1375 33.7625 39.6347 33.0911C38.7403 31.8965 38.0199 30.0938 37.8259 28.5645L37.7642 28.0785H41.2551H44.7461L44.6812 28.7943Z" fill="#D5DCDF" stroke="#D5DCDF"/>
</g>
<defs>
<filter id="filter0_d_1169_751" x="0" y="0" width="62" height="62" filterUnits="userSpaceOnUse" color-interpolation-filters="sRGB">
<feFlood flood-opacity="0" result="BackgroundImageFix"/>
<feColorMatrix in="SourceAlpha" type="matrix" values="0 0 0 0 0 0 0 0 0 0 0 0 0 0 0 0 0 0 127 0" result="hardAlpha"/>
<feOffset dy="4"/>
<feGaussianBlur stdDeviation="3"/>
<feComposite in2="hardAlpha" operator="out"/>
<feColorMatrix type="matrix" values="0 0 0 0 0 0 0 0 0 0 0 0 0 0 0 0 0 0 0.25 0"/>
<feBlend mode="normal" in2="BackgroundImageFix" result="effect1_dropShadow_1169_751"/>
<feBlend mode="normal" in="SourceGraphic" in2="effect1_dropShadow_1169_751" result="shape"/>
</filter>
</defs>
</svg>
