<svg width="52" height="52" viewBox="0 0 52 52" fill="none" xmlns="http://www.w3.org/2000/svg">
<g filter="url(#filter0_d_1149_465)">
<rect x="6" y="2" width="40" height="40" rx="7" fill="#CC9D3A"/>
<path fill-rule="evenodd" clip-rule="evenodd" d="M21.5214 13.0682C19.7072 13.2995 17.9717 14.1401 16.6313 15.4367C15.2908 16.7336 14.4443 18.2853 14.1067 20.0647C13.9643 20.8158 13.9645 22.5147 14.1071 23.2665C14.4425 25.0351 15.2979 26.6028 16.6308 27.8923C17.8545 29.0761 19.2298 29.7996 20.9617 30.1707C21.6225 30.3124 23.3442 30.3416 23.9355 30.2211C24.2117 30.1649 24.4192 30.1637 24.6702 30.217C25.1031 30.3089 26.9361 30.312 27.3668 30.2216C27.5926 30.1743 27.906 30.1851 28.4514 30.259C30.8101 30.5786 33.4326 29.6984 35.2905 27.9633C37.0293 26.3395 38 24.0829 38 21.6647C38 19.262 37.0466 17.0297 35.32 15.3896C33.5221 13.6817 30.9006 12.7749 28.5723 13.0554C27.6353 13.1684 27.6984 13.1683 26.7511 13.0574C26.1002 12.9812 25.8322 12.9811 25.2117 13.0568C24.3208 13.1655 24.2809 13.1657 23.5175 13.0658C22.8419 12.9773 22.2291 12.9781 21.5214 13.0682ZM24.3204 14.1645C25.8037 14.4961 27.0728 15.2158 28.1474 16.3348C29.5894 17.8363 30.2941 19.5721 30.3006 21.6381C30.307 23.6804 29.5973 25.4766 28.2075 26.935C26.8032 28.4089 25.0398 29.2302 23.0458 29.3393C18.9072 29.5658 15.3999 26.5622 14.9624 22.4169C14.5429 18.4405 17.3397 14.7706 21.324 14.0698C22.0739 13.9378 23.5093 13.9832 24.3204 14.1645ZM27.6996 14.1746C30.4563 14.7637 32.651 16.8727 33.4346 19.6857C33.6108 20.3178 33.6253 20.4695 33.6253 21.6647C33.6253 22.8513 33.6099 23.0146 33.4399 23.624C33.052 25.0142 32.3818 26.1522 31.3763 27.1283C30.6483 27.835 30.101 28.2179 29.227 28.6318C28.5683 28.9438 27.3718 29.29 26.9485 29.2911L26.7077 29.2918L27.1234 29.0416C30.0072 27.3065 31.6552 23.8886 31.2091 20.5677C30.8587 17.9587 29.3363 15.6187 27.1234 14.2877C26.6239 13.9873 26.7279 13.9669 27.6996 14.1746ZM31.476 14.2875C34.2644 15.0847 36.2995 17.2932 36.9197 20.1953C37.0726 20.9106 37.074 22.2977 36.9227 23.086C36.3747 25.9406 34.2706 28.2464 31.4925 29.0363C30.9222 29.1985 30.0901 29.3461 30.1631 29.2722C30.1823 29.2526 30.4968 29.0374 30.8618 28.7939C33.2009 27.2334 34.6408 24.5171 34.6408 21.6647C34.6408 18.8124 33.2009 16.096 30.8618 14.5356C30.4968 14.2921 30.1823 14.0761 30.1631 14.0558C30.0902 13.9787 30.889 14.1197 31.476 14.2875ZM22.3454 17.9044C22.1667 18.5724 21.3755 19.0757 20.5042 19.0757H20.087V19.4956V19.9154H21.1366H22.1862V22.8193V25.7231H22.676H23.1658V21.6647V17.6063H22.7954H22.4251L22.3454 17.9044Z" fill="#D5DCDF"/>
</g>
<defs>
<filter id="filter0_d_1149_465" x="0" y="0" width="52" height="52" filterUnits="userSpaceOnUse" color-interpolation-filters="sRGB">
<feFlood flood-opacity="0" result="BackgroundImageFix"/>
<feColorMatrix in="SourceAlpha" type="matrix" values="0 0 0 0 0 0 0 0 0 0 0 0 0 0 0 0 0 0 127 0" result="hardAlpha"/>
<feOffset dy="4"/>
<feGaussianBlur stdDeviation="3"/>
<feComposite in2="hardAlpha" operator="out"/>
<feColorMatrix type="matrix" values="0 0 0 0 0 0 0 0 0 0 0 0 0 0 0 0 0 0 0.25 0"/>
<feBlend mode="normal" in2="BackgroundImageFix" result="effect1_dropShadow_1149_465"/>
<feBlend mode="normal" in="SourceGraphic" in2="effect1_dropShadow_1149_465" result="shape"/>
</filter>
</defs>
</svg>
