<svg width="123" height="18" viewBox="0 0 123 18" fill="none" xmlns="http://www.w3.org/2000/svg">
<path fill-rule="evenodd" clip-rule="evenodd" d="M17.3341 2.16408C17.3275 2.17473 17.3208 2.1855 17.314 2.1964C17.2781 2.25419 17.2399 2.31556 17.2051 2.37987C17.1892 2.40925 17.1767 2.43454 17.1674 2.45541C17.1823 2.48021 17.2039 2.51094 17.2316 2.5456C17.3033 2.63504 17.382 2.70848 17.4081 2.72843L17.6939 2.94648L17.0934 3.77145L17.091 3.7729C17.1984 3.93696 17.2223 4.11771 17.1987 4.27631C17.1741 4.44131 17.1003 4.58022 17.03 4.67344C16.9724 4.77238 16.878 4.89019 16.7989 4.98503C16.7023 5.10096 16.5924 5.2244 16.5012 5.32404C16.3309 5.53895 16.0983 5.64869 15.863 5.70464C15.6284 5.76045 15.3647 5.76914 15.1034 5.76477C14.9274 5.76182 14.7501 5.7534 14.5693 5.74482C14.1827 5.72647 13.7806 5.70737 13.3427 5.73948C10.376 5.95701 9.0355 8.33003 8.73667 8.85905C8.72715 8.8759 8.71869 8.89088 8.71127 8.90385C8.70394 8.91667 8.6955 8.93123 8.68606 8.94752C8.40567 9.43144 7.33827 11.8676 8.10159 14.8743C8.15153 15.071 7.97186 15.0724 7.77543 15.1224C7.579 15.1724 7.34396 14.8243 7.29402 14.6276C6.45781 11.3338 7.74382 9.11023 8.0487 8.58308C8.05825 8.56656 8.06684 8.55171 8.07438 8.53854C8.08205 8.52512 8.09112 8.509 8.10159 8.49038C8.40809 7.94536 9.922 5.25331 13.2891 5.00643C13.7718 4.97103 14.2532 4.99356 14.6582 5.01252C14.8255 5.02036 14.9797 5.02758 15.1157 5.02986C15.3633 5.034 15.5515 5.02327 15.6934 4.98952C15.8295 4.95714 15.893 4.91085 15.9293 4.86332L15.9394 4.85003L15.9507 4.83772C16.0392 4.7413 16.1452 4.62224 16.2355 4.51399C16.2807 4.45975 16.3199 4.41064 16.3502 4.36991C16.3653 4.3496 16.377 4.33304 16.3855 4.32019C16.3931 4.30859 16.396 4.30332 16.396 4.30332L16.415 4.26565L16.4425 4.23286C16.445 4.22979 16.4529 4.2191 16.4606 4.20346C16.4673 4.18973 16.4708 4.17824 16.4723 4.17048C16.4717 4.16989 16.4711 4.16926 16.4704 4.16859C16.3879 4.08994 16.3084 3.98564 16.276 3.85178C16.2408 3.70623 16.2727 3.57349 16.3314 3.47095C16.3845 3.37821 16.4567 3.3138 16.5089 3.27338C16.5358 3.25256 16.5631 3.23385 16.5883 3.21758L16.7036 3.05919C16.6885 3.04151 16.6735 3.02356 16.6591 3.00548C16.6078 2.94148 16.5538 2.86591 16.5108 2.7857C16.4723 2.71378 16.4205 2.59815 16.4205 2.46439C16.4205 2.36329 16.4506 2.27195 16.4731 2.21381C16.4981 2.14879 16.5299 2.08502 16.5598 2.02967C16.6065 1.94346 16.6617 1.85482 16.6984 1.79583C16.7077 1.78088 16.7158 1.76783 16.7223 1.75721L16.7336 1.73877L16.7469 1.72179C16.8172 1.63242 16.9643 1.47669 17.1956 1.42871C17.4387 1.37828 17.6748 1.46482 17.8825 1.6474L20.4723 3.05219L20.502 3.07766C20.6624 3.21533 20.727 3.43715 20.7398 3.61499C20.7542 3.8147 20.7123 4.05141 20.5683 4.26723C20.3378 4.61265 19.9609 4.56596 19.7877 4.52429C19.7602 4.51766 19.7332 4.51017 19.7074 4.50236L19.5582 4.75603C19.557 4.76074 19.5552 4.76848 19.5531 4.77995C19.5499 4.79697 19.547 4.81529 19.5431 4.84068L19.543 4.84109C19.5394 4.86409 19.5347 4.89426 19.5289 4.92432C19.5197 4.97178 19.4976 5.08078 19.4296 5.17733C19.3904 5.23288 19.33 5.29348 19.2416 5.33208C19.1525 5.37105 19.0631 5.37525 18.9869 5.36315C18.9497 5.35722 18.9243 5.35405 18.9023 5.35351C18.8954 5.35333 18.8899 5.35348 18.8858 5.35374C18.8817 5.36103 18.8759 5.37318 18.8697 5.39203L18.5215 5.27581C18.8696 5.39233 18.8697 5.39203 18.8697 5.39203L18.8607 5.41899C18.855 5.43596 18.8468 5.46032 18.8368 5.48998C18.8169 5.54927 18.7897 5.62985 18.7608 5.71485C18.7105 5.8624 18.6505 6.03649 18.6157 6.12844C18.6063 6.18667 18.6293 6.29126 18.8245 6.48407C18.9629 6.62082 19.1231 6.7416 19.2969 6.87264C19.385 6.93908 19.4767 7.00816 19.5707 7.0833C21.4613 8.59342 22.0537 10.6058 22.0537 11.8358C22.0537 12.5399 21.9085 13.3236 21.7687 13.9183C21.6982 14.2185 21.6277 14.4762 21.5748 14.6591C21.5482 14.7507 21.5261 14.8238 21.5104 14.8743C21.5026 14.8996 21.4963 14.9193 21.492 14.9328C21.4899 14.9396 21.4882 14.9449 21.487 14.9485L21.4856 14.9528L21.2941 14.8743C21.2941 14.8743 21.485 14.9547 21.1363 14.8402L21.2941 14.8743C21.2309 15.0672 21.0624 15.0118 20.8698 14.9485C20.6772 14.8853 20.7244 14.9186 20.7875 14.7257L20.7887 14.7221C20.7896 14.7194 20.791 14.715 20.7929 14.7092C20.7944 14.7045 20.7962 14.6988 20.7982 14.6922C20.8013 14.6824 20.8051 14.6704 20.8094 14.6564C20.8239 14.6099 20.8447 14.5412 20.8698 14.4545C20.9201 14.2809 20.9872 14.0355 21.0543 13.75C21.1898 13.1733 21.3198 12.4548 21.3198 11.8358C21.3198 10.8057 20.8112 9.01436 19.1131 7.65791C19.0532 7.61012 18.9819 7.55618 18.9047 7.49789C18.7117 7.35203 18.4828 7.179 18.309 7.00735C18.0681 6.76931 17.7836 6.39471 17.9096 5.92474L17.9152 5.90373L17.9233 5.88353C17.9464 5.82572 18.0071 5.65091 18.0661 5.47762C18.0946 5.39379 18.1215 5.31416 18.1412 5.25545C18.1511 5.22611 18.1592 5.20202 18.1648 5.18529L18.1733 5.1597M18.1735 5.1593C18.2613 4.89575 18.4324 4.72422 18.6544 4.65405C18.7169 4.63428 18.7788 4.62444 18.8363 4.62055C18.8476 4.5653 18.8685 4.48361 18.9124 4.40585L18.914 4.40301L19.2589 3.90119H19.4488C19.5229 3.90119 19.6138 3.89344 19.6387 3.90119C19.6715 3.9114 19.8019 3.89128 19.8286 3.90119C19.8908 3.92418 20.0186 3.90119 20.0186 3.90119C20.0186 3.90119 20.0219 3.75735 20.0186 3.711C20.0176 3.698 20.0051 3.64333 20.0032 3.63363C20.0032 3.63363 17.9206 2.5103 17.6856 2.37967L17.4152 2.21532C17.3809 2.18262 17.3559 2.16566 17.3407 2.15713C17.3386 2.15922 17.3364 2.16154 17.3341 2.16408M19.4793 4.42347C19.4793 4.42347 19.4808 4.42375 19.4841 4.42475C19.481 4.42404 19.4793 4.42347 19.4793 4.42347Z" fill="#D5DCDF" fill-opacity="0.5"/>
<path d="M6.69212 14.233L6.16064 14.7363C6.30539 14.8504 7.10527 15.4737 7.34217 15.5664C7.61848 15.6745 7.95969 15.7352 8.33199 15.648C8.62523 15.5793 8.91186 15.4251 9.18513 15.1704C9.34164 15.2672 9.56453 15.3838 9.83241 15.4632C10.1082 15.545 10.4401 15.5896 10.7971 15.5246C11.0802 15.4731 11.3644 15.3552 11.6375 15.1522C11.6493 15.1596 11.6614 15.1672 11.6739 15.1748C11.8417 15.278 12.0836 15.4052 12.3711 15.4912C12.6591 15.5773 13.0051 15.6256 13.371 15.5558C13.6574 15.5012 13.9401 15.3773 14.2045 15.1653L14.2224 15.1772C14.3866 15.2854 14.6245 15.4195 14.9081 15.5103C15.1925 15.6014 15.5364 15.6531 15.9009 15.5788C16.1855 15.5207 16.4634 15.3896 16.7216 15.1686L16.7373 15.1789C16.904 15.2864 17.1444 15.42 17.4282 15.5105C17.7122 15.601 18.0557 15.6535 18.4158 15.5784C18.6883 15.5216 18.9512 15.3958 19.1916 15.1862C19.3462 15.2984 19.5678 15.4349 19.8355 15.5285C20.1137 15.6258 20.4533 15.6805 20.8191 15.6018C21.1032 15.5406 21.3816 15.4035 21.6448 15.1751C21.7992 15.2801 22.0208 15.4082 22.2879 15.4955C22.562 15.5852 22.8946 15.6353 23.2519 15.563C23.5258 15.5075 23.8894 15.2977 24.1458 15.0901C24.2582 14.9991 24.5722 14.7852 24.6431 14.8332C24.5369 14.7613 24.4438 14.6886 24.377 14.6337C24.3438 14.6064 24.3176 14.5838 24.3001 14.5684C24.2913 14.5607 24.2847 14.5549 24.2805 14.5511L24.2761 14.5471L24.2753 14.5463L24.1458 14.1494L23.7866 14.5623C23.5412 14.8232 23.3076 14.9346 23.1073 14.9752C22.9035 15.0165 22.7019 14.9908 22.513 14.929C22.3228 14.8668 22.1565 14.7712 22.0353 14.688C21.9754 14.647 21.9286 14.6103 21.8976 14.5847C21.8821 14.572 21.8707 14.562 21.8637 14.5558C21.8602 14.5527 21.8578 14.5505 21.8566 14.5494L21.8562 14.5491L21.8556 14.5485L21.5959 14.3029L21.3591 14.5683C21.1049 14.8531 20.866 14.9727 20.6658 15.0158C20.4629 15.0595 20.2628 15.0325 20.0742 14.9666C19.8838 14.9 19.717 14.7975 19.5948 14.7076C19.5346 14.6633 19.4875 14.6237 19.4562 14.596C19.4406 14.5821 19.4291 14.5714 19.422 14.5646C19.4184 14.5612 19.416 14.5588 19.4147 14.5575L19.4144 14.5573L19.4141 14.5569L19.4137 14.5565L19.1452 14.2836L18.9018 14.5765C18.6832 14.8396 18.4628 14.9507 18.2672 14.9915C18.0653 15.0336 17.8541 15.0079 17.6483 14.9423C17.4423 14.8766 17.2579 14.7758 17.1221 14.6881C17.0551 14.6449 17.002 14.6062 16.9665 14.579C16.9488 14.5654 16.9356 14.5548 16.9273 14.548C16.9232 14.5446 16.9203 14.5422 16.9187 14.5408L16.9179 14.5401L16.9175 14.5398L16.9173 14.5396L16.6569 14.3137L16.4302 14.5687C16.1931 14.8353 15.96 14.9494 15.7553 14.9912C15.5456 15.034 15.3324 15.0076 15.129 14.9424C14.925 14.8771 14.7445 14.7769 14.6124 14.6898C14.5472 14.6469 14.4958 14.6085 14.4615 14.5815C14.4445 14.5681 14.4318 14.5576 14.4239 14.5509C14.4199 14.5476 14.4172 14.5452 14.4157 14.5439L14.4151 14.5434L14.4148 14.5431L14.4144 14.5428L14.1626 14.3173L13.9308 14.561C13.6902 14.8139 13.4506 14.9253 13.2345 14.9664C13.0135 15.0086 12.7897 14.9823 12.5788 14.9192C12.3675 14.856 12.1816 14.7595 12.0462 14.6763C11.9793 14.6351 11.9266 14.5984 11.8915 14.5726C11.874 14.5598 11.861 14.5497 11.8529 14.5434C11.8489 14.5402 11.8461 14.5379 11.8446 14.5367L11.844 14.5363L11.8436 14.536L11.8433 14.5357L11.6052 14.3367L11.3801 14.549C11.1261 14.7885 10.8821 14.8949 10.6666 14.9341C10.4477 14.974 10.2341 14.9487 10.0385 14.8907C9.84192 14.8325 9.67207 14.7435 9.54964 14.667C9.4891 14.6291 9.4419 14.5954 9.41075 14.572C9.39521 14.5602 9.38379 14.5512 9.37683 14.5455L9.36981 14.5398L9.36891 14.539L9.10423 14.3101L8.87895 14.5728C8.60763 14.8893 8.36221 15.0189 8.16617 15.0648C7.97027 15.1107 7.78203 15.0827 7.60494 15.0134C7.42476 14.9429 7.26744 14.8336 7.1516 14.7363C7.09473 14.6886 7.05039 14.6458 7.02094 14.6158C7.00627 14.6008 6.99546 14.5892 6.98879 14.5818C6.98546 14.5782 6.98318 14.5756 6.98199 14.5742L6.98114 14.5733L6.69212 14.233Z" fill="#D5DCDF" fill-opacity="0.5"/>
<path fill-rule="evenodd" clip-rule="evenodd" d="M13.0852 8.76446L13.0849 8.76542L12.9867 9.09712C12.9879 9.15458 12.9987 9.2206 13.0271 9.29361C13.1353 9.57245 13.5562 10.0841 15.0907 10.5391C15.1871 10.5677 15.2676 10.6347 15.3134 10.7244C15.3591 10.8141 15.366 10.9187 15.3326 11.0137L14.9865 10.8915C15.3326 11.0137 15.3326 11.0137 15.3326 11.0137L15.3203 11.0486C15.3123 11.0715 15.3004 11.1053 15.2853 11.1486C15.2549 11.2353 15.2113 11.3601 15.1583 11.5127C15.0522 11.8179 14.9085 12.2339 14.758 12.6773C14.4544 13.5719 14.1311 14.5544 14.0255 14.9772C13.9764 15.1741 13.7771 15.2939 13.5805 15.2446C13.3839 15.1954 13.2643 14.9959 13.3135 14.799C13.4281 14.3398 13.7633 13.324 14.0631 12.4407C14.2143 11.9952 14.3586 11.5774 14.4651 11.2711C14.4828 11.22 14.4996 11.172 14.5151 11.1275C13.6087 10.8204 13.0343 10.4669 12.6903 10.0982L11.2414 14.9926C11.1838 15.1872 10.9796 15.2981 10.7853 15.2405C10.591 15.1828 10.4801 14.9782 10.5378 14.7836L12.2579 8.97314C12.264 8.90643 12.275 8.84479 12.2887 8.78917C12.3125 8.69232 12.3442 8.61386 12.3712 8.55756C12.3802 8.53865 12.3888 8.52206 12.3966 8.50792C12.5979 7.90767 13.1004 7.63674 13.6035 7.55034C14.1076 7.46377 14.6625 7.54707 15.0933 7.67839C15.8617 7.91256 16.3843 8.239 16.668 8.64104C16.9589 9.05325 16.9694 9.50467 16.7945 9.88994L15.2889 15.263C15.2342 15.4584 14.8324 15.3179 14.6373 15.263C14.4422 15.2082 14.5275 15.2599 14.5822 15.0644L15.9189 10.2943C15.8761 10.2935 15.8332 10.2915 15.7906 10.2886C15.4334 10.2644 15.0122 10.1708 14.6373 10.0483C14.272 9.92886 13.9 9.76567 13.6708 9.57802C13.5716 9.49677 13.4029 9.33472 13.3952 9.09721C13.3857 8.80555 13.6089 8.64577 13.7614 8.57415C13.945 8.488 14.1635 8.56715 14.2495 8.75093C14.3007 8.86038 14.2934 8.98226 14.2403 9.08114C14.3817 9.16614 14.6 9.26289 14.8651 9.34954C15.1994 9.45884 15.5593 9.53626 15.8401 9.55527C15.9819 9.56487 16.0829 9.55801 16.1435 9.54418C16.1994 9.39365 16.1882 9.23461 16.0687 9.06525C15.9188 8.85287 15.5742 8.59324 14.8796 8.38156C14.5164 8.27086 14.0826 8.2138 13.7276 8.27478C13.3842 8.33374 13.1696 8.4868 13.0852 8.76446ZM16.1789 9.5332C16.1789 9.5332 16.1778 9.53399 16.1747 9.5352C16.1773 9.53373 16.1789 9.5332 16.1789 9.5332ZM14.0991 8.9742C14.0991 8.9742 14.101 8.97599 14.1034 8.9796C14.1001 8.97601 14.0991 8.9742 14.0991 8.9742Z" fill="#D5DCDF" fill-opacity="0.5"/>
<path fill-rule="evenodd" clip-rule="evenodd" d="M18.9123 0.30065C19.018 0.271668 19.1311 0.291495 19.2207 0.354711L20.8721 1.52027C20.97 1.58937 21.028 1.70195 21.0277 1.82188C21.0273 1.94182 20.9684 2.05402 20.8701 2.12246L19.8517 2.83119C19.7322 2.91438 19.5729 3.40677 19.4487 3.33065L17.7394 2.37969C17.5819 2.28312 18.0436 1.78765 18.1193 1.61893L18.6745 0.504488C18.7194 0.404394 18.8066 0.329633 18.9123 0.30065ZM19.0689 1.04836L18.4991 1.99931L19.4487 2.37969L20.2084 1.80912L19.0689 1.04836Z" fill="#D5DCDF" fill-opacity="0.5"/>
<path d="M6.8234 9.0014C6.8234 9.41222 6.70944 9.76369 6.48154 10.0558C6.25364 10.3388 5.93458 10.5625 5.52435 10.7268C6.58182 11.0737 7.11055 11.7265 7.11055 12.685C7.11055 13.5888 6.77326 14.2598 6.09867 14.698C5.43319 15.1271 4.47144 15.3416 3.21342 15.3416C3.05845 15.3416 2.87613 15.337 2.66646 15.3279C2.45679 15.3188 2.238 15.3005 2.0101 15.2731C1.79131 15.2457 1.57253 15.2092 1.35374 15.1636C1.13495 15.1271 0.934399 15.0723 0.752078 14.9993C0.250693 14.8075 0 14.4743 0 13.9996V7.60464C0 7.41293 0.0501385 7.26687 0.150415 7.16645C0.259809 7.0569 0.405666 6.97017 0.587988 6.90626C0.897935 6.79671 1.28537 6.71912 1.75029 6.67347C2.21521 6.6187 2.69381 6.59131 3.18607 6.59131C4.35293 6.59131 5.25087 6.78759 5.87988 7.18014C6.50889 7.57269 6.8234 8.17978 6.8234 9.0014ZM4.66288 12.5755C4.66288 12.0186 4.28912 11.7401 3.5416 11.7401H2.3246V13.4108C2.45223 13.4473 2.61632 13.4747 2.81687 13.4929C3.01743 13.5021 3.20886 13.5066 3.39119 13.5066C3.75583 13.5066 4.05666 13.4336 4.29368 13.2875C4.53981 13.1323 4.66288 12.895 4.66288 12.5755ZM2.3246 10.0695H3.32282C3.71481 10.0695 3.99741 9.99648 4.17061 9.85042C4.35293 9.70435 4.4441 9.48981 4.4441 9.20681C4.4441 8.96032 4.33926 8.76405 4.12959 8.61798C3.92904 8.47191 3.62365 8.39888 3.21342 8.39888C3.07668 8.39888 2.91715 8.40345 2.73483 8.41257C2.56162 8.4217 2.42488 8.4354 2.3246 8.45366V10.0695Z" fill="#D5DCDF" fill-opacity="0.5"/>
<path d="M30.7079 8.72601C30.7079 9.13683 30.594 9.4883 30.3661 9.78043C30.1382 10.0634 29.8191 10.2871 29.4089 10.4514C30.4663 10.7983 30.9951 11.4511 30.9951 12.4096C30.9951 13.3134 30.6578 13.9844 29.9832 14.4226C29.3177 14.8517 28.356 15.0662 27.0979 15.0662C26.943 15.0662 26.7606 15.0616 26.551 15.0525C26.3413 15.0434 26.1225 15.0251 25.8946 14.9977C25.6758 14.9704 25.457 14.9338 25.2383 14.8882C25.0195 14.8517 24.8189 14.7969 24.6366 14.7239C24.1352 14.5322 23.8845 14.1989 23.8845 13.7242V7.32925C23.8845 7.13754 23.9347 6.99148 24.0349 6.89105C24.1443 6.7815 24.2902 6.69478 24.4725 6.63087C24.7825 6.52132 25.1699 6.44373 25.6348 6.39808C26.0997 6.34331 26.5783 6.31592 27.0706 6.31592C28.2375 6.31592 29.1354 6.51219 29.7644 6.90475C30.3934 7.2973 30.7079 7.90439 30.7079 8.72601ZM28.5474 12.3001C28.5474 11.7432 28.1736 11.4648 27.4261 11.4648H26.2091V13.1354C26.3368 13.1719 26.5008 13.1993 26.7014 13.2176C26.9019 13.2267 27.0934 13.2312 27.2757 13.2312C27.6404 13.2312 27.9412 13.1582 28.1782 13.0121C28.4243 12.857 28.5474 12.6196 28.5474 12.3001ZM26.2091 9.79412H27.2073C27.5993 9.79412 27.8819 9.72109 28.0551 9.57502C28.2375 9.42896 28.3286 9.21442 28.3286 8.93142C28.3286 8.68493 28.2238 8.48866 28.0141 8.34259C27.8136 8.19652 27.5082 8.12349 27.0979 8.12349C26.9612 8.12349 26.8017 8.12805 26.6193 8.13718C26.4461 8.14631 26.3094 8.16001 26.2091 8.17826V9.79412Z" fill="#D5DCDF" fill-opacity="0.5"/>
<path d="M33.6224 14.8882C33.2304 14.8882 32.9205 14.7741 32.6926 14.5458C32.4647 14.3176 32.3507 14.0072 32.3507 13.6147V6.52132C32.4601 6.50307 32.6197 6.48024 32.8293 6.45286C33.039 6.41634 33.2487 6.39808 33.4583 6.39808C33.9141 6.39808 34.2423 6.47568 34.4429 6.63087C34.6434 6.78607 34.7437 7.08733 34.7437 7.53466V12.9574H37.8751C37.9389 13.0578 37.9982 13.1902 38.0529 13.3545C38.1076 13.5188 38.1349 13.6968 38.1349 13.8885C38.1349 14.2263 38.062 14.4774 37.9161 14.6417C37.7703 14.806 37.5697 14.8882 37.3145 14.8882H33.6224Z" fill="#D5DCDF" fill-opacity="0.5"/>
<path d="M41.0465 12.437C41.1742 12.7657 41.3884 12.9985 41.6892 13.1354C41.99 13.2632 42.3273 13.3271 42.7011 13.3271C43.084 13.3271 43.4486 13.2815 43.795 13.1902C44.1414 13.0897 44.4195 12.9756 44.6292 12.8478C44.775 12.9391 44.8981 13.0669 44.9984 13.2312C45.0986 13.3956 45.1488 13.569 45.1488 13.7516C45.1488 13.9798 45.085 14.1761 44.9573 14.3404C44.8297 14.5048 44.6474 14.6417 44.4104 14.7513C44.1825 14.8608 43.909 14.9384 43.5899 14.984C43.2709 15.0388 42.9199 15.0662 42.537 15.0662C41.9992 15.0662 41.4978 14.9932 41.0329 14.8471C40.577 14.6919 40.1805 14.4637 39.8432 14.1624C39.5059 13.8612 39.2415 13.4823 39.0501 13.0258C38.8587 12.5694 38.7629 12.0353 38.7629 11.4237C38.7629 10.8212 38.8587 10.3054 39.0501 9.87629C39.2507 9.43809 39.5105 9.08205 39.8295 8.80818C40.1577 8.52517 40.5269 8.31977 40.9371 8.19196C41.3474 8.05502 41.7667 7.98655 42.1952 7.98655C42.6783 7.98655 43.1159 8.05959 43.5079 8.20565C43.909 8.35172 44.2508 8.55256 44.5334 8.80818C44.8251 9.06379 45.0485 9.36962 45.2035 9.72566C45.3584 10.0817 45.4359 10.4697 45.4359 10.8896C45.4359 11.2 45.3493 11.4374 45.1761 11.6017C45.0029 11.766 44.7613 11.871 44.4514 11.9167L41.0465 12.437ZM42.2088 9.68457C41.8624 9.68457 41.5707 9.78956 41.3337 9.99953C41.1058 10.2095 40.969 10.5062 40.9235 10.8896L43.2481 10.5062C43.2389 10.4149 43.2116 10.3236 43.166 10.2323C43.1204 10.1319 43.0566 10.0406 42.9746 9.95845C42.8925 9.87629 42.7877 9.81238 42.6601 9.76674C42.5325 9.71196 42.382 9.68457 42.2088 9.68457Z" fill="#D5DCDF" fill-opacity="0.5"/>
<path fill-rule="evenodd" clip-rule="evenodd" d="M95.1706 4.96987C93.8355 6.27339 92.7431 7.36684 92.7431 7.3996C92.7431 7.43244 93.848 8.53695 95.1985 9.85415L97.654 12.2489L98.2469 11.656L98.8398 11.0631L96.9865 9.23616L95.1333 7.40931L96.9789 5.57587L98.8245 3.74235L98.2558 3.16928C97.943 2.854 97.6671 2.59697 97.6426 2.5979C97.6181 2.59892 96.5058 3.66627 95.1706 4.96987ZM67.3701 6.44758C65.7791 6.8457 65.0497 8.13613 65.6898 9.42057C66.0195 10.0822 66.7188 10.498 68.4048 11.0349C69.1715 11.2791 69.726 11.6259 69.906 11.9739C70.1728 12.4898 69.8828 13.0592 69.2629 13.2371C68.7703 13.3783 67.4269 13.3354 66.8503 13.1601L66.3305 13.002L65.9215 13.4193C65.5431 13.8054 65.5238 13.845 65.6632 13.9484C65.7462 14.0098 66.0881 14.15 66.4232 14.2598C67.2421 14.5281 69.1338 14.5509 69.8513 14.301C70.7616 13.984 71.3069 13.2572 71.3069 12.3609C71.3069 11.1453 70.7497 10.5832 68.9223 9.95547C67.1985 9.36332 66.8044 9.08519 66.8044 8.46121C66.8044 8.11122 66.9962 7.85884 67.3885 7.69284C67.7253 7.55023 68.9318 7.54179 69.5213 7.67781L69.9544 7.77779L70.3509 7.38001C70.8083 6.92127 70.8072 6.91916 69.9454 6.63824C69.4086 6.46329 67.7872 6.34322 67.3701 6.44758ZM72.7719 6.58201C72.7488 6.64212 72.7399 8.42009 72.752 10.5331L72.774 14.3749H73.4073H74.0405L74.0634 12.6651L74.0862 10.9553H74.3902C74.6708 10.9553 74.8327 11.0885 76.4942 12.6862L78.2943 14.4171H79.0798H79.8653L77.8145 12.365L75.7636 10.3129L77.6673 8.47286C78.7144 7.4609 79.5711 6.59856 79.5711 6.55651C79.5711 6.51454 79.2387 6.48068 78.8323 6.48136L78.0935 6.48254L76.3911 8.12786C74.8269 9.63976 74.6644 9.77317 74.3877 9.77317H74.0864L74.0635 8.14778L74.0405 6.52239L73.4272 6.49757C72.9846 6.47967 72.8021 6.50314 72.7719 6.58201ZM80.9221 10.4454V14.434L83.0541 14.3973C84.9699 14.3644 85.2444 14.3416 85.7616 14.1727C86.5689 13.909 87.1104 13.382 87.2568 12.7176C87.4717 11.7418 87.0846 10.8458 86.2786 10.4536L85.8513 10.2457L86.2305 9.98831C86.7453 9.639 86.9592 9.20382 86.9592 8.50663C86.9592 7.82684 86.7628 7.3974 86.2978 7.06059C85.689 6.61958 85.2974 6.55304 83.0118 6.50289L80.9221 6.45696V10.4454ZM101.733 6.58201C101.71 6.64212 101.701 8.42009 101.713 10.5331L101.735 14.3749L104.037 14.3974L106.338 14.4198L106.54 13.9625C106.941 13.0566 107.125 13.1506 104.951 13.1506H103.046L103.024 9.8365L103.002 6.52239L102.389 6.49757C101.946 6.47967 101.764 6.50314 101.733 6.58201ZM109.09 10.3431C108.177 12.4678 107.432 14.244 107.433 14.2905C107.434 14.3393 107.71 14.3749 108.087 14.3749H108.74L109.079 13.5523L109.419 12.7299L111.449 12.7291L113.48 12.7284L113.818 13.5517L114.156 14.3749L114.806 14.3996C115.294 14.4181 115.456 14.397 115.456 14.3151C115.457 14.2551 114.711 12.4678 113.801 10.3431L112.144 6.48018H111.446H110.748L109.09 10.3431ZM116.597 6.57415C116.572 6.63858 116.562 8.42009 116.574 10.5331L116.596 14.3749L118.707 14.3737C121.225 14.3723 121.707 14.2754 122.452 13.6205C122.955 13.1774 123.158 12.0719 122.864 11.3689C122.702 10.9812 122.255 10.545 121.84 10.3686L121.504 10.2257L121.874 10.0206C122.414 9.72209 122.75 9.06425 122.693 8.41612C122.615 7.51561 122.154 6.96965 121.227 6.67725C120.638 6.49132 116.663 6.40283 116.597 6.57415ZM85.0933 7.77998C85.4831 7.94286 85.6505 8.21559 85.6505 8.68783C85.6505 9.17714 85.3664 9.55794 84.9062 9.68578C84.7351 9.73332 84.0535 9.77241 83.3918 9.77267L82.1886 9.77317V8.71772V7.66228H83.5C84.4306 7.66228 84.8933 7.69647 85.0933 7.77998ZM120.847 7.82439C121.65 8.23382 121.504 9.441 120.623 9.68578C120.451 9.73332 119.77 9.77241 119.108 9.77267L117.905 9.77317V8.71772V7.66228H119.217C120.344 7.66228 120.574 7.68516 120.847 7.82439ZM112.279 9.8365L112.989 11.5463H111.441H109.894L110.276 10.6386C110.486 10.1395 110.834 9.30067 111.049 8.77472C111.344 8.05566 111.458 7.85673 111.506 7.97258C111.541 8.05735 111.889 8.89605 112.279 9.8365ZM85.4286 11.0753C85.9502 11.3342 86.1524 12.0816 85.856 12.6548C85.6114 13.1277 85.2088 13.2311 83.6029 13.2332L82.1886 13.235V12.0475V10.8599L83.6451 10.8865C84.877 10.909 85.152 10.938 85.4286 11.0753ZM120.867 10.9673C121.559 11.1746 121.88 11.8928 121.59 12.5859C121.363 13.1281 121.003 13.231 119.319 13.2332L117.905 13.235V12.0529V10.8708H119.225C119.971 10.8708 120.685 10.9128 120.867 10.9673Z" fill="#D5DCDF" fill-opacity="0.5"/>
<path d="M92.7431 7.3996C92.7431 7.36684 93.8355 6.27339 95.1706 4.96987C96.5058 3.66627 97.6181 2.59892 97.6426 2.5979C97.6671 2.59697 97.943 2.854 98.2558 3.16928L98.8245 3.74235L96.9789 5.57587L95.1333 7.40931L96.9865 9.23616L98.8398 11.0631L98.2469 11.656L97.654 12.2489L95.1985 9.85415C93.848 8.53695 92.7431 7.43244 92.7431 7.3996Z" fill="#D5DCDF" fill-opacity="0.5"/>
<path d="M96.7171 13.1983C96.7171 13.2311 95.6247 14.3245 94.2896 15.628C92.9544 16.9316 91.842 17.999 91.8175 18C91.7931 18.0009 91.5171 17.7439 91.2044 17.4286L90.6356 16.8556L92.4813 15.022L94.3269 13.1886L92.4736 11.3617L90.6203 9.5348L91.2132 8.94189L91.8061 8.34899L94.2616 10.7438C95.6122 12.061 96.7171 13.1655 96.7171 13.1983Z" fill="#D5DCDF" fill-opacity="0.5"/>
<path d="M53.1867 10.8628H52.1707V14.7588H51.6107V10.8628H51.0027V10.3908H51.6107V10.0868C51.6107 9.61212 51.7307 9.26279 51.9707 9.03879C52.2161 8.81479 52.6107 8.70279 53.1547 8.70279V9.18279C52.7921 9.18279 52.5361 9.25212 52.3867 9.39079C52.2427 9.52946 52.1707 9.76146 52.1707 10.0868V10.3908H53.1867V10.8628ZM55.9803 14.8228C55.5696 14.8228 55.199 14.7321 54.8683 14.5508C54.543 14.3641 54.2843 14.1028 54.0923 13.7668C53.9056 13.4255 53.8123 13.0281 53.8123 12.5748C53.8123 12.1215 53.9083 11.7268 54.1003 11.3908C54.2923 11.0495 54.5536 10.7881 54.8843 10.6068C55.215 10.4201 55.5856 10.3268 55.9963 10.3268C56.407 10.3268 56.7776 10.4201 57.1083 10.6068C57.4443 10.7881 57.7056 11.0495 57.8923 11.3908C58.0843 11.7268 58.1803 12.1215 58.1803 12.5748C58.1803 13.0228 58.0843 13.4175 57.8923 13.7588C57.7003 14.1001 57.4363 14.3641 57.1003 14.5508C56.7643 14.7321 56.391 14.8228 55.9803 14.8228ZM55.9803 14.3348C56.2683 14.3348 56.535 14.2708 56.7803 14.1428C57.0256 14.0095 57.223 13.8121 57.3723 13.5508C57.527 13.2841 57.6043 12.9588 57.6043 12.5748C57.6043 12.1908 57.5296 11.8681 57.3803 11.6068C57.231 11.3401 57.0336 11.1428 56.7883 11.0148C56.543 10.8815 56.2763 10.8148 55.9883 10.8148C55.7003 10.8148 55.4336 10.8815 55.1883 11.0148C54.943 11.1428 54.7456 11.3401 54.5963 11.6068C54.4523 11.8681 54.3803 12.1908 54.3803 12.5748C54.3803 12.9588 54.4523 13.2841 54.5963 13.5508C54.7456 13.8121 54.9403 14.0095 55.1803 14.1428C55.4256 14.2708 55.6923 14.3348 55.9803 14.3348ZM59.7611 11.1668C59.8838 10.8948 60.0704 10.6841 60.3211 10.5348C60.5771 10.3855 60.8891 10.3108 61.2571 10.3108V10.8948H61.1051C60.6998 10.8948 60.3744 11.0041 60.1291 11.2228C59.8838 11.4415 59.7611 11.8068 59.7611 12.3188V14.7588H59.2011V10.3908H59.7611V11.1668Z" fill="#D5DCDF" fill-opacity="0.5"/>
</svg>
