<svg width="52" height="52" viewBox="0 0 52 52" fill="none" xmlns="http://www.w3.org/2000/svg">
<g filter="url(#filter0_d_1149_445)">
<rect x="6" y="2" width="40" height="40" rx="7" fill="#3BB532"/>
<path d="M16.6334 24.7699C16.4899 24.0891 16.4587 23.0816 16.5567 22.4854L16.0633 22.4044L16.5567 22.4854C16.9919 19.8352 19.1515 17.7922 21.7772 17.5293L21.7772 17.5293C24.1841 17.2883 26.5084 18.5509 27.6231 20.707C28.0829 21.5965 28.255 22.3359 28.2499 23.459C28.2443 24.7085 28.0303 25.5577 27.3274 27.0026L27.3273 27.0026C26.4865 28.7309 25.1511 30.4834 22.9162 32.7485L22.3838 33.2881L21.8515 32.7485C21.3656 32.2561 20.7371 31.5951 20.4575 31.2832L20.4575 31.2832C18.3212 28.8996 17.0331 26.6651 16.6334 24.7699ZM16.6334 24.7699L16.1443 24.8731L16.6334 24.7699ZM21.7274 17.0318L21.7274 17.0318L21.7274 17.0318Z" fill="#D5DCDF" stroke="#D5DCDF"/>
<path d="M23.6334 20.7699C23.4899 20.0891 23.4587 19.0816 23.5567 18.4854L23.0633 18.4044L23.5567 18.4854C23.9919 15.8352 26.1515 13.7922 28.7772 13.5293L28.7772 13.5293C31.1841 13.2883 33.5084 14.5509 34.6231 16.707C35.0829 17.5965 35.255 18.3359 35.2499 19.459C35.2443 20.7085 35.0303 21.5577 34.3274 23.0026L34.3273 23.0026C33.4865 24.7309 32.1511 26.4834 29.9162 28.7485L29.3838 29.2881L28.8515 28.7485C28.3656 28.2561 27.7371 27.5951 27.4575 27.2832L27.4575 27.2832C25.3212 24.8996 24.0331 22.6651 23.6334 20.7699ZM23.6334 20.7699L23.1443 20.8731L23.6334 20.7699ZM28.7274 13.0318L28.7274 13.0318L28.7274 13.0318Z" stroke="#D5DCDF"/>
</g>
<defs>
<filter id="filter0_d_1149_445" x="0" y="0" width="52" height="52" filterUnits="userSpaceOnUse" color-interpolation-filters="sRGB">
<feFlood flood-opacity="0" result="BackgroundImageFix"/>
<feColorMatrix in="SourceAlpha" type="matrix" values="0 0 0 0 0 0 0 0 0 0 0 0 0 0 0 0 0 0 127 0" result="hardAlpha"/>
<feOffset dy="4"/>
<feGaussianBlur stdDeviation="3"/>
<feComposite in2="hardAlpha" operator="out"/>
<feColorMatrix type="matrix" values="0 0 0 0 0 0 0 0 0 0 0 0 0 0 0 0 0 0 0.25 0"/>
<feBlend mode="normal" in2="BackgroundImageFix" result="effect1_dropShadow_1149_445"/>
<feBlend mode="normal" in="SourceGraphic" in2="effect1_dropShadow_1149_445" result="shape"/>
</filter>
</defs>
</svg>
