<svg width="52" height="52" viewBox="0 0 52 52" fill="none" xmlns="http://www.w3.org/2000/svg">
<g filter="url(#filter0_d_1179_1609)">
<rect x="6" y="2" width="40" height="40" rx="7" fill="#C6288B"/>
<path fill-rule="evenodd" clip-rule="evenodd" d="M14.1257 11.1389C14.0102 11.2665 14 12.0149 14 20.3523C14 27.4952 14.0202 29.453 14.0949 29.5503C14.2499 29.7522 20.0401 32.8734 20.2596 32.8734C20.3743 32.8734 21.6313 32.2331 23.2355 31.3575L26.0129 29.8415L29.0441 31.3575C30.7561 32.2137 32.1651 32.8734 32.2818 32.8734C32.4894 32.8734 37.5619 29.8938 37.8575 29.5982C37.9953 29.4604 38 29.1533 38 20.3535C38 11.632 37.9942 11.2462 37.8611 11.1257C37.5668 10.8593 37.3556 10.9537 34.7722 12.507L32.2658 14.0138L29.2472 12.5069C27.4673 11.6184 26.1407 11 26.0144 11C25.8795 11 24.7911 11.5515 23.071 12.4914C21.5699 13.3117 20.307 13.9838 20.2645 13.985C20.222 13.9863 18.9531 13.3152 17.4448 12.4937C15.6275 11.5038 14.6264 11 14.4769 11C14.3529 11 14.1948 11.0625 14.1257 11.1389ZM32.4776 15.0733C32.6602 14.9958 35.0261 13.596 36.8797 12.4687C36.9111 12.4496 36.9367 16.1565 36.9367 20.7062V28.9783L34.5959 30.3823L32.2553 31.7862L29.2312 30.2738C27.568 29.442 26.1178 28.7603 26.0086 28.7589C25.8902 28.7574 24.7071 29.3613 23.0759 30.2557C21.5722 31.0803 20.3076 31.7557 20.2658 31.7565C20.2241 31.7573 19.0367 31.1289 17.6273 30.36L15.0647 28.962L15.064 20.6944C15.0633 12.8517 15.0701 12.4294 15.1962 12.4773C15.2693 12.5051 16.3996 13.1111 17.7081 13.824C19.0165 14.537 20.165 15.1203 20.2602 15.1203C20.3554 15.1203 21.6903 14.435 23.2266 13.5974L26.0197 12.0745L29.1267 13.6257C32.1909 15.1556 32.237 15.1755 32.4776 15.0733ZM20.2658 16.9654C19.4722 17.1046 18.552 17.2205 18.2211 17.2231L17.6194 17.2278L17.1009 17.7464C16.6484 18.1989 16.5823 18.3005 16.5823 18.5439V18.8228H17.111H17.6397L17.7144 19.1076C17.7554 19.2643 17.8742 19.7314 17.9783 20.1457L18.1676 20.8991L18.9475 21.6817L19.7275 22.4643L19.4685 22.9996L19.2096 23.5349L19.7468 24.0839L20.284 24.6329L20.5297 25.8927L20.7753 27.1524L21.27 27.3963C21.5421 27.5305 21.7824 27.6227 21.8039 27.6012C21.8254 27.5796 21.9532 27.0146 22.0878 26.3456C22.3222 25.181 22.3452 25.1155 22.6283 24.8051C22.791 24.6268 23.025 24.2659 23.1483 24.0033L23.3725 23.5257L22.8392 22.9924C22.3084 22.4616 22.3024 22.4583 21.5517 22.2697C21.1369 22.1654 20.6693 22.0465 20.5127 22.0055L20.2278 21.9309V21.4201V20.9093L21.2907 19.8486L22.3535 18.7877L21.8444 18.2747L21.3353 17.7616L21.579 17.5101C21.7642 17.319 21.8228 17.191 21.8228 16.9774C21.8228 16.8227 21.7971 16.6998 21.7658 16.7043C21.7345 16.7088 21.0595 16.8263 20.2658 16.9654ZM22.6211 17.2262L22.3542 17.7562L22.5985 18.2515C22.7328 18.5239 22.8698 18.7468 22.9029 18.7468C22.936 18.7468 23.2868 18.5333 23.6823 18.2722L24.4015 17.7975L24.4032 17.2468L24.4051 16.6962H23.6466H22.888L22.6211 17.2262ZM28.7952 17.4991L27.0715 17.7537L26.2702 18.2693L25.469 18.7848L25.4687 19.5678C25.4684 20.1735 25.4898 20.3381 25.5633 20.2947C25.6155 20.2638 25.9559 20.0397 26.3199 19.7965C26.6838 19.5534 26.9999 19.3544 27.0224 19.3544C27.0449 19.3544 27.062 19.4655 27.0604 19.6013C27.0577 19.8293 26.9773 19.9076 26.0024 20.6308L24.9473 21.4134L24.6865 22.1925L24.4256 22.9716L25.2128 23.4915C25.6458 23.7773 26 24.0172 26 24.0244C26 24.0316 26.1201 24.6325 26.2669 25.3596L26.5337 26.6816L27.0052 27.1572C27.2645 27.4189 27.5031 27.6329 27.5354 27.6329C27.5677 27.6329 27.9362 26.9497 28.354 26.1147L29.1139 24.5964V24.0254V23.4544L28.6038 22.6884C28.133 21.9812 28.0556 21.9027 27.5975 21.6674L27.1013 21.4125L27.597 21.4088L28.0927 21.4051L28.6145 21.9309L29.1363 22.4567L29.9212 21.9302L30.706 21.4035L30.9637 21.9148L31.2214 22.4259L31.4599 21.9535C31.5911 21.6936 31.7246 21.481 31.7567 21.481C31.7886 21.481 32.0178 21.6861 32.2658 21.9367C32.5139 22.1873 32.743 22.3924 32.775 22.3924C32.807 22.3924 32.9396 22.1788 33.0694 21.9177C33.2124 21.6304 33.5128 21.2323 33.8306 20.909L34.3556 20.375L34.0934 19.5965L33.8312 18.818L34.5871 18.3147C35.0029 18.0379 35.3271 17.7955 35.3077 17.7761C35.2699 17.7383 30.825 17.2265 30.6329 17.2378C30.5703 17.2414 29.7433 17.359 28.7952 17.4991ZM33.2722 24.5617L32.3038 25.0518V25.5829V26.1139H32.8146H33.3253L33.8377 26.6224C34.1195 26.9021 34.3635 27.1157 34.3799 27.0971C34.3963 27.0785 34.517 26.7379 34.6484 26.3403L34.887 25.6171L34.6344 24.8638C34.4955 24.4494 34.35 24.1017 34.3111 24.091C34.2723 24.0804 33.8047 24.2922 33.2722 24.5617Z" fill="#D5DCDF"/>
</g>
<defs>
<filter id="filter0_d_1179_1609" x="0" y="0" width="52" height="52" filterUnits="userSpaceOnUse" color-interpolation-filters="sRGB">
<feFlood flood-opacity="0" result="BackgroundImageFix"/>
<feColorMatrix in="SourceAlpha" type="matrix" values="0 0 0 0 0 0 0 0 0 0 0 0 0 0 0 0 0 0 127 0" result="hardAlpha"/>
<feOffset dy="4"/>
<feGaussianBlur stdDeviation="3"/>
<feComposite in2="hardAlpha" operator="out"/>
<feColorMatrix type="matrix" values="0 0 0 0 0 0 0 0 0 0 0 0 0 0 0 0 0 0 0.25 0"/>
<feBlend mode="normal" in2="BackgroundImageFix" result="effect1_dropShadow_1179_1609"/>
<feBlend mode="normal" in="SourceGraphic" in2="effect1_dropShadow_1179_1609" result="shape"/>
</filter>
</defs>
</svg>
