<svg width="7" height="7" viewBox="0 0 7 7" fill="none" xmlns="http://www.w3.org/2000/svg">
<path fill-rule="evenodd" clip-rule="evenodd" d="M6.03312 0.0351336C5.91655 0.0758714 5.78242 0.164717 5.68919 0.262976L5.62325 0.332486L6.14996 0.858502L6.67667 1.38452L6.76465 1.29871C6.81303 1.25154 6.88578 1.15188 6.92631 1.07727C6.99422 0.952255 7 0.925947 7 0.741817C7 0.567921 6.99193 0.525607 6.93776 0.415404C6.8598 0.256894 6.69259 0.103977 6.53127 0.043703C6.38442 -0.0111764 6.17593 -0.0147507 6.03312 0.0351336ZM5.35298 0.621691C5.32964 0.630859 4.18311 1.76554 2.80514 3.14324L0.299729 5.64811L0.138964 6.2534C-0.0919568 7.12284 -0.122989 7.09182 0.747589 6.86123L1.35368 6.70067L3.87118 4.1875C6.15776 1.90483 6.38868 1.66784 6.38868 1.6037C6.38868 1.4816 6.27998 1.41513 6.17306 1.47186C6.13882 1.49004 5.00551 2.60938 3.6546 3.95932L1.19841 6.41378L0.892504 6.10886L0.586602 5.80393L3.064 3.32839C4.76172 1.63194 5.54609 0.833549 5.55625 0.791613C5.58431 0.675882 5.46627 0.577201 5.35298 0.621691Z" fill="#D5DCDF" fill-opacity="0.5"/>
</svg>
