<svg width="50" height="50" viewBox="0 0 50 50" fill="none" xmlns="http://www.w3.org/2000/svg">
<rect width="50" height="50" rx="7" fill="#BB27C5"/>
<path fill-rule="evenodd" clip-rule="evenodd" d="M18.9527 15.8553C18.8532 15.8781 18.5481 15.9406 18.2745 15.994C16.753 16.2915 15.1213 17.5819 14.3979 19.0596C13.4083 21.0811 13.5809 23.251 14.8755 25.0652C15.0948 25.3725 15.4443 25.7777 15.6522 25.9655C15.8602 26.1533 16.0164 26.3191 15.9996 26.334C15.9828 26.3488 15.7858 26.4532 15.5621 26.5658C12.9662 27.8715 11.094 30.6679 10.8898 33.5441L10.8334 34.3399H11.7844H12.7355L12.8379 33.5416C13.2497 30.3304 15.5832 27.9779 18.7783 27.5527C19.8111 27.4153 20.9222 27.5531 21.9747 27.9492C24.3571 28.8457 26.0002 30.9441 26.3293 33.5105L26.4357 34.3399H33.2178H40L39.9502 33.368C39.8105 30.6439 38.1288 28.2318 35.5893 27.1131C35.0756 26.8868 33.8253 26.5681 33.4193 26.5599C33.2305 26.5561 33.3556 26.493 33.8311 26.3522C35.1207 25.9703 36.0252 25.226 36.5913 24.0806C37.4206 22.4024 37.1376 20.4966 35.8601 19.1573C34.215 17.4325 31.553 17.3267 29.7855 18.9159C27.9941 20.5265 27.8535 23.2743 29.4721 25.041C30.0825 25.7072 30.7062 26.0992 31.5556 26.3507C32.0482 26.4965 32.1645 26.5558 31.9645 26.5592C31.4107 26.5689 30.2379 26.9309 29.3957 27.3521C28.6965 27.7019 28.3806 27.9339 27.6966 28.6004L26.8564 29.419L26.4972 28.9534C25.7852 28.0304 24.6419 27.0853 23.6091 26.5658C23.3853 26.4532 23.1884 26.3488 23.1716 26.334C23.1548 26.3191 23.311 26.1533 23.519 25.9655C24.9981 24.6291 25.6972 22.4461 25.2819 20.461C24.9323 18.7901 23.6736 17.1759 22.1624 16.4604C21.7397 16.2602 21.1967 16.0495 20.9557 15.9922C20.4661 15.8758 19.2312 15.7914 18.9527 15.8553ZM21.2916 18.186C22.1033 18.5871 22.6987 19.1972 23.0951 20.034C23.367 20.6079 23.3831 20.7002 23.3831 21.6835C23.3831 22.681 23.3703 22.7512 23.0822 23.3364C22.5203 24.4778 21.4281 25.2835 20.1574 25.4941C18.5427 25.7616 16.8377 24.857 16.0882 23.335C15.8008 22.7515 15.7881 22.6817 15.7881 21.6796C15.7881 20.6522 15.7942 20.621 16.1286 19.944C16.507 19.1777 17.1078 18.5627 17.8406 18.1914C18.4794 17.8677 18.8594 17.7973 19.7916 17.8299C20.5417 17.8561 20.7006 17.8938 21.2916 18.186Z" fill="#D5DFDE"/>
</svg>
