<svg width="50" height="50" viewBox="0 0 50 50" fill="none" xmlns="http://www.w3.org/2000/svg">
<rect width="50" height="50" rx="7" fill="#3BB532"/>
<path fill-rule="evenodd" clip-rule="evenodd" d="M12.8534 10.2022C11.763 10.5941 10.8652 11.4151 10.3443 12.4966C9.94665 13.3222 9.88311 14.7893 10.2078 15.6498C11.3461 18.6663 15.0699 19.51 17.2879 17.2538C19.5101 14.9934 18.6756 11.3336 15.6834 10.2162C14.9268 9.93353 13.6189 9.92718 12.8534 10.2022ZM23.6006 10.1965C22.4689 10.6152 21.6618 11.3647 21.125 12.4955C20.8267 13.1235 20.8012 13.2638 20.8012 14.271C20.8012 15.2347 20.8335 15.4326 21.0739 15.9374C22.0514 17.9899 24.2094 18.9839 26.2867 18.3384C27.487 17.9656 28.4541 17.0931 29.0165 15.8759C29.2148 15.447 29.2528 15.1874 29.2528 14.2656C29.2528 13.2048 29.2392 13.1391 28.8599 12.373C28.4045 11.4533 27.7351 10.789 26.8208 10.3497C26.0184 9.96415 24.4326 9.88864 23.6006 10.1965ZM34.2653 10.2551C33.4359 10.6032 32.8825 11.0121 32.4084 11.6272C31.0961 13.33 31.2316 15.6827 32.7302 17.218C33.3374 17.8401 33.9106 18.1809 34.6911 18.3838C36.7333 18.9147 38.764 17.969 39.6668 16.0666C39.9788 15.4092 40 15.2915 39.9997 14.2189C39.9994 13.1736 39.9736 13.0207 39.7053 12.4746C39.2685 11.5856 38.4918 10.7932 37.6685 10.3966C37.0549 10.1011 36.8526 10.0582 35.9307 10.0281C35.0066 9.998 34.8161 10.0239 34.2653 10.2551ZM15.3768 11.609C15.931 11.8402 16.6326 12.5549 16.8889 13.1496C17.2222 13.9228 17.1503 15.0024 16.7192 15.6982C15.695 17.352 13.4435 17.5751 12.1568 16.1505C11.6156 15.5513 11.4309 15.0784 11.4197 14.2638C11.3972 12.6086 12.8557 11.2424 14.4702 11.4062C14.7757 11.4371 15.1837 11.5285 15.3768 11.609ZM26.2362 11.6609C27.2276 12.098 27.8573 13.0918 27.8573 14.2189C27.8573 15.8652 26.655 17.0809 25.027 17.0809C23.4086 17.0809 22.1967 15.8643 22.1967 14.2391C22.1967 13.882 22.2492 13.4501 22.3134 13.2794C22.9 11.7196 24.6926 10.98 26.2362 11.6609ZM37.1261 11.744C38.4288 12.4073 39.0061 14.0106 38.4351 15.3791C38.3601 15.5589 38.118 15.906 37.8972 16.1505C36.9121 17.2411 35.2376 17.4071 34.0835 16.5284C32.7904 15.544 32.5668 13.6195 33.608 12.4358C34.5611 11.3523 35.8565 11.0975 37.1261 11.744ZM12.9742 20.9156C11.7633 21.3336 10.8949 22.0922 10.3423 23.215C10.0782 23.7515 10.054 23.9012 10.054 24.9984C10.054 26.0989 10.0777 26.2443 10.3457 26.789C10.7949 27.7022 11.4615 28.372 12.3641 28.8173C13.0268 29.1441 13.2757 29.2093 14.0089 29.2478C15.0812 29.3039 15.7918 29.1149 16.6443 28.5465C18.6691 27.197 19.1525 24.4092 17.7009 22.4534C17.1951 21.7722 16.2715 21.1134 15.5025 20.8854C14.7975 20.6764 13.6266 20.6905 12.9742 20.9156ZM23.8271 20.8685C22.597 21.2751 21.6664 22.0818 21.1343 23.2028C20.8255 23.8536 20.8012 23.9846 20.8012 24.9984C20.8012 26.0122 20.8255 26.1433 21.1343 26.7941C21.5656 27.7027 22.3178 28.4535 23.2281 28.884C23.8801 29.1922 24.0113 29.2165 25.027 29.2165C26.0427 29.2165 26.1739 29.1922 26.826 28.884C27.7362 28.4535 28.4884 27.7027 28.9197 26.7941C29.2285 26.1433 29.2528 26.0122 29.2528 24.9984C29.2528 23.9846 29.2285 23.8536 28.9197 23.2028C28.4864 22.2901 27.7356 21.5419 26.826 21.1168C26.2268 20.8367 25.9834 20.7838 25.1835 20.7592C24.6065 20.7416 24.0836 20.7837 23.8271 20.8685ZM34.5742 20.8682C33.204 21.32 32.1124 22.4038 31.7065 23.7158C31.0547 25.8221 32.0399 27.9689 34.1047 28.9419C34.6082 29.1791 34.8138 29.2126 35.7796 29.2144C36.8443 29.2164 36.9068 29.2036 37.6756 28.8243C38.5934 28.3715 39.2564 27.7077 39.7084 26.789C39.9763 26.2443 40 26.0989 40 24.9984C40 23.898 39.9763 23.7526 39.7084 23.2079C39.258 22.2925 38.5929 21.625 37.6844 21.1769C36.9756 20.8272 36.8039 20.7861 35.9448 20.7597C35.3567 20.7417 34.8318 20.7832 34.5742 20.8682ZM15.5984 22.4815C17.2815 23.3471 17.6236 25.7487 16.249 27.0501C15.4524 27.8042 14.0784 28.0538 13.1004 27.622C11.2962 26.8253 10.8387 24.3784 12.2336 22.986C12.4426 22.7773 12.7609 22.5306 12.941 22.4377C13.6633 22.0648 14.8254 22.0841 15.5984 22.4815ZM37.1189 22.4407C38.801 23.309 39.1557 25.678 37.8054 27.0259C36.7357 28.0937 34.9188 28.1046 33.805 27.0501C32.4279 25.7463 32.7725 23.347 34.4616 22.4785C35.2315 22.0826 36.3932 22.0661 37.1189 22.4407ZM26.0061 22.3125C26.5863 22.4828 27.5473 23.442 27.7179 24.0211C27.8795 24.5694 27.8795 25.4274 27.7179 25.9758C27.5473 26.5549 26.5863 27.5141 26.0061 27.6844C25.7699 27.7537 25.3293 27.8105 25.027 27.8105C24.1362 27.8105 23.6806 27.6203 23.0405 26.9813C22.4003 26.3424 22.2098 25.8876 22.2098 24.9984C22.2098 24.1098 22.4004 23.6545 23.0405 23.0144C23.3583 22.6965 23.7827 22.3849 23.9836 22.322C24.4847 22.165 25.488 22.1603 26.0061 22.3125ZM13.0029 31.658C11.7718 32.0509 10.9046 32.8194 10.3438 34.0147C10.082 34.5728 10.054 34.7428 10.0543 35.778C10.0546 36.8329 10.0789 36.9731 10.3604 37.5485C10.7548 38.3548 11.6544 39.2501 12.4539 39.6323C13.3319 40.0519 14.7763 40.1231 15.6612 39.7905C17.3396 39.1595 18.3965 37.7766 18.5302 36.0367C18.7576 33.0792 15.8262 30.7571 13.0029 31.658ZM23.7058 31.6708C22.5914 32.0235 21.6266 32.8991 21.0739 34.0595C20.8333 34.5648 20.8012 34.7618 20.8012 35.7313C20.8012 36.7921 20.8149 36.8578 21.1941 37.6238C21.6477 38.5399 22.3128 39.2017 23.2332 39.6529C23.7789 39.9203 23.9245 39.944 25.027 39.944C26.1295 39.944 26.2751 39.9203 26.8208 39.6529C27.7412 39.2017 28.4063 38.5399 28.8599 37.6238C29.2392 36.8578 29.2528 36.7921 29.2528 35.7313C29.2528 34.8095 29.2148 34.5498 29.0165 34.1209C28.0439 32.016 25.8354 30.9971 23.7058 31.6708ZM34.6456 31.6184C33.9097 31.8161 33.323 32.1716 32.7302 32.7789C30.5338 35.0289 31.3957 38.6638 34.3928 39.7905C34.8933 39.9787 35.1543 40.0089 35.9829 39.9746C36.8355 39.9394 37.0711 39.887 37.6685 39.5998C38.4917 39.2038 39.2683 38.4119 39.7053 37.5223C39.9736 36.9761 39.9994 36.8232 39.9997 35.778C40 34.7053 39.9788 34.5876 39.6668 33.9302C38.7615 32.0226 36.6906 31.0691 34.6456 31.6184ZM15.1381 33.0228C15.6846 33.1742 16.3608 33.7199 16.7192 34.2986C16.9617 34.6899 17.0342 34.9463 17.073 35.5491C17.1345 36.5073 16.8682 37.1923 16.192 37.8144C15.5783 38.3791 15.1016 38.5694 14.2726 38.5808C12.2314 38.6085 10.8281 36.5129 11.6189 34.6177C11.8352 34.0994 12.5123 33.4232 13.0799 33.1589C13.6521 32.8924 14.472 32.8381 15.1381 33.0228ZM26.2269 33.1625C28.0077 34.0043 28.4373 36.3767 27.0582 37.7534C25.9401 38.8695 24.1139 38.8695 22.9958 37.7534C22.4434 37.2019 22.1967 36.5922 22.1967 35.778C22.1967 34.1317 23.399 32.9159 25.027 32.9159C25.5239 32.9159 25.8447 32.9819 26.2269 33.1625ZM36.9741 33.1589C37.5585 33.4312 38.2154 34.0981 38.4623 34.6698C38.5542 34.883 38.6278 35.3524 38.6301 35.7423C38.6426 37.7892 36.5619 39.171 34.6588 38.3797C34.1218 38.1566 33.4182 37.4347 33.1651 36.8473C32.8325 36.0754 32.9037 34.9932 33.3325 34.3052C34.1218 33.0384 35.6696 32.5513 36.9741 33.1589Z" fill="#D5DCDF"/>
</svg>
