<svg width="4" height="12" viewBox="0 0 4 12" fill="none" xmlns="http://www.w3.org/2000/svg">
<path d="M2.02326 12C1.43411 12 0.945736 11.8408 0.55814 11.5225C0.186047 11.1903 0 10.782 0 10.2976C0 9.81315 0.186047 9.41177 0.55814 9.09343C0.945736 8.76125 1.43411 8.59516 2.02326 8.59516C2.5969 8.59516 3.06977 8.76125 3.44186 9.09343C3.81395 9.41177 4 9.81315 4 10.2976C4 10.782 3.81395 11.1903 3.44186 11.5225C3.06977 11.8408 2.5969 12 2.02326 12ZM2.02326 3.40484C1.43411 3.40484 0.945736 3.24568 0.55814 2.92734C0.186047 2.59516 0 2.18685 0 1.70242C0 1.21799 0.186047 0.81661 0.55814 0.49827C0.945736 0.166091 1.43411 0 2.02326 0C2.5969 0 3.06977 0.166091 3.44186 0.49827C3.81395 0.81661 4 1.21799 4 1.70242C4 2.18685 3.81395 2.59516 3.44186 2.92734C3.06977 3.24568 2.5969 3.40484 2.02326 3.40484Z" fill="#D5DCDF" fill-opacity="0.8"/>
</svg>
