<svg width="20" height="14" viewBox="0 0 20 14" fill="none" xmlns="http://www.w3.org/2000/svg">
<path fill-rule="evenodd" clip-rule="evenodd" d="M6.02394 1.0913C5.94339 1.15734 4.78002 2.53095 3.43873 4.1437L1 7.07605L3.50009 10.08C4.87519 11.7321 6.06072 13.1061 6.13462 13.1334C6.27286 13.1841 6.54665 13.0575 6.63682 12.901C6.6648 12.8525 6.68745 12.7044 6.68718 12.572C6.68676 12.3663 6.40612 11.9928 4.75821 10.0042L2.82972 7.67716H10.6443C18.5027 7.78676 18.7183 7.5781 18.8599 7.42957C19.0467 7.23369 19.0467 6.91105 18.8599 6.71517C18.7183 6.56664 18.5027 6.35797 10.6443 6.4735H2.82972L4.75821 4.14643C6.4181 2.14354 6.68697 1.78517 6.68828 1.57388C6.69112 1.11778 6.32017 0.848398 6.02394 1.0913Z" stroke="#766AC8"/>
</svg>
