<svg width="40" height="40" viewBox="0 0 40 40" fill="none" xmlns="http://www.w3.org/2000/svg">
<rect width="40" height="40" rx="7" fill="#3784BE"/>
<path fill-rule="evenodd" clip-rule="evenodd" d="M8.00024 19.7714V28.3428H20.0002H32.0002V19.7714V11.2H20.0002H8.00024V19.7714ZM31.0087 12.7819L30.9886 13.3962L26.1747 17.5604C22.6872 20.5771 21.2549 21.7745 20.977 21.9058C20.6561 22.0573 20.4961 22.087 20.0002 22.087C18.9737 22.087 19.7466 22.6835 11.2213 15.3129L8.98257 13.3774L8.97978 12.7725L8.97699 12.1677H20.0029H31.0287L31.0087 12.7819ZM12.2378 17.4498C13.8585 18.8465 15.1965 20.0103 15.2111 20.0358C15.2312 20.071 10.1596 24.0898 9.14778 24.8405L8.97699 24.9673V19.7997V14.632L9.13397 14.7712C9.22034 14.8476 10.617 16.053 12.2378 17.4498ZM31.0069 22.3989L30.9886 24.9472L29.9072 24.0986C29.3125 23.632 27.9074 22.5312 26.7849 21.6525L24.7441 20.0548L27.8663 17.3594L30.9886 14.6641L31.0069 17.2574C31.0169 18.6837 31.0169 20.9974 31.0069 22.3989ZM16.8607 21.44C18.3426 22.7296 18.8229 23.0002 19.7532 23.0698C20.8509 23.1518 21.4696 22.8708 22.9294 21.6274C23.9414 20.7653 24.0042 20.7236 24.152 20.8153C24.2376 20.8685 25.8181 22.094 27.664 23.5387L31.0202 26.1654L31.0219 26.7702L31.0235 27.3751H20.0002H8.97699L8.97978 26.7702L8.9825 26.1654L12.4507 23.455C14.3582 21.9643 15.9502 20.744 15.9886 20.7431C16.027 20.7424 16.4194 21.0559 16.8607 21.44Z" fill="#D5DCDF" fill-opacity="0.6" stroke="#D5DCDF"/>
</svg>
