<svg width="52" height="52" viewBox="0 0 52 52" fill="none" xmlns="http://www.w3.org/2000/svg">
<path d="M15.2462 40.337L25.9716 29.673L36.4832 40.2845C39.472 43.3017 42.2249 46.0452 44.2529 48.0352C45.2665 49.0298 46.1006 49.8377 46.693 50.3978C46.9887 50.6774 47.2273 50.8981 47.3991 51.0503C47.4841 51.1256 47.5583 51.1891 47.6174 51.2357C47.6459 51.2582 47.6794 51.2835 47.7135 51.3055C47.7211 51.3104 47.7308 51.3165 47.7423 51.3232C47.7557 51.331 47.7714 51.3396 47.7889 51.3479L47.7905 51.3487C47.8091 51.3576 47.8973 51.3999 48.0151 51.3999C48.1564 51.3999 48.2734 51.3458 48.3222 51.3223C48.3888 51.2902 48.4557 51.2496 48.5183 51.208C48.6447 51.1241 48.7921 51.0104 48.9484 50.88C49.263 50.6177 49.645 50.2616 50.0222 49.8734C50.0222 49.8734 50.0222 49.8734 50.0222 49.8733L51.3585 48.4988C51.5484 48.3034 51.547 47.992 51.3553 47.7985L40.3658 36.6982L40.0105 37.0499L40.3658 36.6982L29.7242 25.9499L40.3658 15.2017L40.0105 14.85L40.3658 15.2017L51.3553 4.10144C51.547 3.90786 51.5484 3.59647 51.3585 3.40115L50.0222 2.02656C49.645 1.63832 49.263 1.28224 48.9484 1.01985C48.7921 0.889498 48.6447 0.775808 48.5183 0.691874C48.4557 0.650331 48.3888 0.609727 48.3222 0.577645C48.2734 0.554139 48.1564 0.5 48.0151 0.5C47.8973 0.5 47.8091 0.542309 47.7905 0.551223L47.7889 0.551988C47.7564 0.567424 47.7299 0.583769 47.7135 0.594386C47.6794 0.616403 47.6459 0.641734 47.6174 0.664201C47.5583 0.71078 47.4841 0.774249 47.3991 0.849571C47.2273 1.00176 46.9887 1.22254 46.693 1.50206C46.1006 2.06216 45.2665 2.87008 44.2529 3.86474C42.2249 5.85466 39.472 8.59823 36.4832 11.6155L25.9716 22.2269L15.2966 11.6128C15.2966 11.6128 15.2966 11.6128 15.2966 11.6128C12.263 8.59629 9.49178 5.85382 7.4707 3.86522C6.46027 2.87104 5.63672 2.06467 5.06144 1.50652C4.77403 1.22768 4.54732 1.00956 4.38984 0.860599C4.31154 0.786527 4.24792 0.727259 4.20163 0.685529C4.17922 0.66532 4.15643 0.64521 4.13623 0.62855C4.12713 0.621052 4.11113 0.608071 4.09227 0.594788C4.08372 0.588769 4.06467 0.575617 4.03951 0.561899C4.02703 0.555097 4.00431 0.543324 3.97455 0.532146C3.9523 0.52379 3.88622 0.5 3.79778 0.5C3.70716 0.5 3.6385 0.524508 3.61247 0.534395C3.57927 0.547009 3.55281 0.560797 3.53624 0.569999C3.50293 0.588494 3.47412 0.608417 3.45421 0.622807C3.4126 0.652875 3.36708 0.690089 3.32245 0.728183C3.23113 0.806135 3.11333 0.913819 2.97927 1.0407C2.70971 1.29584 2.35754 1.64467 1.98659 2.02646C1.98656 2.0265 1.98653 2.02653 1.9865 2.02656L0.650224 3.40115C0.460341 3.59647 0.461761 3.90786 0.653417 4.10144L11.643 15.2017L11.643 15.2017L22.2845 25.95L11.6387 36.7027L0.644683 47.8073C0.451739 48.0022 0.451777 48.3161 0.64477 48.5109L2.05157 49.9312L2.05165 49.9312L3.45815 51.3518C3.55158 51.4462 3.67871 51.4995 3.8115 51.5C3.94429 51.5005 4.07184 51.4482 4.166 51.3546L15.2462 40.337Z" fill="#B77FFF" stroke="#B77FFF" stroke-linejoin="round"/>
</svg>
