<svg width="28" height="30" viewBox="0 0 28 30" fill="none" xmlns="http://www.w3.org/2000/svg">
<path fill-rule="evenodd" clip-rule="evenodd" d="M9.26346 0.135729C8.36516 0.457504 7.6874 1.11048 7.34276 1.98626C7.19928 2.3508 7.18636 2.98571 7.16254 10.8366L7.13688 19.2941L6.19582 18.3668C4.96492 17.1539 4.40637 16.8655 3.30272 16.8736C2.32029 16.8809 1.72762 17.1105 1.03397 17.7527C0.3604 18.3763 0.0710902 18.9753 0.00947555 19.8738C-0.0420155 20.6258 0.116559 21.3234 0.480051 21.9437C0.755746 22.4141 5.2832 26.9144 6.09571 27.5255C7.26823 28.4076 8.42852 29.004 9.87044 29.466C11.4435 29.9699 11.826 30.0003 16.5682 30C20.5824 29.9996 20.9396 29.9873 21.6141 29.8256C24.5964 29.1107 27.0083 26.524 27.4725 23.5427C27.547 23.0646 27.5672 20.2528 27.5477 13.1136L27.521 3.33899L27.3196 2.9344C27.0112 2.31432 26.5853 1.87272 25.9785 1.54379C25.459 1.26216 25.3774 1.24453 24.5973 1.24584C23.8957 1.24698 23.7011 1.28005 23.3319 1.46123C22.7735 1.73509 22.1618 2.34583 21.8881 2.90263C21.6757 3.33498 21.6734 3.36509 21.6484 6.15966C21.6345 7.71102 21.5952 8.96592 21.5611 8.9482C20.6641 8.48347 20.4299 8.41234 19.798 8.41295C18.9993 8.41374 18.2518 8.7123 17.7422 9.23428L17.4108 9.57351L17.0266 9.21936C16.429 8.66849 15.7849 8.41234 14.9973 8.41234C14.3595 8.41234 14.1778 8.4675 13.23 8.94933C13.1941 8.96766 13.1646 7.50811 13.1646 5.70592C13.1646 2.56384 13.1568 2.40849 12.9764 1.92631C12.7409 1.29698 12.0854 0.585272 11.459 0.278769C10.8302 -0.0288676 9.8934 -0.0898714 9.26346 0.135729ZM10.8752 1.33591C11.2615 1.49727 11.558 1.76075 11.7547 2.11717C11.8847 2.35298 11.9035 3.0948 11.9427 9.57901L11.9864 16.779L12.187 17.2754C12.4371 17.8945 13.0546 18.5565 13.6882 18.8849C14.1113 19.1042 14.2613 19.1339 14.9537 19.1346C15.6213 19.1353 15.8111 19.1012 16.2191 18.9071C16.4831 18.7815 16.8523 18.5224 17.0396 18.3312L17.3799 17.9835L17.7248 18.3284C17.9145 18.518 18.2915 18.7772 18.5626 18.9043C18.9746 19.0974 19.1772 19.1354 19.7973 19.1354C20.4174 19.1354 20.62 19.0974 21.032 18.9043C21.6326 18.6228 22.1538 18.1173 22.478 17.502L22.7209 17.0408L22.7646 10.3645C22.8038 4.36489 22.8229 3.66138 22.9528 3.42443C23.1568 3.05274 23.5452 2.68052 23.8745 2.54132C24.2339 2.38947 24.9586 2.38885 25.3201 2.54019C25.7766 2.73131 26.2245 3.29824 26.3406 3.83191C26.4156 4.17647 26.4338 6.78366 26.4101 13.7681C26.3739 24.4263 26.4222 23.6637 25.6893 25.1572C25.04 26.4805 24.0419 27.48 22.7209 28.1303C21.3016 28.8291 21.3585 28.8227 16.5682 28.8227C13.5036 28.8227 12.1736 28.792 11.7487 28.7114C9.86049 28.3535 8.27963 27.6606 6.75 26.5206C5.85013 25.8499 1.74603 21.7227 1.4987 21.2398C1.07586 20.4139 1.14202 19.4236 1.66208 18.7926C2.23319 18.0998 3.33754 17.84 4.13181 18.2117C4.3287 18.3038 5.15517 19.026 6.02721 19.868C6.92254 20.7324 7.64315 21.3609 7.73906 21.3609C7.83009 21.3609 8.00813 21.2794 8.13458 21.1799L8.36455 20.9991L8.36507 11.9072C8.36533 5.83212 8.39588 2.706 8.45706 2.48573C8.56912 2.08218 8.98218 1.59703 9.4031 1.37457C9.78832 1.17096 10.4396 1.15385 10.8752 1.33591ZM15.8382 9.81299C16.2586 10.0302 16.6526 10.5761 16.7489 11.0752C16.8537 11.6173 16.8474 15.9219 16.741 16.4826C16.6378 17.0266 16.3176 17.4714 15.8181 17.7643C15.3501 18.0387 14.4673 18.0077 14.0198 17.7011C13.6608 17.455 13.3673 17.0507 13.2495 16.6398C13.1261 16.2095 13.1403 11.411 13.2665 10.9098C13.3873 10.4299 13.958 9.80862 14.4017 9.6737C14.814 9.54846 15.4443 9.60955 15.8382 9.81299ZM20.3298 9.67832C20.7784 9.82861 21.1733 10.1588 21.3907 10.5659C21.578 10.9166 21.5873 11.0369 21.6149 13.4811C21.6484 16.4292 21.5979 16.839 21.14 17.3459C20.7031 17.8295 20.3225 17.9832 19.6654 17.9413C18.8561 17.8898 18.2733 17.4205 18.0495 16.6398C17.9261 16.2095 17.9403 11.411 18.0665 10.9098C18.1365 10.6318 18.2847 10.3889 18.54 10.1335C19.0534 9.6202 19.68 9.46084 20.3298 9.67832Z" fill="#D5DCDF"/>
</svg>
