<svg width="54" height="54" viewBox="0 0 54 54" fill="none" xmlns="http://www.w3.org/2000/svg">
<path fill-rule="evenodd" clip-rule="evenodd" d="M23.1605 1.19235C17.2885 2.15199 12.6869 4.49259 8.56586 8.61567C4.7925 12.3909 2.52577 16.5811 1.37443 21.9091C1.05361 23.3935 1 24.1267 1 27.025C1 29.9232 1.05361 30.6564 1.37443 32.1409C2.52577 37.4688 4.7925 41.6591 8.56586 45.4343C12.3255 49.1958 16.568 51.4928 21.8528 52.628C23.3312 52.9455 24.0796 53 26.9662 53C29.8554 53 30.5997 52.9459 32.0796 52.6274C37.3931 51.4837 41.5919 49.2108 45.3666 45.4343C50.1807 40.6177 52.7152 34.8376 52.9773 28.0772C53.2151 21.9404 51.5894 16.6049 47.9178 11.4728C47.5112 10.9045 46.3236 9.58208 45.2786 8.53398C41.6158 4.86028 37.3431 2.55053 32.1621 1.44303C30.0093 0.982926 25.2526 0.850407 23.1605 1.19235ZM25.8116 14.5653V25.8698H21.8559H17.9003L17.8309 25.4984C17.7928 25.2941 17.674 24.533 17.5673 23.8069C17.1857 21.214 15.9409 18.2038 14.2723 15.8388C13.3179 14.4861 11.4073 12.5097 10.2508 11.6789C9.82772 11.375 9.48166 11.0365 9.48166 10.9269C9.48166 10.4754 12.999 7.61213 15.0101 6.42673C17.8766 4.737 22.3623 3.326 25.0281 3.27567L25.8116 3.26082V14.5653ZM30.9372 3.52156C34.0329 4.04058 37.6146 5.47765 40.2338 7.25154C41.5524 8.14468 43.9231 10.1536 44.2532 10.6576C44.4969 11.0297 44.4928 11.073 44.1941 11.2877C42.3558 12.6092 40.5451 14.4983 39.1826 16.5163C37.8685 18.4626 36.5273 22.0017 36.2939 24.1386C36.2345 24.6824 36.1514 25.2941 36.109 25.4984L36.0321 25.8698H32.0765H28.1208V14.5653V3.26082H28.7516C29.0985 3.26082 30.0819 3.37815 30.9372 3.52156ZM8.95811 13.5604C12.5344 16.342 14.9403 20.5468 15.5057 25.0034L15.6158 25.8698H9.41469H3.21361V25.2387C3.21361 23.3206 4.21072 19.5066 5.36734 17.0008C5.97584 15.6825 7.72347 12.8325 7.92355 12.8325C7.97782 12.8325 8.44331 13.1601 8.95811 13.5604ZM47.0225 14.2366C48.1685 15.9958 49.0654 17.9268 49.7131 20.0299C50.2522 21.7802 50.7188 24.1934 50.7188 25.2313V25.8698H44.5177H38.3167L38.4267 25.0034C38.8788 21.4397 40.4616 18.0717 42.908 15.4667C43.8484 14.4656 45.7896 12.8325 46.0395 12.8325C46.077 12.8325 46.5194 13.4644 47.0225 14.2366ZM15.5057 29.0466C15.0474 32.6595 13.3649 36.1634 10.8235 38.798C9.94368 39.7101 8.13683 41.2174 7.92355 41.2174C7.72347 41.2174 5.97584 38.3674 5.36734 37.0491C4.21072 34.5433 3.21361 30.7294 3.21361 28.8112V28.1802H9.41469H15.6158L15.5057 29.0466ZM25.8116 39.5074V50.8347L24.5332 50.7221C19.8124 50.3067 14.9296 48.1315 11.0244 44.704C9.5257 43.3886 9.31737 43.0651 9.76141 42.7431C13.9089 39.736 16.8677 34.9978 17.5673 30.243C17.674 29.5169 17.7928 28.7558 17.8309 28.5515L17.9003 28.1802H21.8559H25.8116V39.5074ZM36.1016 28.5515C36.1397 28.7558 36.2584 29.5169 36.3651 30.243C37.0644 34.9955 40.0631 39.7944 44.1831 42.754C44.6314 43.0762 44.3904 43.4219 42.7142 44.8621C38.7356 48.2803 34.1759 50.2856 29.3964 50.719L28.1208 50.8347V39.5074V28.1802H32.0765H36.0321L36.1016 28.5515ZM50.6487 29.4563C50.3274 33.0046 49.0114 36.7605 47.017 39.8216L46.0968 41.2341L45.5808 40.9369C44.7591 40.4638 42.5479 38.3139 41.6516 37.1168C40.0569 34.9871 38.7726 31.7732 38.4267 29.0466L38.3167 28.1802H44.5405H50.7643L50.6487 29.4563Z" fill="#D5DCDF" stroke="#D5DCDF"/>
</svg>
