<svg width="59" height="37" viewBox="0 0 59 37" fill="none" xmlns="http://www.w3.org/2000/svg">
<path fill-rule="evenodd" clip-rule="evenodd" d="M16.4242 0.0439816C16.223 0.0895351 15.6057 0.214447 15.0524 0.32128C11.9746 0.916007 8.67381 3.49593 7.21062 6.45022C5.20879 10.4918 5.55794 14.8301 8.17669 18.4572C8.62022 19.0716 9.32731 19.8816 9.7478 20.2571C10.1685 20.6325 10.4845 20.9641 10.4505 20.9939C10.4165 21.0235 10.0181 21.2322 9.56545 21.4572C4.31441 24.0679 0.527116 29.6585 0.114129 35.4089L0 37H1.92373H3.84765L4.05488 35.404C4.8878 28.9838 9.60825 24.2804 16.0715 23.4305C18.1606 23.1557 20.4083 23.4312 22.5374 24.2231C27.3566 26.0155 30.6803 30.2107 31.346 35.3416L31.5613 37H45.2805H59L58.8992 35.0567C58.6166 29.6106 55.2147 24.788 50.0776 22.5516C49.0386 22.0991 46.5094 21.4619 45.688 21.4455C45.3062 21.4379 45.5593 21.3117 46.5211 21.0302C49.1298 20.2667 50.9594 18.7786 52.1045 16.4886C53.7821 13.1336 53.2096 9.32316 50.6256 6.64563C47.2977 3.1973 41.9128 2.9858 38.3375 6.16298C34.7137 9.383 34.4293 14.8767 37.7036 18.4087C38.9381 19.7406 40.1998 20.5244 41.9181 21.0272C42.9146 21.3187 43.1498 21.4373 42.7452 21.4442C41.6249 21.4635 39.2526 22.1871 37.549 23.0293C36.1345 23.7287 35.4956 24.1926 34.112 25.525L32.4123 27.1617L31.6856 26.2308C30.2453 24.3855 27.9327 22.4959 25.8435 21.4572C25.3908 21.2322 24.9924 21.0235 24.9584 20.9939C24.9244 20.9641 25.2405 20.6325 25.6611 20.2571C28.6532 17.5853 30.0674 13.2209 29.2273 9.25212C28.52 5.91153 25.9739 2.68428 22.9171 1.25368C22.062 0.853461 20.9635 0.432271 20.4759 0.317664C19.4857 0.0850159 16.9877 -0.0838213 16.4242 0.0439816ZM21.1556 4.70364C22.7975 5.5057 24.0019 6.72535 24.8037 8.39835C25.3537 9.54569 25.3862 9.73025 25.3862 11.6963C25.3862 13.6905 25.3604 13.8308 24.7777 15.0007C23.641 17.2827 21.4316 18.8936 18.8611 19.3146C15.5949 19.8495 12.146 18.0409 10.6297 14.998C10.0483 13.8313 10.0227 13.6918 10.0227 11.6883C10.0227 9.63426 10.0351 9.5719 10.7115 8.21849C11.4769 6.68648 12.6923 5.4569 14.1747 4.71448C15.4669 4.06733 16.2354 3.92652 18.1213 3.99177C19.6386 4.0442 19.96 4.11958 21.1556 4.70364Z" fill="#D5DFDE"/>
</svg>
