<svg width="42" height="45" viewBox="0 0 42 45" fill="none" xmlns="http://www.w3.org/2000/svg">
<path fill-rule="evenodd" clip-rule="evenodd" d="M14.1198 0.203594C12.7505 0.686257 11.7175 1.66572 11.1921 2.9794C10.9735 3.5262 10.9538 4.47857 10.9174 16.2549L10.8783 28.9412L9.44393 27.5502C7.56774 25.7308 6.71638 25.2983 5.03415 25.3104C3.53668 25.3213 2.63331 25.6657 1.57603 26.6291C0.549337 27.5644 0.108359 28.463 0.014443 29.8107C-0.0640418 30.9386 0.177665 31.9851 0.731715 32.9155C1.15194 33.6211 8.05289 40.3716 9.29135 41.2883C11.0785 42.6114 12.8471 43.5061 15.045 44.199C17.4427 44.9548 18.0256 45.0005 25.254 45C31.3726 44.9995 31.9171 44.981 32.9452 44.7384C37.4909 43.666 41.1672 39.786 41.8748 35.314C41.9883 34.5969 42.0191 30.3793 41.9893 19.6703L41.9486 5.00849L41.6417 4.4016C41.1716 3.47148 40.5225 2.80908 39.5975 2.31569C38.8058 1.89324 38.6813 1.8668 37.4923 1.86876C36.4229 1.87046 36.1262 1.92008 35.5634 2.19185C34.7123 2.60264 33.7799 3.51874 33.3628 4.35394C33.039 5.00247 33.0355 5.04763 32.9974 9.23948C32.9762 11.5665 32.9163 13.4489 32.8643 13.4223C31.4971 12.7252 31.1401 12.6185 30.177 12.6194C28.9595 12.6206 27.8202 13.0685 27.0434 13.8514L26.5383 14.3603L25.9527 13.829C25.0418 13.0027 24.0601 12.6185 22.8595 12.6185C21.8874 12.6185 21.6104 12.7013 20.1658 13.424C20.1109 13.4515 20.066 11.2622 20.066 8.55888C20.066 3.84575 20.0541 3.61274 19.7792 2.88946C19.4203 1.94547 18.4211 0.877908 17.4663 0.418154C16.5078 -0.0433015 15.0799 -0.134807 14.1198 0.203594ZM16.5765 2.00386C17.1652 2.24591 17.6173 2.64113 17.917 3.17576C18.1152 3.52948 18.1438 4.64221 18.2036 14.3685L18.2701 25.1685L18.576 25.9132C18.9572 26.8418 19.8984 27.8348 20.8641 28.3274C21.509 28.6564 21.7377 28.7009 22.793 28.7019C23.8106 28.703 24.1 28.6518 24.7219 28.3606C25.1243 28.1723 25.687 27.7836 25.9724 27.4968L26.4912 26.9752L27.017 27.4926C27.306 27.777 27.8807 28.1658 28.2939 28.3564C28.9219 28.6461 29.2308 28.7031 30.1759 28.7031C31.121 28.7031 31.4299 28.6461 32.0579 28.3564C32.9733 27.9341 33.7677 27.1759 34.2619 26.253L34.6322 25.5613L34.6988 15.5467C34.7585 6.54733 34.7876 5.49207 34.9857 5.13665C35.2966 4.57911 35.8887 4.02078 36.3906 3.81198C36.9384 3.5842 38.043 3.58328 38.594 3.81028C39.2899 4.09697 39.9725 4.94736 40.1495 5.74787C40.2637 6.2647 40.2915 10.1755 40.2555 20.6522C40.2003 36.6395 40.2738 35.4956 39.1567 37.7358C38.167 39.7207 36.6457 41.22 34.6322 42.1955C32.4689 43.2436 32.5556 43.234 25.254 43.234C20.5828 43.234 18.5555 43.188 17.9079 43.0671C15.0298 42.5303 12.6202 41.491 10.2886 39.7809C8.91702 38.7749 2.66138 32.584 2.28438 31.8597C1.63988 30.6208 1.74071 29.1354 2.53341 28.1889C3.40392 27.1497 5.08722 26.76 6.29789 27.3175C6.59799 27.4557 7.85774 28.5391 9.18693 29.8019C10.5516 31.0986 11.65 32.0413 11.7962 32.0413C11.935 32.0413 12.2063 31.9191 12.3991 31.7699L12.7496 31.4987L12.7504 17.8608C12.7508 8.74818 12.7974 4.05901 12.8906 3.72859C13.0614 3.12327 13.691 2.39554 14.3326 2.06185C14.9198 1.75644 15.9124 1.73078 16.5765 2.00386ZM24.1412 14.7195C24.7821 15.0453 25.3826 15.8642 25.5295 16.6128C25.6891 17.4259 25.6795 23.8829 25.5174 24.724C25.3601 25.5399 24.8719 26.2072 24.1106 26.6465C23.3973 27.0581 22.0517 27.0115 21.3696 26.5516C20.8224 26.1826 20.375 25.5761 20.1954 24.9597C20.0073 24.3142 20.029 17.1164 20.2214 16.3647C20.4055 15.6449 21.2753 14.7129 21.9517 14.5105C22.5802 14.3227 23.5409 14.4143 24.1412 14.7195ZM30.9875 14.5175C31.6714 14.7429 32.2733 15.2383 32.6047 15.8488C32.8901 16.375 32.9042 16.5554 32.9464 20.2216C32.9974 24.6439 32.9205 25.2585 32.2225 26.0188C31.5566 26.7443 30.9764 26.9748 29.9749 26.912C28.7412 26.8348 27.853 26.1307 27.5118 24.9597C27.3237 24.3142 27.3454 17.1164 27.5377 16.3647C27.6444 15.9477 27.8703 15.5834 28.2594 15.2003C29.042 14.4303 29.9971 14.1913 30.9875 14.5175Z" fill="#D5DCDF"/>
</svg>
