<svg width="53" height="53" viewBox="0 0 53 53" fill="none" xmlns="http://www.w3.org/2000/svg">
<path fill-rule="evenodd" clip-rule="evenodd" d="M5.041 0.357287C3.11468 1.04949 1.52847 2.49995 0.608258 4.41059C-0.0942479 5.86915 -0.206509 8.46114 0.367146 9.98133C2.37807 15.3105 8.95686 16.8011 12.8753 12.8151C16.8011 8.82159 15.327 2.35606 10.0408 0.381943C8.70395 -0.11743 6.39347 -0.128654 5.041 0.357287ZM24.0277 0.347167C22.0283 1.08684 20.6025 2.41089 19.6541 4.40875C19.1273 5.51826 19.0821 5.76611 19.0821 7.54538C19.0821 9.24792 19.1392 9.59751 19.5639 10.4894C21.2908 14.1154 25.1033 15.8715 28.7732 14.7313C30.8936 14.0725 32.6022 12.5312 33.5958 10.3808C33.9461 9.62309 34.0133 9.16438 34.0133 7.53581C34.0133 5.66178 33.9892 5.54568 33.3191 4.19237C32.5147 2.56748 31.332 1.39393 29.7168 0.617829C28.2991 -0.063334 25.4976 -0.196733 24.0277 0.347167ZM42.8687 0.450758C41.4034 1.06568 40.4257 1.78806 39.5882 2.87476C37.2698 5.88295 37.5091 10.0395 40.1567 12.7518C41.2294 13.8508 42.2421 14.4529 43.621 14.8113C47.2288 15.7493 50.8164 14.0786 52.4114 10.7177C52.9626 9.5563 53 9.34838 52.9994 7.45338C52.9989 5.60677 52.9534 5.33666 52.4794 4.37177C51.7076 2.80116 50.3356 1.40129 48.881 0.700628C47.7969 0.178624 47.4397 0.102816 45.8109 0.0496409C44.1784 -0.00353474 43.8418 0.042281 42.8687 0.450758ZM9.49899 2.84256C10.4782 3.25103 11.7177 4.51363 12.1704 5.56426C12.7592 6.93027 12.6322 8.8376 11.8707 10.0669C10.0612 12.9886 6.0836 13.3827 3.81037 10.8658C2.85421 9.80727 2.52794 8.97192 2.50821 7.53268C2.4684 4.60857 5.04505 2.19488 7.89729 2.48431C8.43703 2.53896 9.15778 2.70033 9.49899 2.84256ZM28.684 2.93419C30.4354 3.70643 31.5478 5.46214 31.5478 7.45338C31.5478 10.3618 29.4239 12.5097 26.5477 12.5097C23.6885 12.5097 21.5476 10.3602 21.5476 7.48907C21.5476 6.85814 21.6403 6.0951 21.7537 5.79353C22.79 3.03796 25.9569 1.73139 28.684 2.93419ZM47.9228 3.08102C50.2243 4.2529 51.2442 7.08538 50.2353 9.50312C50.1028 9.8207 49.6751 10.434 49.2851 10.8658C47.5447 12.7926 44.5865 13.0859 42.5476 11.5335C40.2631 9.79439 39.8681 6.39446 41.7075 4.30332C43.3913 2.389 45.6798 1.93894 47.9228 3.08102ZM5.25446 19.2843C3.11523 20.0227 1.581 21.3629 0.604756 23.3464C0.138201 24.2944 0.0954344 24.5588 0.0954344 26.4972C0.0954344 28.4414 0.137279 28.6982 0.610655 29.6605C1.40441 31.2738 2.58195 32.4571 4.17664 33.2439C5.34736 33.8213 5.78701 33.9365 7.08234 34.0044C8.97677 34.1036 10.2321 33.7696 11.7383 32.7655C15.3154 30.3814 16.1694 25.4562 13.6049 22.001C12.7114 20.7975 11.0797 19.6337 9.72112 19.2309C8.47555 18.8617 6.40693 18.8865 5.25446 19.2843ZM24.4278 19.201C22.2547 19.9193 20.6106 21.3445 19.6707 23.3249C19.125 24.4747 19.0821 24.7062 19.0821 26.4972C19.0821 28.2883 19.125 28.5197 19.6707 29.6696C20.4325 31.2748 21.7614 32.6012 23.3696 33.3617C24.5215 33.9063 24.7534 33.9492 26.5477 33.9492C28.342 33.9492 28.5739 33.9063 29.7259 33.3617C31.334 32.6012 32.6629 31.2748 33.4248 29.6696C33.9704 28.5197 34.0133 28.2883 34.0133 26.4972C34.0133 24.7062 33.9704 24.4747 33.4248 23.3249C32.6594 21.7125 31.3329 20.3907 29.7259 19.6396C28.6674 19.1448 28.2373 19.0514 26.8242 19.0079C25.8048 18.9768 24.8809 19.0512 24.4278 19.201ZM43.4145 19.2004C40.9938 19.9986 39.0653 21.9135 38.3482 24.2313C37.1967 27.9523 38.9372 31.7451 42.585 33.464C43.4744 33.8831 43.8377 33.9422 45.544 33.9455C47.4249 33.949 47.5353 33.9264 48.8935 33.2562C50.515 32.4564 51.6862 31.2836 52.4848 29.6605C52.9582 28.6982 53 28.4414 53 26.4972C53 24.5531 52.9582 24.2962 52.4848 23.3339C51.6892 21.7168 50.514 20.5375 48.909 19.7458C47.6568 19.1281 47.3536 19.0554 45.8358 19.0089C44.7968 18.977 43.8694 19.0503 43.4145 19.2004ZM9.89052 22.0507C12.8641 23.5799 13.4683 27.8228 11.0399 30.1218C9.63263 31.4542 7.20511 31.895 5.47732 31.1322C2.28996 29.7248 1.48164 25.4019 3.94604 22.942C4.31526 22.5733 4.87768 22.1374 5.19584 21.9733C6.47182 21.3145 8.52496 21.3486 9.89052 22.0507ZM47.9101 21.9786C50.8818 23.5126 51.5084 27.6978 49.1229 30.0791C47.233 31.9655 44.0232 31.9848 42.0556 30.1218C39.6227 27.8185 40.2314 23.5797 43.2154 22.0454C44.5756 21.346 46.628 21.3168 47.9101 21.9786ZM28.2775 21.7521C29.3024 22.0529 31.0002 23.7476 31.3016 24.7706C31.5871 25.7393 31.5871 27.2551 31.3016 28.2239C31.0002 29.2469 29.3024 30.9415 28.2775 31.2424C27.8602 31.3649 27.0817 31.4652 26.5477 31.4652C24.974 31.4652 24.169 31.1292 23.0381 30.0004C21.9072 28.8716 21.5706 28.068 21.5706 26.4972C21.5706 24.9274 21.9074 24.1229 23.0381 22.9921C23.5996 22.4305 24.3495 21.88 24.7044 21.7688C25.5897 21.4916 27.3621 21.4833 28.2775 21.7521ZM5.30515 38.2625C3.13017 38.9565 1.59815 40.3142 0.607337 42.426C0.144837 43.4119 0.0954344 43.7123 0.0959874 45.5411C0.0965404 47.4048 0.139307 47.6525 0.636646 48.6691C1.33344 50.0934 2.92279 51.6752 4.33517 52.3503C5.88636 53.0917 8.43813 53.2175 10.0015 52.6298C12.9665 51.5152 14.8339 49.072 15.07 45.9981C15.4717 40.7733 10.2929 36.6709 5.30515 38.2625ZM24.2136 38.2851C22.2447 38.9081 20.5404 40.455 19.5639 42.5051C19.1389 43.3979 19.0821 43.7458 19.0821 45.4587C19.0821 47.3327 19.1062 47.4488 19.7763 48.8021C20.5776 50.4205 21.7526 51.5897 23.3786 52.3867C24.3427 52.8593 24.6 52.901 26.5477 52.901C28.4954 52.901 28.7527 52.8593 29.7168 52.3867C31.3429 51.5897 32.5178 50.4205 33.3191 48.8021C33.9892 47.4488 34.0133 47.3327 34.0133 45.4587C34.0133 43.8301 33.9461 43.3714 33.5958 42.6137C31.8776 38.8949 27.976 37.0948 24.2136 38.2851ZM43.5406 38.1926C42.2405 38.5418 41.2039 39.1698 40.1567 40.2427C36.2764 44.2178 37.7991 50.6393 43.0939 52.6298C43.9782 52.9623 44.4392 53.0157 45.903 52.9551C47.4094 52.8929 47.8257 52.8004 48.881 52.2929C50.3354 51.5934 51.7072 50.1944 52.4794 48.6227C52.9534 47.6578 52.9989 47.3877 52.9994 45.5411C53 43.6461 52.9626 43.4382 52.4114 42.2768C50.8119 38.9067 47.1534 37.2221 43.5406 38.1926ZM9.07723 40.6736C10.0428 40.9411 11.2375 41.9051 11.8707 42.9276C12.2991 43.6189 12.4272 44.0719 12.4956 45.1367C12.6043 46.8296 12.1339 48.0398 10.9392 49.1388C9.85494 50.1365 9.01289 50.4726 7.54834 50.4927C3.94217 50.5416 1.46303 46.8394 2.86011 43.4913C3.24224 42.5756 4.4384 41.3811 5.44119 40.9141C6.45209 40.4432 7.90061 40.3474 9.07723 40.6736ZM28.6676 40.9203C31.8137 42.4076 32.5726 46.5989 30.1362 49.031C28.1608 51.0027 24.9346 51.0027 22.9592 49.031C21.9834 48.0567 21.5476 46.9796 21.5476 45.5411C21.5476 42.6326 23.6715 40.4848 26.5477 40.4848C27.4255 40.4848 27.9924 40.6013 28.6676 40.9203ZM47.6542 40.9141C48.6867 41.395 49.8473 42.5734 50.2834 43.5833C50.4458 43.96 50.5758 44.7893 50.5798 45.478C50.602 49.0943 46.9261 51.5354 43.5638 50.1376C42.6152 49.7432 41.3722 48.4679 40.925 47.4302C40.3374 46.0666 40.4633 44.1547 41.2207 42.9392C42.6152 40.7012 45.3497 39.8406 47.6542 40.9141Z" fill="#D5DCDF"/>
</svg>
