<svg width="48" height="48" viewBox="0 0 48 48" fill="none" xmlns="http://www.w3.org/2000/svg">
<path fill-rule="evenodd" clip-rule="evenodd" d="M11.4297 1.10189C11.0022 1.29141 10.6332 1.62684 10.4357 2.00536C10.2579 2.34654 10.2312 3.65236 10.2304 12.0367C10.2296 21.1174 10.2438 21.7023 10.4742 22.1318C10.6087 22.3826 10.924 22.698 11.1748 22.8325C11.6082 23.065 12.3351 23.077 25.8871 23.0765C39.7819 23.0761 40.1544 23.0694 40.5713 22.8152C41.5417 22.2235 41.482 22.9318 41.482 12.0168C41.482 2.31508 41.4792 2.21256 41.2048 1.83845C41.0523 1.63058 40.7211 1.35526 40.4687 1.22663C40.04 1.00792 39.0758 0.993202 25.8223 1.00177C18.0193 1.00685 11.5426 1.05183 11.4297 1.10189ZM39.6751 12.0346V21.2031H25.8893H12.1034V12.0346V2.866H25.8893H39.6751V12.0346ZM20.5251 5.04424C19.0388 6.04582 19.1097 8.16329 20.6569 8.9795C21.2413 9.28775 21.2899 9.29069 25.8099 9.28775C29.9624 9.28507 30.4221 9.26245 30.919 9.03692C32.2463 8.43407 32.6754 6.90713 31.8625 5.67895C31.2479 4.75004 31.182 4.73987 25.7885 4.73987C21.0052 4.73987 20.974 4.74161 20.5251 5.04424ZM30.3464 6.76284C30.4212 6.8817 30.4447 7.07739 30.3986 7.19785C30.3231 7.39447 29.8633 7.41683 25.8982 7.41683C21.6717 7.41683 21.4759 7.40572 21.3436 7.15837C21.239 6.96308 21.257 6.84837 21.4172 6.68816C21.6032 6.50211 22.1532 6.48056 25.9196 6.51148C29.698 6.54267 30.2263 6.57265 30.3464 6.76284ZM10.6981 27.0793C10.1828 27.2191 9.15433 27.5755 8.4127 27.8717C6.43223 28.6625 1.52808 30.9342 1.24153 31.1934C0.936766 31.4693 0.915886 32.2148 1.20472 32.5038C1.5594 32.8583 2.04525 32.7465 3.86298 31.8913C6.41188 30.6923 9.73534 29.2744 10.7516 28.9525C11.4354 28.736 11.998 28.6712 13.2411 28.6656C16.1654 28.6523 17.1535 29.0314 19.0633 30.8988C19.7626 31.5826 20.5155 32.2342 20.7363 32.3466C22.1521 33.068 26.0105 33.9519 28.7282 34.1777C30.3442 34.3121 30.9914 34.5193 31.239 34.9821C31.4578 35.3908 31.4 35.9979 31.118 36.253C30.5259 36.7889 29.9924 36.8514 25.9562 36.8569C21.9388 36.8624 20.9518 36.7754 18.6039 36.2082C17.4585 35.9314 17.0424 35.9862 16.7961 36.4465C16.5846 36.8417 16.6236 37.2344 16.9018 37.5126C17.1891 37.7999 18.9478 38.2543 20.8701 38.538C22.803 38.8234 29.406 38.8175 30.5115 38.5296C31.4541 38.2841 30.9347 38.6044 36.5088 34.8293C41.2661 31.6073 41.8408 31.264 43.0802 30.9036C43.7085 30.7211 43.9614 30.705 44.3559 30.8233C44.9319 30.9959 45.2369 31.463 45.1083 31.9755C44.9057 32.7827 43.8724 33.5752 37.4667 37.836C30.1665 42.6916 27.226 44.5512 26.2773 44.9116C25.4313 45.2331 24.2631 45.2315 23.222 44.9076C22.7726 44.7677 20.3027 43.5658 17.7333 42.2368C15.1639 40.9078 12.7523 39.7192 12.3742 39.5956C11.5533 39.3271 10.3667 39.3936 9.68247 39.7466C8.58884 40.3106 6.0837 42.0368 5.95789 42.3131C5.70948 42.8581 6.15745 43.5557 6.75586 43.5557C6.97684 43.5557 7.59198 43.2472 8.30777 42.7775C8.95986 42.3495 9.78245 41.8302 10.1355 41.6234C11.229 40.9832 11.4025 41.0405 16.721 43.7976C19.2975 45.1333 21.8572 46.3801 22.4093 46.568C24.3617 47.2329 26.0156 47.1336 27.7528 46.2469C29.6582 45.2742 44.3626 35.5892 45.5024 34.5561C46.2089 33.9157 46.8095 32.9523 46.9671 32.2062C47.0996 31.5793 46.8183 30.5598 46.359 30.0023C45.4827 28.9393 43.9304 28.6747 42.1847 29.2908L41.2812 29.6097V29.306C41.2812 28.8875 40.8209 28.3409 40.2031 28.0256C39.4875 27.6605 38.1213 27.6712 36.9978 28.0505C36.2909 28.2893 36.1316 28.3067 36.0803 28.1509C35.9473 27.7466 35.1479 27.109 34.581 26.9551C33.8188 26.7483 32.4547 26.8597 31.4577 27.2101C31.0333 27.3593 29.6519 28.125 28.388 28.9117C27.1241 29.6985 25.6506 30.6152 25.1135 30.949L24.137 31.5559L22.9051 31.1668C21.7061 30.7881 21.6375 30.7437 20.3348 29.5032C18.1934 27.4641 16.8894 26.9516 13.6426 26.8737C11.983 26.8339 11.4726 26.8696 10.6981 27.0793ZM34.2435 28.7799C34.7612 28.9785 34.3931 29.3542 32.2526 30.8122L30.0498 32.3125L29.0069 32.3026C28.4332 32.2971 27.6928 32.2505 27.3615 32.199L26.7592 32.1055L27.4954 31.6312C29.7469 30.1807 31.5295 29.1607 32.1799 28.9507C32.9273 28.7093 33.859 28.6322 34.2435 28.7799ZM39.4615 29.6765C39.6084 29.784 39.6827 29.9774 39.6544 30.1784C39.6177 30.4384 38.9478 30.9494 36.3959 32.6644L33.1837 34.8232L32.9344 34.3375C32.7973 34.0703 32.5441 33.7008 32.3717 33.5161L32.0581 33.1805L34.0865 31.7761C36.456 30.1355 36.7593 29.962 37.6992 29.709C38.5997 29.4665 39.1602 29.4562 39.4615 29.6765Z" fill="#D5DCDF" stroke="#D5DCDF" stroke-width="0.4"/>
</svg>
