<svg width="23" height="45" viewBox="0 0 23 45" fill="none" xmlns="http://www.w3.org/2000/svg">
<path fill-rule="evenodd" clip-rule="evenodd" d="M20.8317 44.9419C21.9524 44.6263 22.8447 43.5128 22.9857 42.2539C23.0449 41.7256 22.915 40.9201 22.6886 40.4106C22.5867 40.1813 19.7898 36.996 14.6695 31.278L6.80679 22.4974L14.6695 13.7168C19.7898 7.99879 22.5867 4.8135 22.6886 4.58419C23.4146 2.95079 22.8065 1.021 21.3246 0.255264C20.9224 0.0475235 20.7501 0.010994 20.1804 0.0128441C18.9185 0.0168915 19.7707 -0.828064 9.59148 10.5109C3.45229 17.3496 0.478453 20.7216 0.345724 20.9946C0.035841 21.6322 -0.0730553 22.3852 0.0488625 23.0476C0.104572 23.3501 0.238169 23.7789 0.345724 24.0002C0.478453 24.2732 3.45229 27.6452 9.59148 34.4839C17.6569 43.4682 18.6875 44.5864 19.0628 44.7603C19.5389 44.9809 20.3847 45.0678 20.8317 44.9419Z" fill="#D5DCDF"/>
</svg>
