<svg width="45" height="60" viewBox="0 0 45 60" fill="none" xmlns="http://www.w3.org/2000/svg">
<path fill-rule="evenodd" clip-rule="evenodd" d="M20.2176 0.103498C14.9744 0.593657 10.2358 2.92933 6.40033 6.91415C4.11377 9.28965 2.35845 12.0248 1.37689 14.7417C-2.83004 26.3858 2.55431 39.4143 18.2058 55.4624L22.6313 60L25.8162 56.6865C34.3069 47.8531 38.3752 42.4874 41.5953 35.8754C44.3678 30.183 45.1905 26.6694 44.9645 21.4861C44.8075 17.8797 44.2466 15.6237 42.7614 12.6222C38.5494 4.11041 29.7326 -0.785648 20.2176 0.103498ZM29.1209 15.7727C30.49 16.3411 30.5877 16.6282 29.8829 18.0117L29.434 18.8932L30.3567 19.3099C31.3978 19.7803 31.7113 20.2242 31.7113 21.2277C31.7113 22.0331 31.0128 22.6372 30.0818 22.6372C29.5671 22.6372 29.3986 22.8186 28.9834 23.819C28.3796 25.2743 28.377 25.4536 28.9508 25.9737C29.5839 26.5477 30.4346 28.0573 30.8962 29.4267C31.2806 30.5663 31.4314 33.4488 31.1528 34.3278C31.0399 34.684 31.181 34.8626 31.8113 35.1621C32.518 35.4981 32.7037 35.5047 33.3692 35.2197C33.785 35.0417 34.4289 34.5725 34.8002 34.177C35.1714 33.7815 35.5594 33.458 35.6622 33.458C35.765 33.458 36.2383 33.8466 36.7139 34.3214C37.1897 34.7963 37.9396 35.2883 38.3805 35.4149C39.5055 35.738 39.4577 36.3444 38.3101 36.3087C37.7092 36.29 37.1663 36.0628 36.564 35.5782L35.69 34.8746L35.011 35.5547C33.8048 36.7627 31.6233 36.7355 30.2123 35.4948C29.7724 35.108 29.4126 34.9015 29.4126 35.036C29.4126 35.1704 28.9423 35.5565 28.3674 35.894C27.018 36.6858 25.4712 36.6011 24.2501 35.6682L23.4359 35.0461L22.6148 35.6735C22.0341 36.1169 21.4449 36.3283 20.6034 36.3948C19.5655 36.4768 19.274 36.3957 18.3281 35.7621L17.2433 35.0355L16.4403 35.6489C15.5916 36.2972 14.1984 36.6057 13.2246 36.361C12.9033 36.2801 12.2888 35.9051 11.8592 35.5273C11.1629 34.9149 11.0456 34.8797 10.7783 35.202C10.3192 35.7561 8.74873 36.4869 8.18899 36.407C7.38029 36.2917 7.61614 35.7163 8.60897 35.3822C9.11469 35.2121 9.86891 34.6872 10.2852 34.2159C10.9567 33.4555 11.0937 33.3917 11.5042 33.6484C11.9408 33.9214 11.9585 33.8943 11.8217 33.1642C11.6277 32.1284 12.0803 29.6963 12.7311 28.2778C14.243 24.9821 17.7488 22.6372 21.1643 22.6372H22.2922L22.8621 21.347L23.4317 20.0568L22.9741 19.4741C21.7334 17.8945 23.257 16.1855 25.1861 16.9927C25.6452 17.1847 26.0856 17.3415 26.1649 17.341C26.2442 17.3405 26.5006 16.8743 26.7343 16.305C27.2242 15.1119 27.4226 15.0677 29.1209 15.7727ZM27.5817 17.0965C27.2322 17.7506 27.283 17.9311 27.8966 18.211C28.3959 18.4387 28.4777 18.3957 28.7379 17.7662C28.977 17.1884 28.9708 17.0341 28.7023 16.8637C28.1929 16.5407 27.8393 16.6142 27.5817 17.0965ZM23.8991 18.1436C23.5515 18.5628 23.9832 18.8384 27.3118 20.322C30.1825 21.6016 30.562 21.6882 30.562 21.0643C30.562 20.7562 30.05 20.4187 28.6655 19.8141C27.6226 19.3585 26.1826 18.7247 25.4661 18.4054C24.3719 17.918 24.1209 17.8761 23.8991 18.1436ZM23.8009 22.0331L23.0306 23.726L21.222 23.8321C16.5927 24.1035 13.0892 27.6237 13.0166 32.0766C12.983 34.1204 13.2373 35.242 13.7722 35.4122C14.2655 35.569 15.6022 35.0737 15.9987 34.5873C16.1438 34.4093 16.5946 32.8652 17.0005 31.1557C17.4065 29.4462 17.8747 27.83 18.0414 27.5639C18.8915 26.2065 21.9311 25.9334 23.8938 27.0383C25.4487 27.9134 25.5595 28.348 24.916 31.0468C24.6149 32.3096 24.3655 33.569 24.3618 33.8452C24.3524 34.5714 25.4893 35.2998 26.6323 35.2998C27.429 35.2998 27.7115 35.158 28.4664 34.3789C28.9572 33.8724 29.5262 33.458 29.7305 33.458C30.0303 33.458 30.1022 33.1987 30.1022 32.1176C30.1022 29.9488 29.34 28.1121 27.7187 26.375L27.0171 25.6235L27.3934 24.6483C27.6 24.1121 27.9016 23.3406 28.0635 22.9337C28.2251 22.5272 28.3053 22.1422 28.2419 22.0784C28.1782 22.0147 27.3263 21.5975 26.3486 21.1513L24.5712 20.3402L23.8009 22.0331ZM19.4735 27.5876C18.7398 28.0032 18.4609 28.8375 18.8264 29.522C19.1917 30.2055 20.7261 30.9255 21.8176 30.9255C22.3283 30.9255 22.7444 31.0033 22.7423 31.0981C22.74 31.193 22.535 32.0478 22.2865 32.9975C22.038 33.9472 21.833 34.7703 21.8307 34.8267C21.8286 34.8831 22.1943 34.5274 22.6437 34.0361C23.2492 33.3742 23.5366 32.7809 23.7531 31.7462L24.0453 30.3499H22.4932C21.2737 30.3499 20.802 30.2461 20.2919 29.865C19.5066 29.2784 19.3807 28.8037 19.8776 28.3057C20.3447 27.8379 21.9573 27.8019 22.1311 28.2553C22.3037 28.7056 22.0932 28.8529 21.2711 28.8569C20.7291 28.8596 20.6436 28.913 20.9073 29.0836C21.2891 29.3309 23.4214 29.3933 23.9917 29.1741C24.6255 28.9305 24.3869 28.4185 23.4064 27.9175C22.149 27.275 20.299 27.1198 19.4735 27.5876ZM17.9501 31.3307C17.4212 33.4483 17.4067 33.3482 18.3936 34.3669C19.1549 35.1525 19.4544 35.3141 20.0422 35.2559C20.7084 35.1898 20.7815 35.0933 21.0539 33.9184C21.4875 32.0483 21.4626 31.923 20.6236 31.755C20.2149 31.6733 19.4944 31.3505 19.0227 31.0378L18.1653 30.4694L17.9501 31.3307Z" fill="#B77FFF"/>
</svg>
