<svg width="49" height="50" viewBox="0 0 49 50" fill="none" xmlns="http://www.w3.org/2000/svg">
<path fill-rule="evenodd" clip-rule="evenodd" d="M19.5082 6.32208C22.2304 2.87084 26.2656 0.535782 30.8053 0.0822159C37.5716 -0.593955 44.1 2.94711 47.2312 8.99144C48.5275 11.4941 49.0137 13.6147 48.9997 16.7066C48.9841 20.1725 48.3652 22.5596 46.479 26.4288C44.213 31.0772 40.6447 35.7242 34.8075 41.6283L32.5061 43.9561L30.2046 41.6283C29.1522 40.5638 27.838 39.1916 26.9973 38.2831C24.9351 41.1478 22.2824 44.1916 18.8412 47.6722L16.5398 50L14.2383 47.6722C12.9725 46.3919 11.3281 44.6666 10.5841 43.8381C4.97663 37.5943 1.47556 31.6156 0.373587 26.401C-0.0277015 24.5019 -0.118642 21.7347 0.163903 20.0178C1.38475 12.5992 7.44216 6.86521 14.839 6.12618C16.4219 5.968 17.9918 6.04061 19.5082 6.32208ZM15.0036 7.76633C16.1673 7.65004 17.3234 7.6724 18.4521 7.82265L20.2016 8.16288C24.2607 9.20664 27.7981 11.9325 29.7976 15.7923C30.96 18.0365 31.3946 19.8908 31.3817 22.7431C31.3675 25.9093 30.8308 28.0525 29.0275 31.7516C28.4082 33.0219 27.6836 34.2988 26.8282 35.6124L25.8682 37.024C23.8468 39.8781 21.1939 42.9456 17.6655 46.5145L16.5398 47.6532L15.4141 46.5145C14.157 45.243 12.5331 43.5386 11.8141 42.738C6.29919 36.5972 3.00706 30.8749 1.98973 26.0609C1.6258 24.3386 1.54799 21.7783 1.79375 20.285C2.89582 13.5882 8.36411 8.42969 15.0036 7.76633Z" fill="#B77EFF"/>
</svg>
