<svg width="40" height="50" viewBox="0 0 40 50" fill="none" xmlns="http://www.w3.org/2000/svg">
<path fill-rule="evenodd" clip-rule="evenodd" d="M14.0115 0.368333C13.6202 0.570781 13.0821 1.03978 12.8157 1.41017C12.3651 2.03699 12.3275 2.19876 12.2763 3.73287L12.2213 5.38174H6.49739H0.773361L0.377176 5.77033C-0.125725 6.26324 -0.125725 6.71625 0.377176 7.20916C0.681661 7.50784 0.943363 7.59775 1.50729 7.59775H2.24106V27.4391C2.24106 42.139 2.28981 47.4198 2.4293 47.8185C2.7191 48.6465 3.3279 49.3366 4.08589 49.6964C4.76912 50.0206 4.89828 50.023 20.1908 49.9813L35.6072 49.9394L36.2741 49.4862C36.6908 49.203 37.0944 48.7312 37.35 48.2285L37.7589 47.4237V27.5108V7.59775H38.4927C39.0566 7.59775 39.3183 7.50784 39.6228 7.20916C40.1257 6.71625 40.1257 6.26324 39.6228 5.77033L39.2266 5.38174H33.5026H27.7787L27.7237 3.73287C27.6725 2.19876 27.6349 2.03699 27.1843 1.41017C26.9179 1.03978 26.3798 0.570781 25.9885 0.368333C25.2855 0.00443196 25.2124 0 20 0C14.7876 0 14.7145 0.00443196 14.0115 0.368333ZM25.1938 2.47797C25.435 2.69182 25.4891 2.98212 25.4891 4.06084V5.38174H20H14.5109V4.08838C14.5109 2.08463 14.1278 2.21601 19.9719 2.21601C24.3298 2.21601 24.9328 2.24624 25.1938 2.47797ZM35.4987 27.4106C35.4987 45.6247 35.4771 47.2469 35.2315 47.513C34.9763 47.7895 34.293 47.8025 20.0281 47.8025C6.35629 47.8025 5.06683 47.7804 4.79657 47.5406C4.51356 47.2894 4.50129 46.4582 4.50129 27.4382V7.59775H20H35.4987V27.4106ZM12.676 13.3076L12.2506 13.6356V27.7117C12.2506 41.5766 12.2555 41.7924 12.5735 42.1042C12.9957 42.5181 13.7324 42.5102 14.1226 42.0876C14.4201 41.7652 14.4301 41.2981 14.4301 27.6696V13.5846L14.049 13.2821C13.5592 12.8932 13.2048 12.8999 12.676 13.3076ZM19.2662 13.3681L18.8699 13.7565V27.6716C18.8699 41.5094 18.8718 41.589 19.2046 42.0037C19.4264 42.2802 19.6944 42.4208 20 42.4208C20.3056 42.4208 20.5736 42.2802 20.7954 42.0037C21.1282 41.589 21.1301 41.5094 21.1301 27.6716V13.7565L20.7338 13.3681C20.5158 13.1544 20.1857 12.9795 20 12.9795C19.8143 12.9795 19.4842 13.1544 19.2662 13.3681ZM25.951 13.2821L25.5698 13.5846V27.6696C25.5698 41.2981 25.5799 41.7652 25.8774 42.0876C26.2676 42.5102 27.0043 42.5181 27.4265 42.1042C27.7445 41.7924 27.7494 41.5766 27.7494 27.7117V13.6356L27.3239 13.3076C26.7952 12.8999 26.4408 12.8932 25.951 13.2821Z" fill="#B77EFF"/>
</svg>
