<svg width="72" height="50" viewBox="0 0 72 50" fill="none" xmlns="http://www.w3.org/2000/svg">
<path fill-rule="evenodd" clip-rule="evenodd" d="M5.29222 0.286963C2.70212 0.981746 0.681532 3.19889 0.187164 5.88878C-0.0546518 7.20482 -0.0658834 42.8101 0.175272 44.0844C0.738518 47.0621 3.15569 49.4135 6.12454 49.872C6.8115 49.9782 17.7244 50.0204 36.758 49.9908L66.3243 49.9446L67.2524 49.5682C69.2717 48.7494 70.7297 47.2817 71.5702 45.2217L71.9402 44.3148L71.9888 25.6868C72.0222 12.8606 71.9817 6.73358 71.8585 6.01478C71.6025 4.52074 70.938 3.22704 69.8746 2.15341C68.8412 1.10991 68.0188 0.633031 66.6249 0.269081C65.2074 -0.100995 6.67539 -0.0839412 5.29222 0.286963ZM66.0618 2.92105C66.1741 3.03364 61.3428 7.41114 51.2584 16.3332C43.0247 23.6178 36.1944 29.6011 36.0798 29.6293C35.8842 29.6776 6.09051 3.43948 5.9402 3.08646C5.90172 2.99622 6.09332 2.87419 6.36586 2.81507C7.22031 2.62995 65.8753 2.7341 66.0618 2.92105ZM13.6813 13.6708C18.6134 18.0349 22.6271 21.6918 22.6007 21.7971C22.5745 21.9024 18.1709 26.9916 12.8149 33.1063C6.38056 40.4524 3.03329 44.1552 2.94823 44.021C2.87753 43.9094 2.82021 35.3237 2.82071 24.9417C2.82187 6.48272 2.82913 6.04922 3.14891 5.34269L3.47612 4.61992L4.09503 5.17793C4.43562 5.48476 8.74933 9.30656 13.6813 13.6708ZM69.0503 5.80929C69.2629 6.57677 69.2756 43.8437 69.0632 43.9753C68.9013 44.0755 49.4765 21.9898 49.4765 21.7057C49.4765 21.6131 53.7504 17.7476 58.974 13.1154C69.2978 3.96074 68.6652 4.41956 69.0503 5.80929ZM30.6142 28.6562C33.14 30.8935 35.3885 32.7942 35.6107 32.8802C35.8638 32.978 36.1685 32.978 36.4263 32.8802C36.6526 32.7942 39.1537 30.6749 41.984 28.1705C44.8142 25.6661 47.1911 23.617 47.2656 23.617C47.3403 23.617 51.8976 28.7534 57.3933 35.0311C68.2681 47.4534 67.608 46.5607 66.2584 47.021C65.8671 47.1544 51.4292 47.2232 36.758 47.2264C21.5957 47.2297 6.18417 47.1629 5.77106 47.0252C4.50549 46.6028 3.9842 47.3002 14.7818 34.9683L24.8058 23.5201L25.4138 24.0543C25.7481 24.348 28.0883 26.4188 30.6142 28.6562Z" fill="#B77FFF"/>
</svg>
