<svg width="50" height="50" viewBox="0 0 50 50" fill="none" xmlns="http://www.w3.org/2000/svg">
<path fill-rule="evenodd" clip-rule="evenodd" d="M23.1432 0.0470504C19.4396 0.401914 16.6849 1.1856 13.5662 2.77165C9.87184 4.65032 6.55673 7.62113 4.13952 11.2191C3.72429 11.8371 3.01735 13.0902 2.5684 14.0037C0.934249 17.3288 0.148446 20.458 0.0164196 24.165C-0.131926 28.332 0.725118 32.2979 2.57944 36.0257C3.88573 38.6517 5.22788 40.5095 7.35534 42.6366C9.50626 44.787 11.3728 46.1298 14.006 47.4213C15.8433 48.3224 17.0296 48.761 18.8922 49.2281C23.7798 50.4539 28.6818 50.2188 33.457 48.5299C34.9144 48.0145 37.4409 46.7473 38.7303 45.8852C44.2031 42.2259 48.0288 36.6777 49.4292 30.3693C49.7554 28.8996 49.923 27.526 49.9836 25.826C50.1319 21.659 49.2749 17.6931 47.4206 13.9653C46.2029 11.5175 44.8474 9.59906 42.9441 7.63002C40.8475 5.46078 38.7405 3.9271 35.994 2.57125C33.0979 1.14134 30.4013 0.378367 27.1988 0.0825173C26.2032 -0.00942296 23.9398 -0.029257 23.1432 0.0470504ZM28.4692 3.39579C34.6657 4.43683 39.8981 7.8523 43.3554 13.1126C45.0113 15.6321 46.1445 18.6167 46.6616 21.8201C46.9035 23.319 46.9035 26.672 46.6616 28.1709C45.6085 34.6946 42.037 40.1116 36.4826 43.6094C34.1042 45.1072 31.2383 46.1571 28.176 46.6524C26.6716 46.8956 23.3217 46.895 21.8239 46.6511C15.4041 45.6059 10.1164 42.1894 6.60442 36.8178C4.9647 34.3097 3.85778 31.3788 3.33876 28.1709C3.09621 26.6712 3.09621 23.3198 3.33876 21.8201C4.12339 16.9704 6.16378 12.9401 9.5515 9.54836C13.2343 5.86117 17.9807 3.64953 23.241 3.1697C24.2981 3.07326 27.3296 3.20438 28.4692 3.39579ZM24.3648 7.49753C24.2573 7.54541 24.0656 7.68317 23.9387 7.80354C23.4246 8.29158 23.4364 8.68914 23.4364 16.9837V24.0967L19.4053 26.418C17.1882 27.6947 15.2274 28.8473 15.0482 28.9794C14.3951 29.4604 14.1829 30.1757 14.4813 30.8899C14.7865 31.6202 15.7061 32.0049 16.4265 31.704C16.951 31.4849 25.7921 26.3715 26.0631 26.1304C26.5771 25.6735 26.5636 25.9201 26.5636 16.9837C26.5636 7.90506 26.5895 8.32109 25.9894 7.75684C25.7372 7.51971 25.5867 7.4648 25.1223 7.44018C24.8132 7.42386 24.4723 7.44966 24.3648 7.49753Z" fill="#B77FFF"/>
</svg>
