<svg width="171" height="125" viewBox="0 0 171 125" fill="none" xmlns="http://www.w3.org/2000/svg">
<path d="M155.796 52.1394H35.892H0.427737C0.0775061 56.1937 2.11593 61.2107 4.93057 61.2107H29.1365C32.6853 61.2107 33.7871 65.3877 29.1365 66.8803H19.5673C13.9374 66.8803 14.5003 73.1167 19.5673 73.1167H53.9059C61.7863 73.1167 60.6604 81.054 53.9059 81.054H16.7521C5.04301 81.054 3.80406 95.7948 16.7521 95.7948H23.5078C35.2168 95.7948 35.892 108.268 19.5673 108.268H8.87149C-3.51332 108.268 -2.38762 124.142 8.87149 124.142C60.0979 124.331 162.551 124.596 162.551 124.142C174.372 124.142 173.246 108.268 162.551 108.268H116.391C103.443 108.268 104.569 95.7948 116.391 95.7948H144.537C152.981 95.7948 152.981 81.054 144.537 81.054H135.53C125.398 81.054 126.523 68.0141 135.53 68.0141H155.796C167.054 68.0141 164.803 52.1394 155.796 52.1394Z" fill="#565180"/>
<path fill-rule="evenodd" clip-rule="evenodd" d="M120.952 0.149632C107.517 1.49465 96.5152 11.9306 94.2977 25.4323C93.7845 28.557 93.9497 33.5934 94.6786 37.0498C96.6801 46.5402 103.039 57.4214 113.224 68.7852C114.575 70.2929 117.562 73.4331 119.861 75.7632L124.042 79.9999L128.222 75.7632C138.824 65.0178 145.305 56.5604 149.421 48.1003C152.847 41.0584 153.971 36.7138 153.999 30.4059C154.025 24.7786 153.142 20.9193 150.787 16.3644C145.1 5.36373 133.242 -1.081 120.952 0.149632Z" fill="#454647"/>
<path fill-rule="evenodd" clip-rule="evenodd" d="M97.258 25.9185C99.2598 13.7304 109.192 4.34201 121.251 3.13471C132.313 2.02709 142.998 7.8302 148.122 17.742C150.233 21.8263 151.023 25.2011 150.999 30.3924C150.974 36.1549 149.999 40.0554 146.723 46.7879C142.81 54.8314 136.58 63.0205 126.086 73.6562L124.042 75.7285L121.997 73.6562C119.714 71.3421 116.764 68.2401 115.458 66.783C105.441 55.6069 99.4618 45.1922 97.614 36.4308C96.953 33.2961 96.8117 28.6364 97.258 25.9185ZM113.224 68.7852C114.575 70.2929 117.562 73.4331 119.861 75.7632L124.042 79.9998L128.222 75.7632C138.824 65.0178 145.305 56.5604 149.421 48.1003C152.847 41.0584 153.971 36.7138 153.999 30.4059C154.025 24.7786 153.142 20.9193 150.787 16.3644C145.1 5.36373 133.242 -1.081 120.952 0.149632C107.517 1.49465 96.5152 11.9306 94.2977 25.4323C93.7845 28.557 93.9497 33.5934 94.6786 37.0498C96.6801 46.5402 103.039 57.4214 113.224 68.7852Z" fill="#CC9D3A"/>
<path fill-rule="evenodd" clip-rule="evenodd" d="M53.9525 14.1498C40.5174 15.4948 29.5152 25.9307 27.2977 39.4325C26.7845 42.5571 26.9497 47.5935 27.6786 51.0499C29.6801 60.5403 36.0392 71.4216 46.2242 82.7853C47.5755 84.2931 50.5623 87.4332 52.8614 89.7634L57.0416 94L61.2218 89.7634C71.824 79.0179 78.3052 70.5605 82.421 62.1004C85.8469 55.0585 86.9711 50.714 86.9994 44.4061C87.0248 38.7788 86.1417 34.9194 83.7872 30.3645C78.1 19.3639 66.2423 12.9191 53.9525 14.1498Z" fill="#454647"/>
<path fill-rule="evenodd" clip-rule="evenodd" d="M54.2513 17.1348C42.1919 18.3421 32.2598 27.7305 30.258 39.9187C29.8117 42.6365 29.953 47.2963 30.614 50.4309C32.4618 59.1923 38.4414 69.6069 48.4582 80.783C49.7641 82.2401 52.7137 85.3422 54.9969 87.6563L57.0416 89.7286L59.0863 87.6563C69.5802 77.0206 75.8102 68.8315 79.7233 60.788C82.9987 54.0555 83.9735 50.155 83.9994 44.3925C84.0228 39.2012 83.2334 35.8264 81.1222 31.7421C75.9979 21.8304 65.3126 16.0272 54.2513 17.1348ZM83.7872 30.3645C86.1417 34.9194 87.0248 38.7788 86.9994 44.4061C86.9711 50.714 85.8469 55.0585 82.421 62.1004C78.3052 70.5605 71.824 79.0179 61.2218 89.7634L57.0416 94L52.8614 89.7634C50.5624 87.4332 47.5755 84.2931 46.2242 82.7853C36.0392 71.4216 29.6801 60.5403 27.6786 51.0499C26.9497 47.5935 26.7845 42.5571 27.2977 39.4325C29.5152 25.9307 40.5174 15.4948 53.9525 14.1498C66.2423 12.9191 78.1 19.3639 83.7872 30.3645Z" fill="#BB27C5"/>
<path fill-rule="evenodd" clip-rule="evenodd" d="M83.9525 36.1498C70.5174 37.4948 59.5152 47.9307 57.2977 61.4325C56.7845 64.5571 56.9497 69.5935 57.6786 73.0499C59.6801 82.5403 66.0392 93.4216 76.2242 104.785C77.5755 106.293 80.5623 109.433 82.8614 111.763L87.0416 116L91.2218 111.763C101.824 101.018 108.305 92.5605 112.421 84.1004C115.847 77.0585 116.971 72.714 116.999 66.4061C117.025 60.7788 116.142 56.9194 113.787 52.3645C108.1 41.3639 96.2423 34.9191 83.9525 36.1498Z" fill="#454647"/>
<path fill-rule="evenodd" clip-rule="evenodd" d="M84.2513 39.1348C72.1919 40.3421 62.2598 49.7305 60.258 61.9187C59.8117 64.6365 59.953 69.2963 60.614 72.4309C62.4618 81.1923 68.4414 91.6069 78.4582 102.783C79.7641 104.24 82.7137 107.342 84.9969 109.656L87.0416 111.729L89.0863 109.656C99.5802 99.0206 105.81 90.8315 109.723 82.788C112.999 76.0555 113.974 72.155 113.999 66.3925C114.023 61.2012 113.233 57.8264 111.122 53.7421C105.998 43.8304 95.3126 38.0272 84.2513 39.1348ZM113.787 52.3645C116.142 56.9194 117.025 60.7788 116.999 66.4061C116.971 72.714 115.847 77.0585 112.421 84.1004C108.305 92.5605 101.824 101.018 91.2218 111.763L87.0416 116L82.8614 111.763C80.5624 109.433 77.5755 106.293 76.2242 104.785C66.0392 93.4216 59.6801 82.5403 57.6786 73.0499C56.9497 69.5935 56.7845 64.5571 57.2977 61.4325C59.5152 47.9307 70.5174 37.4948 83.9525 36.1498C96.2423 34.9191 108.1 41.3639 113.787 52.3645Z" fill="#8B33FD"/>
<path d="M77.3119 87.0001V65.8801L78.6879 67.3841H72.2559V64.6001H80.4799V87.0001H77.3119Z" fill="#9B58F2"/>
<path d="M92.6116 87.2561C91.0329 87.2561 89.4969 87.0107 88.0036 86.5201C86.5316 86.0294 85.3263 85.3681 84.3876 84.5361L85.8596 82.0081C86.6063 82.7121 87.5769 83.2881 88.7716 83.7361C89.9663 84.1841 91.2356 84.4081 92.5796 84.4081C94.2863 84.4081 95.5983 84.0454 96.5156 83.3201C97.4329 82.5947 97.8916 81.6241 97.8916 80.4081C97.8916 79.5761 97.6889 78.8507 97.2836 78.2321C96.8783 77.6134 96.1743 77.1441 95.1716 76.8241C94.1903 76.4828 92.8356 76.3121 91.1076 76.3121H86.0196L87.2036 64.6001H99.8436V67.3841H88.3876L90.0516 65.8161L89.1236 75.0641L87.4596 73.5281H91.7796C94.0196 73.5281 95.8223 73.8161 97.1876 74.3921C98.5529 74.9681 99.5449 75.7681 100.164 76.7921C100.782 77.7948 101.092 78.9574 101.092 80.2801C101.092 81.5601 100.782 82.7334 100.164 83.8001C99.5449 84.8454 98.6063 85.6881 97.3476 86.3281C96.1103 86.9467 94.5316 87.2561 92.6116 87.2561Z" fill="#9B58F2"/>
</svg>
