<svg width="171" height="122" viewBox="0 0 171 122" fill="none" xmlns="http://www.w3.org/2000/svg">
<path d="M154.972 50.1284H35.7023H0.425477C0.0770965 54.1613 2.10475 59.1518 4.90451 59.1518H28.9825C32.5126 59.1518 33.6086 63.3067 28.9825 64.7914H19.4639C13.8638 64.7914 14.4237 70.9948 19.4639 70.9948H53.621C61.4598 70.9948 60.3399 78.8902 53.621 78.8902H16.6635C5.01636 78.8902 3.78395 93.5531 16.6635 93.5531H23.3836C35.0307 93.5531 35.7023 105.96 19.4639 105.96H8.8246C-3.49476 105.96 -2.375 121.751 8.8246 121.751C59.7803 121.939 161.692 122.202 161.692 121.751C173.451 121.751 172.331 105.96 161.692 105.96H115.776C102.897 105.96 104.017 93.5531 115.776 93.5531H143.773C152.173 93.5531 152.173 78.8902 143.773 78.8902H134.814C124.735 78.8902 125.855 65.9192 134.814 65.9192H154.972C166.171 65.9192 163.932 50.1284 154.972 50.1284Z" fill="#565180"/>
<path fill-rule="evenodd" clip-rule="evenodd" d="M94.1227 0.163459C79.4462 1.63277 67.4273 13.033 65.0049 27.7825C64.4443 31.1959 64.6247 36.6977 65.4209 40.4734C67.6074 50.8408 74.5541 62.7276 85.6803 75.1414C87.1565 76.7885 90.4193 80.2188 92.9308 82.7642L97.4973 87.3924L102.064 82.7642C113.646 71.0259 120.726 61.7869 125.222 52.545C128.964 44.8525 130.192 40.1064 130.223 33.2156C130.251 27.0684 129.286 22.8524 126.714 17.8765C120.502 5.85937 107.548 -1.18089 94.1227 0.163459Z" fill="#454647"/>
<path fill-rule="evenodd" clip-rule="evenodd" d="M94.4492 3.42438C81.2754 4.74323 70.4255 14.9992 68.2388 28.3136C67.7512 31.2826 67.9055 36.3729 68.6276 39.7972C70.6462 49.3683 77.1783 60.7452 88.1208 72.9541C89.5474 74.5458 92.7695 77.9346 95.2637 80.4625L97.4973 82.7263L99.7309 80.4625C111.195 68.844 118 59.8982 122.275 51.1114C125.853 43.7568 126.918 39.4958 126.946 33.2009C126.972 27.5298 126.109 23.8432 123.803 19.3814C118.205 8.55385 106.533 2.21441 94.4492 3.42438ZM126.714 17.8765C129.286 22.8524 130.251 27.0684 130.223 33.2156C130.192 40.1064 128.964 44.8525 125.222 52.545C120.726 61.7869 113.646 71.0259 102.064 82.7642L97.4973 87.3924L92.9308 82.7642C90.4194 80.2188 87.1565 76.7885 85.6803 75.1414C74.5541 62.7276 67.6074 50.8408 65.4209 40.4734C64.6247 36.6977 64.4443 31.1959 65.0049 27.7825C67.4273 13.033 79.4462 1.63277 94.1227 0.16346C107.548 -1.18089 120.502 5.85937 126.714 17.8765Z" fill="#BB27C5"/>
<path fill-rule="evenodd" clip-rule="evenodd" d="M62.443 12.1798C47.7665 13.6491 35.7476 25.0494 33.3252 39.7988C32.7646 43.2122 32.945 48.714 33.7413 52.4898C35.9277 62.8572 42.8745 74.7439 54.0006 87.1577C55.4768 88.8048 58.7397 92.2351 61.2512 94.7806L65.8176 99.4088L70.3841 94.7806C81.966 83.0422 89.0461 73.8033 93.5422 64.5614C97.2847 56.8688 98.5128 52.1228 98.5437 45.232C98.5715 39.0847 97.6068 34.8687 95.0347 29.8929C88.8219 17.8757 75.8685 10.8355 62.443 12.1798Z" fill="#454647"/>
<path fill-rule="evenodd" clip-rule="evenodd" d="M36.5591 40.3299C38.7458 27.0155 49.5957 16.7596 62.7695 15.4407C74.853 14.2308 86.5256 20.5701 92.1234 31.3978C94.4298 35.8595 95.2921 39.5462 95.2666 45.2172C95.2383 51.5122 94.1733 55.7731 90.5952 63.1277C86.3205 71.9145 79.5149 80.8603 68.0512 92.4789L65.8176 94.7427L63.584 92.4789C61.0898 89.9509 57.8677 86.5623 56.4412 84.9705C45.4987 72.7617 38.9665 61.3846 36.948 51.8136C36.2258 48.3893 36.0715 43.2989 36.5591 40.3299ZM54.0006 87.1578C55.4768 88.8048 58.7397 92.2351 61.2512 94.7806L65.8178 99.4086L70.3841 94.7806C81.966 83.0422 89.0461 73.8033 93.5422 64.5614C97.2847 56.8689 98.5128 52.1228 98.5437 45.232C98.5715 39.0847 97.6068 34.8687 95.0347 29.8929C88.8219 17.8757 75.8685 10.8355 62.443 12.1798C47.7665 13.6491 35.7476 25.0494 33.3252 39.7988C32.7646 43.2122 32.945 48.714 33.7413 52.4898C35.9277 62.8572 42.8745 74.7439 54.0006 87.1578Z" fill="#8B33FD"/>
<path d="M64.4258 66.9163C62.7013 66.9163 61.0234 66.6483 59.392 66.1123C57.784 65.5763 56.4673 64.8538 55.4419 63.9449L57.0499 61.1833C57.8656 61.9524 58.9259 62.5816 60.231 63.071C61.5361 63.5604 62.9227 63.8051 64.3909 63.8051C66.2553 63.8051 67.6885 63.4089 68.6906 62.6166C69.6927 61.8242 70.1937 60.7639 70.1937 59.4355C70.1937 58.5266 69.9723 57.7343 69.5296 57.0584C69.0868 56.3826 68.3177 55.8699 67.2224 55.5203C66.1504 55.1474 64.6705 54.961 62.7829 54.961H57.2247L58.5181 42.1667H72.3261V45.208H59.8115L61.6293 43.4951L60.6155 53.5977L58.7978 51.9197H63.517C65.9639 51.9197 67.9332 52.2344 69.4247 52.8636C70.9162 53.4928 71.9998 54.3667 72.6757 55.4854C73.3515 56.5807 73.6894 57.8508 73.6894 59.2957C73.6894 60.6939 73.3515 61.9757 72.6757 63.1409C71.9998 64.2829 70.9744 65.2034 69.5995 65.9025C68.2478 66.5784 66.5233 66.9163 64.4258 66.9163Z" fill="#9B58F2"/>
</svg>
