<svg width="173" height="117" viewBox="0 0 173 117" fill="none" xmlns="http://www.w3.org/2000/svg">
<path d="M157.618 43.25H36.3118H0.43274C0.0784126 47.357 2.14068 52.4392 4.98824 52.4392H29.4773C33.0676 52.4392 34.1823 56.6704 29.4773 58.1824H19.7962C14.1004 58.1824 14.6699 64.4998 19.7962 64.4998H54.5364C62.5089 64.4998 61.3699 72.5403 54.5364 72.5403H16.948C5.102 72.5403 3.84855 87.4726 16.948 87.4726H23.7827C35.6287 87.4726 36.3118 100.108 19.7962 100.108H8.97525C-3.55441 100.108 -2.41554 116.189 8.97525 116.189C60.8008 116.38 164.452 116.648 164.452 116.189C176.412 116.189 175.273 100.108 164.452 100.108H117.752C104.653 100.108 105.792 87.4726 117.752 87.4726H146.228C154.77 87.4726 154.77 72.5403 146.228 72.5403H137.115C126.864 72.5403 128.003 59.3309 137.115 59.3309H157.618C169.008 59.3309 166.73 43.25 157.618 43.25Z" fill="#565180"/>
<path fill-rule="evenodd" clip-rule="evenodd" d="M79.4876 0.160546C65.0726 1.60366 53.2679 12.8007 50.8888 27.2872C50.3381 30.6398 50.5154 36.0435 51.2974 39.752C53.4449 49.9345 60.2678 61.6094 71.1956 73.802C72.6455 75.4197 75.8502 78.7888 78.3169 81.2889L82.802 85.8346L87.287 81.2889C98.6625 69.7598 105.616 60.6856 110.032 51.6084C113.708 44.053 114.914 39.3915 114.945 32.6236C114.972 26.5859 114.024 22.445 111.498 17.5579C105.396 5.75493 92.6737 -1.15984 79.4876 0.160546Z" fill="#454647"/>
<path fill-rule="evenodd" clip-rule="evenodd" d="M54.065 27.8089C56.2127 14.7318 66.8692 4.65868 79.8082 3.36333C91.6763 2.17493 103.141 8.40128 108.639 19.0359C110.904 23.4182 111.751 27.0391 111.726 32.6091C111.698 38.7918 110.652 42.9768 107.138 50.2003C102.939 58.8305 96.2551 67.6168 84.9958 79.0282L82.802 81.2517L80.6082 79.0283C78.1585 76.5454 74.9938 73.2171 73.5927 71.6537C62.8452 59.6625 56.4295 48.4882 54.4469 39.0878C53.7377 35.7246 53.5861 30.7249 54.065 27.8089ZM71.1956 73.802C72.6455 75.4197 75.8502 78.7888 78.3169 81.2889L82.8021 85.8345L87.287 81.2889C98.6625 69.7598 105.616 60.6856 110.032 51.6084C113.708 44.053 114.914 39.3915 114.945 32.6236C114.972 26.5858 114.024 22.445 111.498 17.5579C105.396 5.75493 92.6737 -1.15984 79.4876 0.160546C65.0726 1.60366 53.2679 12.8007 50.8888 27.2872C50.3381 30.6398 50.5154 36.0435 51.2974 39.752C53.4449 49.9345 60.2678 61.6094 71.1956 73.802Z" fill="#8B33FD"/>
<path d="M82.019 54.7196V32.0593L83.4953 33.673H76.5942V30.6859H85.418V54.7196H82.019Z" fill="#9B58F2"/>
</svg>
