<svg width="53" height="53" viewBox="0 0 53 53" fill="none" xmlns="http://www.w3.org/2000/svg">
<g filter="url(#filter0_d_6_69)">
<rect x="4" width="45" height="45" rx="7" fill="#212121" fill-opacity="0.95"/>
<path fill-rule="evenodd" clip-rule="evenodd" d="M14.0005 17.1506C13.9801 16.9796 14.5457 16.7385 21.6856 13.4214C24.545 12.093 26.9312 11.0034 26.9883 11C27.0694 10.9952 37.1198 15.6134 39.5178 16.7572C39.9832 16.9792 40.0186 17.0167 39.9943 17.2608C39.9689 17.5163 39.8974 17.5571 37.6965 18.5699C36.4471 19.1448 35.4241 19.6347 35.423 19.6585C35.4221 19.6823 36.4443 20.1752 37.6946 20.7538L39.9681 21.8057V22.0858V22.366L37.6938 23.4166C36.4429 23.9946 35.4204 24.4869 35.4217 24.5107C35.4231 24.5346 36.4465 25.0254 37.6961 25.6016C39.89 26.6131 39.9689 26.6581 39.9943 26.9107C40.0185 27.1521 39.982 27.1905 39.5178 27.412C37.7696 28.2459 27.0788 33.1754 27.0185 33.1754C26.9623 33.1754 16.8176 28.4989 14.4244 27.3697C14.0474 27.1918 14.0107 27.1485 14.0345 26.9098C14.0599 26.6546 14.1322 26.6134 16.3337 25.6002C17.5839 25.0248 18.6073 24.5346 18.608 24.5107C18.6088 24.4869 17.586 23.9946 16.335 23.4166L14.0607 22.366V22.0846V21.8033L16.335 20.7526C17.586 20.1747 18.6088 19.6823 18.608 19.6585C18.6073 19.6347 17.5839 19.1444 16.3337 18.569C14.1404 17.5596 14.0598 17.5138 14.0347 17.2621C14.0298 17.2135 14.0044 17.1833 14.0005 17.1506ZM38.7099 17.2354C38.7088 17.21 36.0936 15.9804 32.8981 14.503C29.7026 13.0257 27.0618 11.8112 27.0296 11.804C26.9974 11.7969 24.5926 12.8977 21.6856 14.2503C18.7787 15.6029 16.1566 16.8164 15.8587 16.947C15.5609 17.0775 15.3171 17.2088 15.3171 17.2388C15.3171 17.2687 15.5804 17.4102 15.902 17.5532C16.2237 17.6962 18.8552 18.9123 21.7498 20.2558L27.0128 22.6984L32.8622 19.9901C36.0795 18.5006 38.7108 17.2609 38.7099 17.2354ZM27.0181 28.3232C26.9676 28.3232 25.2854 27.5629 23.2798 26.6336C21.2742 25.7043 19.5882 24.9481 19.5331 24.9531C19.361 24.9689 15.3171 26.8838 15.3171 26.9496C15.3171 26.9838 15.3955 27.0366 15.4914 27.0671C15.5872 27.0975 18.2202 28.3058 21.3425 29.7522L27.0195 32.3819L32.8637 29.681C36.078 28.1955 38.7087 26.9594 38.7098 26.9339C38.7135 26.8437 34.4699 24.9239 34.3606 24.9664C34.2994 24.9901 32.6431 25.7551 30.6797 26.6663C28.7163 27.5776 27.0687 28.3232 27.0181 28.3232Z" fill="#D5DCDF"/>
</g>
<defs>
<filter id="filter0_d_6_69" x="0" y="0" width="53" height="53" filterUnits="userSpaceOnUse" color-interpolation-filters="sRGB">
<feFlood flood-opacity="0" result="BackgroundImageFix"/>
<feColorMatrix in="SourceAlpha" type="matrix" values="0 0 0 0 0 0 0 0 0 0 0 0 0 0 0 0 0 0 127 0" result="hardAlpha"/>
<feOffset dy="4"/>
<feGaussianBlur stdDeviation="2"/>
<feComposite in2="hardAlpha" operator="out"/>
<feColorMatrix type="matrix" values="0 0 0 0 0 0 0 0 0 0 0 0 0 0 0 0 0 0 0.25 0"/>
<feBlend mode="normal" in2="BackgroundImageFix" result="effect1_dropShadow_6_69"/>
<feBlend mode="normal" in="SourceGraphic" in2="effect1_dropShadow_6_69" result="shape"/>
</filter>
</defs>
</svg>
