<svg width="57" height="57" viewBox="0 0 57 57" fill="none" xmlns="http://www.w3.org/2000/svg">
<g filter="url(#filter0_d_6_78)">
<rect x="6" y="2" width="45" height="45" rx="7" fill="url(#paint0_linear_6_78)"/>
<g filter="url(#filter1_d_6_78)">
<path d="M39 21.9857C39 24.7381 37.0247 27.8025 33.4444 31.3827C30.9479 33.8793 29 36.4444 29 36.4444C29 36.4444 27.1719 33.7284 24.5556 31.3827C20.9753 28.1728 19 24.7381 19 21.9857C19 16.4707 23.4772 12 29 12C34.5228 12 39 16.4707 39 21.9857Z" fill="#D5DCDF"/>
<path d="M36.5312 21.7505C36.5312 25.7718 33.3249 29.531 29.0003 29.531C24.6758 29.531 21.4695 25.7718 21.4695 21.7505C21.4695 17.7292 24.8412 14.4692 29.0003 14.4692C33.1595 14.4692 36.5312 17.7292 36.5312 21.7505Z" fill="#D5DCDF"/>
</g>
</g>
<defs>
<filter id="filter0_d_6_78" x="0" y="0" width="57" height="57" filterUnits="userSpaceOnUse" color-interpolation-filters="sRGB">
<feFlood flood-opacity="0" result="BackgroundImageFix"/>
<feColorMatrix in="SourceAlpha" type="matrix" values="0 0 0 0 0 0 0 0 0 0 0 0 0 0 0 0 0 0 127 0" result="hardAlpha"/>
<feOffset dy="4"/>
<feGaussianBlur stdDeviation="3"/>
<feComposite in2="hardAlpha" operator="out"/>
<feColorMatrix type="matrix" values="0 0 0 0 0 0 0 0 0 0 0 0 0 0 0 0 0 0 0.25 0"/>
<feBlend mode="normal" in2="BackgroundImageFix" result="effect1_dropShadow_6_78"/>
<feBlend mode="normal" in="SourceGraphic" in2="effect1_dropShadow_6_78" result="shape"/>
</filter>
<filter id="filter1_d_6_78" x="4" y="1" width="50" height="54.4443" filterUnits="userSpaceOnUse" color-interpolation-filters="sRGB">
<feFlood flood-opacity="0" result="BackgroundImageFix"/>
<feColorMatrix in="SourceAlpha" type="matrix" values="0 0 0 0 0 0 0 0 0 0 0 0 0 0 0 0 0 0 127 0" result="hardAlpha"/>
<feOffset dy="4"/>
<feGaussianBlur stdDeviation="7.5"/>
<feComposite in2="hardAlpha" operator="out"/>
<feColorMatrix type="matrix" values="0 0 0 0 0.835294 0 0 0 0 0.862745 0 0 0 0 0.87451 0 0 0 0.1 0"/>
<feBlend mode="normal" in2="BackgroundImageFix" result="effect1_dropShadow_6_78"/>
<feBlend mode="normal" in="SourceGraphic" in2="effect1_dropShadow_6_78" result="shape"/>
</filter>
<linearGradient id="paint0_linear_6_78" x1="9" y1="5" x2="51" y2="51" gradientUnits="userSpaceOnUse">
<stop stop-color="#766AC8"/>
<stop offset="1" stop-color="#B77EFF"/>
</linearGradient>
</defs>
</svg>
