<svg width="38" height="38" viewBox="0 0 38 38" fill="none" xmlns="http://www.w3.org/2000/svg">
<path fill-rule="evenodd" clip-rule="evenodd" d="M1.96848 1.98999L1.00629 2.97976L8.91876 10.972L16.8315 18.964L8.91573 26.9592L1 34.9545L2.01295 35.9771L3.02569 37L11.0035 29.0674L18.9815 21.135L26.8037 29.0315C31.1058 33.3746 34.7272 36.9279 34.8509 36.9279C34.9745 36.9279 35.5087 36.4826 36.0378 35.9379L37 34.9482L29.0875 26.956L21.1748 18.964L29.0875 10.972L37 2.97976L36.0378 1.98999C35.5087 1.44537 34.9745 1 34.8509 1C34.7272 1 31.1058 4.55336 26.8037 8.89648L18.9815 16.793L11.0397 8.89648C6.67201 4.55336 3.0604 1 3.0144 1C2.96819 1 2.49762 1.44537 1.96848 1.98999Z" fill="#212121" stroke="black" stroke-linejoin="round"/>
</svg>
