<svg width="30" height="40" viewBox="0 0 30 40" fill="none" xmlns="http://www.w3.org/2000/svg">
<path d="M13.5261 0.572329L13.5261 0.572328C19.4662 -0.0224846 25.1997 3.09296 27.9494 8.41179C29.0862 10.6108 29.5121 12.4597 29.4997 15.2007C29.486 18.2638 28.9488 20.3621 27.2609 23.8314L27.7105 24.0502L27.2609 23.8314C25.2368 27.9921 22.0381 32.176 16.755 37.5305L15.0208 39.2881L13.2866 37.5305C12.1397 36.3681 10.6525 34.8044 9.98446 34.0589L9.61211 34.3926L9.98445 34.0589C4.91996 28.4083 1.80366 23.0455 0.828518 18.4217C0.475391 16.7472 0.396779 14.2918 0.642241 12.7972L0.148851 12.7162L0.642241 12.7972C1.71501 6.26526 7.03778 1.22189 13.5261 0.572329Z" fill="url(#paint0_linear_1346_50)" stroke="#373739"/>
<path fill-rule="evenodd" clip-rule="evenodd" d="M18.968 8.50769C19.0696 8.47984 19.1618 8.44693 19.2479 8.50769L20.7405 9.44225C20.8345 9.50866 21.0207 9.60735 21.0203 9.72262C21.0199 9.8379 20.8338 10.003 20.8338 10.003L20.0063 10.8591C19.8915 10.939 19.811 11.0107 19.6917 10.9375L18.2924 10.0964C18.1411 10.0036 18.2423 9.97825 18.315 9.81609L18.7815 8.78805C18.7815 8.78805 18.8665 8.53555 18.968 8.50769ZM19.0613 8.69461L18.5016 9.90954L19.8076 10.6572L20.7405 9.72263L19.0613 8.69461Z" fill="#D5DCDF"/>
<path d="M17.5687 9.81609L18.8699 10.4949L20.7356 11.5229L20.5539 11.8721L20.3872 12.2807L19.8353 12.1209L19.5277 12.7236C19.4856 12.7984 19.4366 12.9136 19.3412 13.004C19.2865 13.0559 18.968 12.9001 18.8747 12.9936L18.5949 13.6478C18.5382 13.8143 18.519 13.9974 18.4968 14.053C18.3758 14.5047 18.7766 14.7005 18.7766 14.7005C18.7766 14.7005 19.3375 15.121 19.5229 15.2612C21.1545 16.565 21.7155 18.5486 21.7155 19.5388C21.7155 20.1338 21.6333 20.875 21.5031 21.4293C21.4387 21.7038 21.4369 21.8231 21.3886 21.99C21.3645 22.0734 21.3092 22.3191 21.2954 22.3639C21.2347 22.5492 21.2036 22.5834 21.3886 22.6442L21.6872 22.5348L21.6885 22.5307L21.6933 22.5156C21.6975 22.5026 21.7035 22.4837 21.711 22.4594C21.7261 22.4108 21.7474 22.3405 21.7728 22.2525C21.8237 22.0766 21.8914 21.829 21.9592 21.5405C22.0935 20.9688 22.233 20.2156 22.233 19.5388C22.233 18.3566 21.6638 16.4223 19.8474 14.9708C19.757 14.8986 19.669 14.8322 19.5843 14.7683C19.4173 14.6424 19.2634 14.5263 19.1303 14.3948C18.9428 14.2095 18.9207 14.109 18.9297 14.053C18.9632 13.9646 19.0209 13.7973 19.0691 13.6555C19.097 13.5738 19.1231 13.4963 19.1422 13.4393L19.1651 13.3711L19.1738 13.3452C19.1798 13.3271 19.1853 13.3154 19.1892 13.3084C19.1932 13.3081 19.1985 13.308 19.2052 13.3081C19.2263 13.3087 19.2506 13.3117 19.2865 13.3174C19.3596 13.3291 19.4455 13.325 19.5312 13.2876C19.616 13.2505 19.6741 13.1922 19.7117 13.1388C19.7771 13.046 19.7983 12.9412 19.8072 12.8956C19.8128 12.8667 19.8173 12.8377 19.8207 12.8156L19.8208 12.8152C19.8246 12.7908 19.8273 12.7732 19.8304 12.7569C19.8324 12.7458 19.8341 12.7384 19.8353 12.7339L19.9786 12.49C20.0034 12.4975 20.0294 12.5048 20.0558 12.5111C20.2222 12.5512 20.4209 12.6961 20.6424 12.3641L20.9706 11.6371C21.0155 11.5229 20.9222 11.2426 20.7136 11.0962L18.2253 9.74592C18.2253 9.74592 17.799 9.48724 17.5653 9.53572C17.3431 9.58183 17.2018 9.73152 17.1343 9.81742L17.1214 9.83374L17.1106 9.85146C17.1043 9.86167 17.0965 9.87421 17.0876 9.88858C17.0523 9.94529 16.9993 10.0305 16.9545 10.1133C16.9257 10.1665 16.8952 10.2278 16.8711 10.2903C16.8496 10.3462 16.8207 10.434 16.8207 10.5312C16.8207 10.6598 16.8704 10.7709 16.9074 10.84C16.9487 10.9171 17.0006 10.9898 17.0498 11.0513C17.0637 11.0686 17.0781 11.0859 17.0926 11.1029L16.9819 11.2551C16.9576 11.2708 16.9314 11.2888 16.9055 11.3088C16.8554 11.3476 16.786 11.4095 16.735 11.4987C16.6786 11.5972 16.648 11.7248 16.6818 11.8647C16.7129 11.9934 16.7893 12.0936 16.8685 12.1692L16.8704 12.171C16.8689 12.1785 16.8655 12.1896 16.8591 12.2027C16.8518 12.2178 16.8442 12.2281 16.8417 12.231L16.8153 12.2625L16.7971 12.2987C16.7971 12.2987 16.7943 12.3038 16.7869 12.3149C16.7788 12.3273 16.7676 12.3432 16.7531 12.3627C16.724 12.4019 16.6863 12.4491 16.6428 12.5012C16.5561 12.6053 16.4542 12.7197 16.3692 12.8124L16.3584 12.8242L16.3486 12.837C16.3138 12.8827 16.2528 12.9272 16.1221 12.9583C15.9857 12.9907 15.8048 13.001 15.567 12.9971C15.4363 12.9949 15.2881 12.9879 15.1274 12.9804C14.7383 12.9622 14.2758 12.9405 13.8119 12.9745C10.5769 13.2118 9.1223 15.7994 8.82781 16.3232L8.82755 16.3237C8.8176 16.3414 8.80898 16.3567 8.80167 16.3695C8.79443 16.3822 8.78618 16.3965 8.777 16.4123C8.48407 16.919 7.24847 19.0563 8.0519 22.2222C8.09988 22.4112 8.32572 22.7459 8.51444 22.6978C8.70317 22.6498 8.6565 22.6464 8.60852 22.4573C7.87512 19.5674 8.80555 17.1282 9.07495 16.663C9.36206 16.1546 11.013 13.5144 13.8634 13.3053C14.2842 13.2745 14.6706 13.2928 15.042 13.3104C15.2157 13.3187 15.3861 13.3268 15.5552 13.3296C15.8062 13.3338 16.0595 13.3255 16.285 13.2718C16.511 13.218 16.6311 13.2052 16.7116 13.0929C16.7992 12.9971 17.0042 12.6444 17.0042 12.6444C17.0042 12.6444 17.1643 12.3758 17.2197 12.2807C17.2872 12.1911 17.0262 11.9619 17.0498 11.8033C17.0725 11.6509 17.3774 11.2426 17.3774 11.2426L17.5639 10.9622C17.5639 10.9622 17.2031 10.6172 17.1343 10.5312L17.3774 10.1133L17.5687 9.81609Z" fill="#D5DCDF"/>
<path fill-rule="evenodd" clip-rule="evenodd" d="M14.0241 16.9089L13.8915 17.3267C13.8915 17.3267 14.1441 17.6303 14.1713 17.7005C14.3579 17.8874 14.7914 18.3602 16.2657 18.7975C16.3584 18.825 16.4357 18.8894 16.4797 18.9756C16.5236 19.0619 16.5303 19.1624 16.4981 19.2537L16.1656 19.1362C16.4981 19.2537 16.4981 19.2537 16.4981 19.2537L16.4864 19.2873C16.4786 19.3093 16.4672 19.3418 16.4527 19.3834C16.4235 19.4667 16.3816 19.5867 16.3307 19.7333C16.2287 20.0267 16.0907 20.4266 15.9461 20.8527C15.6543 21.7126 15.2447 22.9825 15.1433 23.3889C15.0961 23.5781 14.8924 23.7541 14.7034 23.7068C14.5145 23.6594 14.6562 23.1827 14.7034 22.9934L15.4487 20.7681L16.0489 19.1362C15.1781 18.8411 14.6643 18.9018 13.7982 17.8738L12.3431 22.9934C12.2877 23.1805 12.1565 23.208 12.0632 23.1803C11.9699 23.1526 11.8359 23.0644 11.8913 22.8773L13.544 17.2924C13.5498 17.2283 13.5604 17.169 13.5736 17.1156C13.5964 17.0225 13.6269 16.9471 13.6528 16.8929C13.6615 16.8748 13.6698 16.8588 13.6773 16.8452C13.8707 16.2683 14.3534 16.0079 14.8368 15.9248C15.3211 15.8416 15.8543 15.9217 16.2683 16.0479C17.0065 16.273 17.5086 16.5867 17.7812 16.9732C18.0607 17.3694 18.0708 17.8033 17.9028 18.1736L16.4562 23.3381C16.4036 23.5259 16.1969 23.4416 16.0094 23.3889C16.0094 23.3889 15.9568 23.2963 16.0094 23.1085L17.4363 18.3547L16.9423 18.4357C16.9423 18.4357 16.1903 18.4436 15.8301 18.3258C15.4792 18.211 15.1218 18.0541 14.9015 17.8738C14.8062 17.7957 14.6441 17.6399 14.6367 17.4116C14.6276 17.1313 14.842 16.9777 14.9886 16.9089C15.1649 16.8261 15.4575 16.8452 15.4575 17.0788C15.4575 17.3124 14.9886 17.0788 14.9886 17.3809C15.1042 17.7005 15.6891 17.8976 15.9438 17.9808C16.265 18.0859 16.9699 18.0743 16.9699 18.0743C17.1062 18.0835 17.4928 17.9866 17.5296 17.8874C17.5832 17.7427 17.5512 17.396 17.4363 17.2332C17.2923 17.0291 16.8329 16.5622 16.1656 16.3588C15.8166 16.2524 15.1654 16.1466 14.8243 16.2052C14.4944 16.2619 14.1052 16.642 14.0241 16.9089Z" fill="#D5DCDF"/>
<path fill-rule="evenodd" clip-rule="evenodd" d="M8.17425 21.9627C8.13623 21.9781 8.01122 22.129 7.89645 22.2981C7.63807 22.6787 7.2223 23.0731 6.91218 23.2316C6.78305 23.2976 6.49386 23.3835 6.2696 23.4225C5.84292 23.4967 5.72144 23.5816 5.72144 23.8052C5.72144 23.8709 5.76743 23.9815 5.82356 24.051C5.913 24.1616 6.55217 23.9135 6.55217 23.9135C7.29845 23.5891 7.48274 23.5281 8.04473 22.9623L8.32459 22.6986L8.60445 22.9623C8.77762 23.2059 9.20895 23.4533 9.44402 23.6331C9.826 23.9253 11.2341 23.9135 11.785 23.6331C11.785 23.6331 12.2514 23.3232 12.438 23.1363L12.8111 22.6986L13.1843 23.1363C13.1843 23.1363 13.2776 23.3232 13.9306 23.6331C14.7432 24.0188 15.5164 23.8496 16.1694 23.6331C16.8224 23.4167 17.2888 22.6691 17.2888 22.6691C17.2888 22.6691 18.0351 23.4764 18.2217 23.6331C18.5695 23.9253 20.1807 24.2991 21.1136 23.2711L21.7666 22.6691L22.3263 23.2515C22.7927 23.7384 22.9659 23.7185 23.8304 24.051C24.1195 24.0624 24.187 24.1616 24.2764 24.051C24.3326 23.9815 24.3785 23.8709 24.3785 23.8052C24.3785 23.5816 24.2571 23.4967 23.8304 23.4225C23.6061 23.3835 23.3161 23.2972 23.186 23.2306C22.8789 23.0737 22.4228 22.6393 22.1795 22.2721C21.8713 21.8069 21.6516 21.821 21.3159 22.3278C20.3489 23.7871 18.7355 23.7975 17.7548 22.3506C17.3917 21.8151 17.1761 21.7989 16.8665 22.2838C16.5901 22.7166 16.2149 23.06 15.8093 23.2515C15.5139 23.3908 15.3904 23.4179 15.0474 23.4184C14.6939 23.419 14.5889 23.3948 14.2776 23.2413C13.8597 23.0352 13.5064 22.7112 13.2335 22.2838C12.9344 21.8154 12.7058 21.8181 12.3867 22.2939C11.381 23.7937 9.76542 23.8089 8.78413 22.3278C8.54262 21.9632 8.3939 21.8742 8.17425 21.9627Z" fill="#D5DCDF"/>
<defs>
<linearGradient id="paint0_linear_1346_50" x1="15" y1="0" x2="15" y2="40" gradientUnits="userSpaceOnUse">
<stop stop-color="#3D7AA8"/>
<stop offset="1" stop-color="#25A1FF"/>
</linearGradient>
</defs>
</svg>
