<svg width="30" height="40" viewBox="0 0 30 40" fill="none" xmlns="http://www.w3.org/2000/svg">
<path d="M13.5261 0.572329L13.5261 0.572328C19.4662 -0.0224846 25.1997 3.09296 27.9494 8.41179C29.0862 10.6108 29.5121 12.4597 29.4997 15.2007C29.486 18.2638 28.9488 20.3621 27.2609 23.8314L27.7105 24.0502L27.2609 23.8314C25.2368 27.9921 22.0381 32.176 16.755 37.5305L15.0208 39.2881L13.2866 37.5305C12.1397 36.3681 10.6525 34.8044 9.98446 34.0589L9.61211 34.3926L9.98445 34.0589C4.91996 28.4083 1.80366 23.0455 0.828518 18.4217C0.475391 16.7472 0.396779 14.2918 0.642241 12.7972L0.148851 12.7162L0.642241 12.7972C1.71501 6.26526 7.03778 1.22189 13.5261 0.572329Z" fill="url(#paint0_linear_1346_57)" stroke="#373739"/>
<path fill-rule="evenodd" clip-rule="evenodd" d="M18.968 8.50763C19.0696 8.47977 19.1618 8.44687 19.2479 8.50763L20.7405 9.44219C20.8345 9.5086 21.0207 9.60728 21.0203 9.72256C21.0199 9.83784 20.8338 10.0029 20.8338 10.0029L20.0063 10.859C19.8915 10.939 19.811 11.0106 19.6917 10.9375L18.2924 10.0964C18.1411 10.0036 18.2423 9.97819 18.315 9.81603L18.7815 8.78799C18.7815 8.78799 18.8665 8.53549 18.968 8.50763ZM19.0613 8.69454L18.5016 9.90948L19.8076 10.6571L20.7405 9.72256L19.0613 8.69454Z" fill="#D5DCDF"/>
<path d="M17.5687 9.81597L18.8699 10.4948L20.7356 11.5228L20.5539 11.872L20.3872 12.2805L19.8353 12.1208L19.5277 12.7235C19.4856 12.7983 19.4366 12.9135 19.3412 13.0039C19.2865 13.0558 18.968 12.9 18.8747 12.9935L18.5949 13.6477C18.5382 13.8142 18.519 13.9973 18.4968 14.0529C18.3758 14.5046 18.7766 14.7003 18.7766 14.7003C18.7766 14.7003 19.3375 15.1209 19.5229 15.2611C21.1545 16.5649 21.7155 18.5485 21.7155 19.5387C21.7155 20.1336 21.6333 20.8749 21.5031 21.4292C21.4387 21.7036 21.4369 21.823 21.3886 21.9899C21.3645 22.0733 21.3092 22.319 21.2954 22.3637C21.2347 22.5491 21.2036 22.5833 21.3886 22.6441L21.6872 22.5347L21.6885 22.5306L21.6933 22.5155C21.6975 22.5024 21.7035 22.4835 21.711 22.4592C21.7261 22.4106 21.7474 22.3404 21.7728 22.2524C21.8237 22.0765 21.8914 21.8288 21.9592 21.5403C22.0935 20.9687 22.233 20.2154 22.233 19.5387C22.233 18.3564 21.6638 16.4222 19.8474 14.9707C19.757 14.8984 19.669 14.832 19.5843 14.7682C19.4173 14.6422 19.2634 14.5261 19.1303 14.3947C18.9428 14.2094 18.9207 14.1088 18.9297 14.0529C18.9632 13.9645 19.0209 13.7972 19.0691 13.6553C19.097 13.5736 19.1231 13.4962 19.1422 13.4392L19.1651 13.371L19.1738 13.3451C19.1798 13.3269 19.1853 13.3153 19.1892 13.3083C19.1932 13.308 19.1985 13.3079 19.2052 13.308C19.2263 13.3085 19.2506 13.3116 19.2865 13.3173C19.3596 13.3289 19.4455 13.3249 19.5312 13.2874C19.616 13.2503 19.6741 13.1921 19.7117 13.1387C19.7771 13.0459 19.7983 12.9411 19.8072 12.8955C19.8128 12.8666 19.8173 12.8376 19.8207 12.8155L19.8208 12.8151C19.8246 12.7907 19.8273 12.7731 19.8304 12.7567C19.8324 12.7457 19.8341 12.7383 19.8353 12.7337L19.9786 12.4899C20.0034 12.4974 20.0294 12.5046 20.0558 12.511C20.2222 12.551 20.4209 12.6959 20.6424 12.3639L20.9706 11.637C21.0155 11.5228 20.9222 11.2425 20.7136 11.0961L18.2253 9.74579C18.2253 9.74579 17.799 9.48712 17.5653 9.5356C17.3431 9.58171 17.2018 9.7314 17.1343 9.8173L17.1214 9.83362L17.1106 9.85134C17.1043 9.86155 17.0965 9.87409 17.0876 9.88846C17.0523 9.94517 16.9993 10.0304 16.9545 10.1132C16.9257 10.1664 16.8952 10.2277 16.8711 10.2902C16.8496 10.3461 16.8207 10.4339 16.8207 10.5311C16.8207 10.6596 16.8704 10.7708 16.9074 10.8399C16.9487 10.917 17.0006 10.9896 17.0498 11.0512C17.0637 11.0685 17.0781 11.0858 17.0926 11.1028L16.9819 11.255C16.9576 11.2707 16.9314 11.2886 16.9055 11.3086C16.8554 11.3475 16.786 11.4094 16.735 11.4985C16.6786 11.5971 16.648 11.7247 16.6818 11.8646C16.7129 11.9933 16.7893 12.0935 16.8685 12.1691L16.8704 12.1709C16.8689 12.1784 16.8655 12.1894 16.8591 12.2026C16.8518 12.2177 16.8442 12.2279 16.8417 12.2309L16.8153 12.2624L16.7971 12.2986C16.7971 12.2986 16.7943 12.3037 16.7869 12.3148C16.7788 12.3272 16.7676 12.3431 16.7531 12.3626C16.724 12.4018 16.6863 12.449 16.6428 12.5011C16.5561 12.6051 16.4542 12.7196 16.3692 12.8123L16.3584 12.8241L16.3486 12.8369C16.3138 12.8826 16.2528 12.9271 16.1221 12.9582C15.9857 12.9906 15.8048 13.0009 15.567 12.9969C15.4363 12.9947 15.2881 12.9878 15.1274 12.9803C14.7383 12.9621 14.2758 12.9404 13.8119 12.9744C10.5769 13.2117 9.1223 15.7993 8.82781 16.3231L8.82755 16.3236C8.8176 16.3413 8.80898 16.3566 8.80167 16.3694C8.79443 16.3821 8.78618 16.3963 8.777 16.4122C8.48407 16.9189 7.24847 19.0561 8.0519 22.2221C8.09988 22.4111 8.32572 22.7458 8.51444 22.6977C8.70317 22.6496 8.6565 22.6463 8.60852 22.4572C7.87512 19.5672 8.80555 17.1281 9.07495 16.6629C9.36206 16.1544 11.013 13.5143 13.8634 13.3052C14.2842 13.2743 14.6706 13.2927 15.042 13.3103C15.2157 13.3186 15.3861 13.3267 15.5552 13.3295C15.8062 13.3337 16.0595 13.3254 16.285 13.2717C16.511 13.2179 16.6311 13.205 16.7116 13.0928C16.7992 12.997 17.0042 12.6443 17.0042 12.6443C17.0042 12.6443 17.1643 12.3756 17.2197 12.2805C17.2872 12.1909 17.0262 11.9618 17.0498 11.8032C17.0725 11.6508 17.3774 11.2425 17.3774 11.2425L17.5639 10.9621C17.5639 10.9621 17.2031 10.617 17.1343 10.5311L17.3774 10.1132L17.5687 9.81597Z" fill="#D5DCDF"/>
<path fill-rule="evenodd" clip-rule="evenodd" d="M14.0241 16.9088L13.8915 17.3265C13.8915 17.3265 14.1441 17.6302 14.1713 17.7004C14.3579 17.8873 14.7914 18.3601 16.2657 18.7974C16.3584 18.8249 16.4357 18.8893 16.4797 18.9755C16.5236 19.0618 16.5303 19.1623 16.4981 19.2536L16.1656 19.1361C16.4981 19.2536 16.4981 19.2536 16.4981 19.2536L16.4864 19.2871C16.4786 19.3092 16.4672 19.3416 16.4527 19.3833C16.4235 19.4666 16.3816 19.5866 16.3307 19.7332C16.2287 20.0266 16.0907 20.4265 15.9461 20.8526C15.6543 21.7125 15.2447 22.9823 15.1433 23.3888C15.0961 23.578 14.8924 23.7539 14.7034 23.7066C14.5145 23.6593 14.6562 23.1826 14.7034 22.9933L15.4487 20.768L16.0489 19.1361C15.1781 18.8409 14.6643 18.9017 13.7982 17.8737L12.3431 22.9933C12.2877 23.1803 12.1565 23.2079 12.0632 23.1802C11.9699 23.1525 11.8359 23.0642 11.8913 22.8772L13.544 17.2923C13.5498 17.2281 13.5604 17.1689 13.5736 17.1154C13.5964 17.0223 13.6269 16.9469 13.6528 16.8928C13.6615 16.8746 13.6698 16.8587 13.6773 16.8451C13.8707 16.2682 14.3534 16.0077 14.8368 15.9247C15.3211 15.8415 15.8543 15.9216 16.2683 16.0478C17.0065 16.2729 17.5086 16.5866 17.7812 16.9731C18.0607 17.3693 18.0708 17.8032 17.9028 18.1735L16.4562 23.338C16.4036 23.5258 16.1969 23.4415 16.0094 23.3888C16.0094 23.3888 15.9568 23.2962 16.0094 23.1084L17.4363 18.3546L16.9423 18.4356C16.9423 18.4356 16.1903 18.4434 15.8301 18.3257C15.4792 18.2109 15.1218 18.054 14.9015 17.8737C14.8062 17.7956 14.6441 17.6398 14.6367 17.4115C14.6276 17.1312 14.842 16.9776 14.9886 16.9088C15.1649 16.826 15.4575 16.8451 15.4575 17.0787C15.4575 17.3123 14.9886 17.0787 14.9886 17.3808C15.1042 17.7004 15.6891 17.8974 15.9438 17.9807C16.265 18.0858 16.9699 18.0742 16.9699 18.0742C17.1062 18.0834 17.4928 17.9865 17.5296 17.8873C17.5832 17.7426 17.5512 17.3959 17.4363 17.2331C17.2923 17.0289 16.8329 16.5621 16.1656 16.3587C15.8166 16.2522 15.1654 16.1465 14.8243 16.2051C14.4944 16.2617 14.1052 16.6419 14.0241 16.9088Z" fill="#D5DCDF"/>
<path fill-rule="evenodd" clip-rule="evenodd" d="M8.17425 21.9627C8.13623 21.9781 8.01122 22.129 7.89645 22.2981C7.63807 22.6787 7.2223 23.0731 6.91218 23.2316C6.78305 23.2976 6.49386 23.3835 6.2696 23.4225C5.84292 23.4967 5.72144 23.5816 5.72144 23.8052C5.72144 23.8709 5.76743 23.9815 5.82356 24.051C5.913 24.1616 6.55217 23.9135 6.55217 23.9135C7.29845 23.5891 7.48274 23.5281 8.04473 22.9623L8.32459 22.6986L8.60445 22.9623C8.77762 23.2059 9.20895 23.4533 9.44402 23.6331C9.826 23.9253 11.2341 23.9135 11.785 23.6331C11.785 23.6331 12.2514 23.3232 12.438 23.1363L12.8111 22.6986L13.1843 23.1363C13.1843 23.1363 13.2776 23.3232 13.9306 23.6331C14.7432 24.0188 15.5164 23.8496 16.1694 23.6331C16.8224 23.4167 17.2888 22.6691 17.2888 22.6691C17.2888 22.6691 18.0351 23.4764 18.2217 23.6331C18.5695 23.9253 20.1807 24.2991 21.1136 23.2711L21.7666 22.6691L22.3263 23.2515C22.7927 23.7384 22.9659 23.7185 23.8304 24.051C24.1195 24.0624 24.187 24.1616 24.2764 24.051C24.3326 23.9815 24.3785 23.8709 24.3785 23.8052C24.3785 23.5816 24.2571 23.4967 23.8304 23.4225C23.6061 23.3835 23.3161 23.2972 23.186 23.2306C22.8789 23.0737 22.4228 22.6393 22.1795 22.2721C21.8713 21.8069 21.6516 21.821 21.3159 22.3278C20.3489 23.7871 18.7355 23.7975 17.7548 22.3506C17.3917 21.8151 17.1761 21.7989 16.8665 22.2838C16.5901 22.7166 16.2149 23.06 15.8093 23.2515C15.5139 23.3908 15.3904 23.4179 15.0474 23.4184C14.6939 23.419 14.5889 23.3948 14.2776 23.2413C13.8597 23.0352 13.5064 22.7112 13.2335 22.2838C12.9344 21.8154 12.7058 21.8181 12.3867 22.2939C11.381 23.7937 9.76542 23.8089 8.78413 22.3278C8.54262 21.9632 8.3939 21.8742 8.17425 21.9627Z" fill="#D5DCDF"/>
<defs>
<linearGradient id="paint0_linear_1346_57" x1="15" y1="0" x2="15" y2="40" gradientUnits="userSpaceOnUse">
<stop offset="0.232322" stop-color="#BA26C5"/>
<stop offset="1" stop-color="#EA89F1"/>
</linearGradient>
</defs>
</svg>
