<svg width="30" height="40" viewBox="0 0 30 40" fill="none" xmlns="http://www.w3.org/2000/svg">
<path d="M13.5261 0.572329L13.5261 0.572328C19.4662 -0.0224846 25.1997 3.09296 27.9494 8.41179C29.0862 10.6108 29.5121 12.4597 29.4997 15.2007C29.486 18.2638 28.9488 20.3621 27.2609 23.8314L27.7105 24.0502L27.2609 23.8314C25.2368 27.9921 22.0381 32.176 16.755 37.5305L15.0208 39.2881L13.2866 37.5305C12.1397 36.3681 10.6525 34.8044 9.98446 34.0589L9.61211 34.3926L9.98445 34.0589C4.91996 28.4083 1.80366 23.0455 0.828518 18.4217C0.475391 16.7472 0.396779 14.2918 0.642241 12.7972L0.148851 12.7162L0.642241 12.7972C1.71501 6.26526 7.03778 1.22189 13.5261 0.572329Z" fill="url(#paint0_linear_1346_43)" stroke="#373739"/>
<path fill-rule="evenodd" clip-rule="evenodd" d="M18.968 8.50769C19.0696 8.47984 19.1618 8.44693 19.2479 8.50769L20.7405 9.44225C20.8345 9.50866 21.0207 9.60735 21.0203 9.72262C21.0199 9.8379 20.8338 10.003 20.8338 10.003L20.0063 10.8591C19.8915 10.939 19.811 11.0107 19.6917 10.9375L18.2924 10.0964C18.1411 10.0036 18.2423 9.97825 18.315 9.81609L18.7815 8.78805C18.7815 8.78805 18.8665 8.53555 18.968 8.50769ZM19.0613 8.69461L18.5016 9.90954L19.8076 10.6572L20.7405 9.72263L19.0613 8.69461Z" fill="#D5DCDF"/>
<path d="M17.5689 9.81609L18.8701 10.4949L20.7358 11.5229L20.554 11.8721L20.3874 12.2807L19.8354 12.1209L19.5279 12.7236C19.4857 12.7984 19.4367 12.9136 19.3413 13.004C19.2866 13.0559 18.9681 12.9001 18.8749 12.9936L18.595 13.6478C18.5383 13.8143 18.5191 13.9974 18.4969 14.053C18.3759 14.5047 18.7768 14.7005 18.7768 14.7005C18.7768 14.7005 19.3376 15.121 19.5231 15.2612C21.1546 16.565 21.7156 18.5486 21.7156 19.5388C21.7156 20.1338 21.6334 20.875 21.5033 21.4293C21.4388 21.7038 21.437 21.8231 21.3888 21.99C21.3646 22.0734 21.3093 22.3191 21.2955 22.3639C21.2348 22.5492 21.2037 22.5834 21.3888 22.6442L21.6873 22.5348L21.6886 22.5307L21.6935 22.5156C21.6976 22.5026 21.7036 22.4837 21.7111 22.4594C21.7262 22.4108 21.7475 22.3405 21.7729 22.2525C21.8238 22.0766 21.8916 21.829 21.9593 21.5405C22.0936 20.9688 22.2331 20.2156 22.2331 19.5388C22.2331 18.3566 21.6639 16.4223 19.8475 14.9708C19.7571 14.8986 19.6691 14.8322 19.5844 14.7683C19.4174 14.6424 19.2635 14.5263 19.1305 14.3948C18.9429 14.2095 18.9208 14.109 18.9299 14.053C18.9634 13.9646 19.021 13.7973 19.0693 13.6555C19.0971 13.5738 19.1232 13.4963 19.1423 13.4393L19.1652 13.3711L19.1739 13.3452C19.1799 13.3271 19.1855 13.3154 19.1894 13.3084C19.1933 13.3081 19.1986 13.308 19.2053 13.3081C19.2264 13.3087 19.2508 13.3117 19.2866 13.3174C19.3598 13.3291 19.4456 13.325 19.5313 13.2876C19.6162 13.2505 19.6742 13.1922 19.7119 13.1388C19.7773 13.046 19.7984 12.9412 19.8073 12.8956C19.8129 12.8667 19.8174 12.8377 19.8209 12.8156L19.8209 12.8152C19.8247 12.7908 19.8275 12.7732 19.8305 12.7569C19.8326 12.7458 19.8343 12.7384 19.8354 12.7339L19.9788 12.49C20.0036 12.4975 20.0295 12.5048 20.056 12.5111C20.2223 12.5512 20.421 12.6961 20.6425 12.3641L20.9707 11.6371C21.0156 11.5229 20.9223 11.2426 20.7137 11.0962L18.2254 9.74592C18.2254 9.74592 17.7991 9.48724 17.5655 9.53572C17.3433 9.58183 17.2019 9.73152 17.1344 9.81742L17.1215 9.83374L17.1107 9.85146C17.1045 9.86167 17.0967 9.87421 17.0877 9.88858C17.0524 9.94529 16.9994 10.0305 16.9546 10.1133C16.9258 10.1665 16.8953 10.2278 16.8712 10.2903C16.8497 10.3462 16.8208 10.434 16.8208 10.5312C16.8208 10.6598 16.8705 10.7709 16.9075 10.84C16.9488 10.9171 17.0007 10.9898 17.05 11.0513C17.0639 11.0686 17.0782 11.0859 17.0928 11.1029L16.982 11.2551C16.9577 11.2708 16.9315 11.2888 16.9057 11.3088C16.8555 11.3476 16.7861 11.4095 16.7351 11.4987C16.6787 11.5972 16.6481 11.7248 16.6819 11.8647C16.713 11.9934 16.7894 12.0936 16.8687 12.1692L16.8705 12.171C16.8691 12.1785 16.8657 12.1896 16.8592 12.2027C16.8519 12.2178 16.8443 12.2281 16.8418 12.231L16.8154 12.2625L16.7972 12.2987C16.7972 12.2987 16.7944 12.3038 16.7871 12.3149C16.7789 12.3273 16.7677 12.3432 16.7532 12.3627C16.7241 12.4019 16.6864 12.4491 16.643 12.5012C16.5563 12.6053 16.4544 12.7197 16.3694 12.8124L16.3585 12.8242L16.3488 12.837C16.3139 12.8827 16.2529 12.9272 16.1222 12.9583C15.9858 12.9907 15.805 13.001 15.5671 12.9971C15.4365 12.9949 15.2882 12.9879 15.1275 12.9804C14.7384 12.9622 14.2759 12.9405 13.8121 12.9745C10.577 13.2118 9.12242 15.7994 8.82793 16.3232L8.82767 16.3237C8.81772 16.3414 8.8091 16.3567 8.80179 16.3695C8.79455 16.3822 8.7863 16.3965 8.77712 16.4123C8.48419 16.919 7.2486 19.0563 8.05202 22.2222C8.10001 22.4112 8.32584 22.7459 8.51457 22.6978C8.7033 22.6498 8.65662 22.6464 8.60864 22.4573C7.87524 19.5674 8.80567 17.1282 9.07507 16.663C9.36219 16.1546 11.0132 13.5144 13.8636 13.3053C14.2843 13.2745 14.6707 13.2928 15.0421 13.3104C15.2158 13.3187 15.3862 13.3268 15.5553 13.3296C15.8063 13.3338 16.0597 13.3255 16.2851 13.2718C16.5111 13.218 16.6312 13.2052 16.7117 13.0929C16.7994 12.9971 17.0043 12.6444 17.0043 12.6444C17.0043 12.6444 17.1644 12.3758 17.2198 12.2807C17.2873 12.1911 17.0263 11.9619 17.05 11.8033C17.0727 11.6509 17.3775 11.2426 17.3775 11.2426L17.5641 10.9622C17.5641 10.9622 17.2032 10.6172 17.1344 10.5312L17.3775 10.1133L17.5689 9.81609Z" fill="#D5DCDF"/>
<path fill-rule="evenodd" clip-rule="evenodd" d="M14.0243 16.9089L13.8916 17.3267C13.8916 17.3267 14.1442 17.6303 14.1714 17.7005C14.358 17.8874 14.7915 18.3602 16.2658 18.7975C16.3585 18.825 16.4359 18.8894 16.4798 18.9756C16.5237 19.0619 16.5304 19.1624 16.4983 19.2537L16.1657 19.1362C16.4983 19.2537 16.4983 19.2537 16.4983 19.2537L16.4865 19.2873C16.4787 19.3093 16.4674 19.3418 16.4528 19.3834C16.4236 19.4667 16.3817 19.5867 16.3308 19.7333C16.2289 20.0267 16.0908 20.4266 15.9462 20.8527C15.6545 21.7126 15.2449 22.9825 15.1434 23.3889C15.0962 23.5781 14.8925 23.7541 14.7036 23.7068C14.5146 23.6594 14.6563 23.1827 14.7036 22.9934L15.4488 20.7681L16.0491 19.1362C15.1782 18.8411 14.6644 18.9018 13.7983 17.8738L12.3432 22.9934C12.2878 23.1805 12.1566 23.208 12.0633 23.1803C11.97 23.1526 11.836 23.0644 11.8914 22.8773L13.5441 17.2924C13.5499 17.2283 13.5605 17.169 13.5737 17.1156C13.5966 17.0225 13.627 16.9471 13.6529 16.8929C13.6616 16.8748 13.6699 16.8588 13.6774 16.8452C13.8708 16.2683 14.3536 16.0079 14.837 15.9248C15.3212 15.8416 15.8544 15.9217 16.2684 16.0479C17.0066 16.273 17.5088 16.5867 17.7814 16.9732C18.0609 17.3694 18.071 17.8033 17.9029 18.1736L16.4563 23.3381C16.4037 23.5259 16.1971 23.4416 16.0096 23.3889C16.0096 23.3889 15.9569 23.2963 16.0096 23.1085L17.4364 18.3547L16.9424 18.4357C16.9424 18.4357 16.1904 18.4436 15.8302 18.3258C15.4793 18.211 15.1219 18.0541 14.9016 17.8738C14.8063 17.7957 14.6442 17.6399 14.6368 17.4116C14.6277 17.1313 14.8421 16.9777 14.9887 16.9089C15.165 16.8261 15.4576 16.8452 15.4576 17.0788C15.4576 17.3124 14.9887 17.0788 14.9887 17.3809C15.1043 17.7005 15.6892 17.8976 15.9439 17.9808C16.2651 18.0859 16.97 18.0743 16.97 18.0743C17.1063 18.0835 17.4929 17.9866 17.5297 17.8874C17.5834 17.7427 17.5513 17.396 17.4364 17.2332C17.2924 17.0291 16.8331 16.5622 16.1657 16.3588C15.8168 16.2524 15.1656 16.1466 14.8244 16.2052C14.4946 16.2619 14.1054 16.642 14.0243 16.9089Z" fill="#D5DCDF"/>
<path fill-rule="evenodd" clip-rule="evenodd" d="M8.17425 21.9627C8.13623 21.9781 8.01122 22.129 7.89645 22.2981C7.63807 22.6787 7.2223 23.0731 6.91218 23.2316C6.78305 23.2976 6.49386 23.3835 6.2696 23.4225C5.84292 23.4967 5.72144 23.5816 5.72144 23.8052C5.72144 23.8709 5.76743 23.9815 5.82356 24.051C5.913 24.1616 6.55217 23.9135 6.55217 23.9135C7.29845 23.5891 7.48274 23.5281 8.04473 22.9623L8.32459 22.6986L8.60445 22.9623C8.77762 23.2059 9.20895 23.4533 9.44402 23.6331C9.826 23.9253 11.2341 23.9135 11.785 23.6331C11.785 23.6331 12.2514 23.3232 12.438 23.1363L12.8111 22.6986L13.1843 23.1363C13.1843 23.1363 13.2776 23.3232 13.9306 23.6331C14.7432 24.0188 15.5164 23.8496 16.1694 23.6331C16.8224 23.4167 17.2888 22.6691 17.2888 22.6691C17.2888 22.6691 18.0351 23.4764 18.2217 23.6331C18.5695 23.9253 20.1807 24.2991 21.1136 23.2711L21.7666 22.6691L22.3263 23.2515C22.7927 23.7384 22.9659 23.7185 23.8304 24.051C24.1195 24.0624 24.187 24.1616 24.2764 24.051C24.3326 23.9815 24.3785 23.8709 24.3785 23.8052C24.3785 23.5816 24.2571 23.4967 23.8304 23.4225C23.6061 23.3835 23.3161 23.2972 23.186 23.2306C22.8789 23.0737 22.4228 22.6393 22.1795 22.2721C21.8713 21.8069 21.6516 21.821 21.3159 22.3278C20.3489 23.7871 18.7355 23.7975 17.7548 22.3506C17.3917 21.8151 17.1761 21.7989 16.8665 22.2838C16.5901 22.7166 16.2149 23.06 15.8093 23.2515C15.5139 23.3908 15.3904 23.4179 15.0474 23.4184C14.6939 23.419 14.5889 23.3948 14.2776 23.2413C13.8597 23.0352 13.5064 22.7112 13.2335 22.2838C12.9344 21.8154 12.7058 21.8181 12.3867 22.2939C11.381 23.7937 9.76542 23.8089 8.78413 22.3278C8.54262 21.9632 8.3939 21.8742 8.17425 21.9627Z" fill="#D5DCDF"/>
<defs>
<linearGradient id="paint0_linear_1346_43" x1="15" y1="0" x2="15" y2="40" gradientUnits="userSpaceOnUse">
<stop stop-color="#45A83D"/>
<stop offset="1" stop-color="#11E600"/>
</linearGradient>
</defs>
</svg>
