<svg width="108" height="80" viewBox="0 0 108 80" fill="none" xmlns="http://www.w3.org/2000/svg">
<path d="M67 33.5C67 52.0015 52.0015 67 33.5 67C14.9985 67 0 52.0015 0 33.5C0 14.9985 14.9985 0 33.5 0C52.0015 0 67 14.9985 67 33.5Z" fill="white"/>
<path fill-rule="evenodd" clip-rule="evenodd" d="M33.5 64.5C50.6208 64.5 64.5 50.6208 64.5 33.5C64.5 16.3792 50.6208 2.5 33.5 2.5C16.3792 2.5 2.5 16.3792 2.5 33.5C2.5 50.6208 16.3792 64.5 33.5 64.5ZM33.5 67C52.0015 67 67 52.0015 67 33.5C67 14.9985 52.0015 0 33.5 0C14.9985 0 0 14.9985 0 33.5C0 52.0015 14.9985 67 33.5 67Z" fill="#B880FF"/>
<path fill-rule="evenodd" clip-rule="evenodd" d="M27.5846 47.9209C26.1471 48.8617 25.375 49.9284 25.1607 50.4642C24.9043 51.1052 24.1768 51.417 23.5359 51.1606C22.8949 50.9042 22.5831 50.1767 22.8395 49.5358C23.2918 48.405 24.4698 46.9716 26.2156 45.8291C27.9981 44.6625 30.4423 43.75 33.5001 43.75C39.7041 43.75 42.6385 47.4818 43.6181 49.441C43.9269 50.0585 43.6766 50.8093 43.0591 51.118C42.4416 51.4268 41.6908 51.1765 41.3821 50.559C40.695 49.1849 38.496 46.25 33.5001 46.25C30.9579 46.25 28.9854 47.0042 27.5846 47.9209Z" fill="#B880FF"/>
<path fill-rule="evenodd" clip-rule="evenodd" d="M26.5261 21.0705C27.5918 21.3611 28.22 22.4606 27.9294 23.5262C27.6361 24.6017 27.0031 26.2998 25.7111 27.7618C24.3659 29.2842 22.3404 30.5 19.4999 30.5C16.6811 30.5 14.5812 29.3032 13.1905 27.7916C11.8571 26.3423 11.1336 24.5613 11.0081 23.1811C10.9081 22.0811 11.7188 21.1082 12.8188 21.0082C13.9188 20.9082 14.8917 21.7189 14.9917 22.8189C15.0329 23.2721 15.3593 24.2411 16.1342 25.0834C16.8519 25.8634 17.9187 26.5 19.4999 26.5C21.0593 26.5 22.0339 25.8825 22.7137 25.1132C23.4467 24.2836 23.8637 23.2317 24.0704 22.4738C24.361 21.4081 25.4605 20.7799 26.5261 21.0705Z" fill="#B880FF"/>
<path fill-rule="evenodd" clip-rule="evenodd" d="M54.5261 21.0705C55.5918 21.3611 56.22 22.4606 55.9294 23.5262C55.6361 24.6017 55.0031 26.2998 53.7111 27.7618C52.3659 29.2842 50.3404 30.5 47.4999 30.5C44.6811 30.5 42.5812 29.3032 41.1905 27.7916C39.8571 26.3423 39.1336 24.5613 39.0081 23.1811C38.9081 22.0811 39.7188 21.1082 40.8188 21.0082C41.9188 20.9082 42.8917 21.7189 42.9917 22.8189C43.0329 23.2721 43.3593 24.2411 44.1342 25.0834C44.8519 25.8634 45.9187 26.5 47.4999 26.5C49.0593 26.5 50.0339 25.8825 50.7137 25.1132C51.4467 24.2836 51.8637 23.2317 52.0704 22.4738C52.361 21.4081 53.4605 20.7799 54.5261 21.0705Z" fill="#B880FF"/>
<path d="M108 46.5C108 65.0015 93.0015 80 74.5 80C55.9985 80 41 65.0015 41 46.5C41 27.9985 55.9985 13 74.5 13C93.0015 13 108 27.9985 108 46.5Z" fill="white"/>
<path fill-rule="evenodd" clip-rule="evenodd" d="M74.5 77.5C91.6208 77.5 105.5 63.6208 105.5 46.5C105.5 29.3792 91.6208 15.5 74.5 15.5C57.3792 15.5 43.5 29.3792 43.5 46.5C43.5 63.6208 57.3792 77.5 74.5 77.5ZM74.5 80C93.0015 80 108 65.0015 108 46.5C108 27.9985 93.0015 13 74.5 13C55.9985 13 41 27.9985 41 46.5C41 65.0015 55.9985 80 74.5 80Z" fill="#B880FF"/>
<path fill-rule="evenodd" clip-rule="evenodd" d="M61.6567 55.7982C62.3205 55.6085 63.0123 55.9929 63.202 56.6567C63.7107 58.437 66.941 62.7501 74.0001 62.7501C80.9981 62.7501 84.3628 58.4796 85.382 56.4411C85.6908 55.8236 86.4416 55.5733 87.0591 55.882C87.6766 56.1908 87.9268 56.9416 87.6181 57.5591C86.3041 60.1872 82.2021 65.2501 74.0001 65.2501C65.8592 65.2501 61.6228 60.2298 60.7982 57.3435C60.6085 56.6797 60.9929 55.9878 61.6567 55.7982Z" fill="#B880FF"/>
<path fill-rule="evenodd" clip-rule="evenodd" d="M53.4741 43.429C52.4085 43.1384 51.7802 42.0389 52.0708 40.9733C52.3641 39.8978 52.9972 38.1998 54.2891 36.7377C55.6344 35.2153 57.6598 33.9995 60.5004 33.9995C63.3191 33.9995 65.419 35.1963 66.8097 36.7079C68.1431 38.1572 68.8667 39.9382 68.9921 41.3184C69.0921 42.4185 68.2815 43.3913 67.1814 43.4913C66.0814 43.5913 65.1086 42.7806 65.0086 41.6806C64.9674 41.2275 64.6409 40.2584 63.866 39.4161C63.1484 38.6361 62.0816 37.9995 60.5004 37.9995C58.9409 37.9995 57.9664 38.617 57.2866 39.3863C56.5535 40.2159 56.1366 41.2678 55.9299 42.0257C55.6393 43.0914 54.5398 43.7197 53.4741 43.429Z" fill="#B880FF"/>
<path fill-rule="evenodd" clip-rule="evenodd" d="M81.4741 43.429C80.4085 43.1384 79.7802 42.0389 80.0708 40.9733C80.3641 39.8978 80.9972 38.1998 82.2891 36.7377C83.6344 35.2153 85.6598 33.9995 88.5004 33.9995C91.3191 33.9995 93.419 35.1963 94.8097 36.7079C96.1431 38.1572 96.8667 39.9382 96.9921 41.3184C97.0921 42.4185 96.2815 43.3913 95.1814 43.4913C94.0814 43.5913 93.1086 42.7806 93.0086 41.6806C92.9674 41.2275 92.6409 40.2584 91.866 39.4161C91.1484 38.6361 90.0816 37.9995 88.5004 37.9995C86.9409 37.9995 85.9664 38.617 85.2866 39.3863C84.5535 40.2159 84.1366 41.2678 83.9299 42.0257C83.6393 43.0914 82.5398 43.7197 81.4741 43.429Z" fill="#B880FF"/>
</svg>
