<svg width="27" height="19" viewBox="0 0 27 19" fill="none" xmlns="http://www.w3.org/2000/svg">
<path fill-rule="evenodd" clip-rule="evenodd" d="M8.03243 1.1278C7.91967 1.22024 6.29121 3.143 4.41369 5.4005L1 9.50516L4.49959 13.71C6.42442 16.0227 8.08391 17.946 8.18735 17.9841C8.38086 18.0552 8.7641 17.8779 8.89033 17.6589C8.9295 17.5909 8.9612 17.3837 8.96081 17.1984C8.96023 16.9104 8.56739 16.3875 6.26067 13.604L3.56121 10.3466H14.5C25.5 10.5 25.8017 10.2079 26 10C26.2615 9.72582 26.2615 9.27418 26 9C25.8017 8.79209 25.5 8.5 14.5 8.66172H3.56121L6.26067 5.40431C8.58417 2.6007 8.96052 2.09906 8.96237 1.80331C8.96634 1.16486 8.44708 0.78779 8.03243 1.1278Z" fill="#D5DCDF" stroke="#D5DCDF"/>
</svg>
