<svg width="375" height="90" viewBox="0 0 375 90" preserveAspectRatio="none" fill="none" xmlns="http://www.w3.org/2000/svg">
<path d="M374.802 87.5494C374.802 87.5494 308.414 100.076 236.363 68.4881C144.606 28.2608 0.625122 0.139336 0.625122 0.139336H38.2553H81.2612L149.646 0.139336L322.67 0.139336L374.802 0.0287628V87.5494Z" fill="url(#paint0_linear_193_8)" fill-opacity="0.7"/>
<path d="M374.802 61.8135C374.802 61.8135 288.041 60.8123 236.363 42.7521C143.063 10.1458 -3.05176e-05 6.10352e-05 -3.05176e-05 6.10352e-05L79.9608 6.10352e-05L137.894 6.10352e-05L330.281 6.10352e-05L374.802 6.10352e-05V61.8135Z" fill="url(#paint1_linear_193_8)"/>
<defs>
<linearGradient id="paint0_linear_193_8" x1="355.146" y1="135.203" x2="78.062" y2="111.313" gradientUnits="userSpaceOnUse">
<stop offset="0.197365" stop-color="#AA1DB4"/>
<stop offset="1" stop-color="#E92CF5"/>
</linearGradient>
<linearGradient id="paint1_linear_193_8" x1="355.146" y1="109.467" x2="78.0621" y2="85.5773" gradientUnits="userSpaceOnUse">
<stop offset="0.197365" stop-color="#BB27C5"/>
<stop offset="1" stop-color="#DD68E4"/>
</linearGradient>
</defs>
</svg>
