<svg width="57" height="23" viewBox="0 0 57 23" fill="none" xmlns="http://www.w3.org/2000/svg">
<path d="M5.525 0.149999C7.00833 0.149999 8.25 0.291666 9.25 0.574999C10.2667 0.858333 11.025 1.325 11.525 1.975C12.0417 2.625 12.3 3.49167 12.3 4.575C12.3 5.275 12.1667 5.9 11.9 6.45C11.65 6.98333 11.2667 7.43333 10.75 7.8C10.25 8.15 9.63333 8.39167 8.9 8.525V8.65C9.65 8.76667 10.325 8.98333 10.925 9.3C11.5417 9.61667 12.025 10.0667 12.375 10.65C12.725 11.2333 12.9 11.9917 12.9 12.925C12.9 14.0083 12.65 14.9333 12.15 15.7C11.65 16.45 10.9333 17.025 10 17.425C9.08333 17.8083 7.98333 18 6.7 18H0.425V0.149999H5.525ZM5.975 7.75C7.50833 7.75 8.55833 7.50833 9.125 7.025C9.69167 6.525 9.975 5.79167 9.975 4.825C9.975 3.84167 9.625 3.14167 8.925 2.725C8.24167 2.29167 7.14167 2.075 5.625 2.075H2.675V7.75H5.975ZM2.675 9.625V16.1H6.275C7.85833 16.1 8.95833 15.7917 9.575 15.175C10.1917 14.5583 10.5 13.75 10.5 12.75C10.5 12.1167 10.3583 11.5667 10.075 11.1C9.80833 10.6333 9.35 10.275 8.7 10.025C8.06667 9.75833 7.2 9.625 6.1 9.625H2.675ZM19.5598 11.15L14.9348 4.6H17.4348L20.8848 9.65L24.3098 4.6H26.7848L22.1598 11.15L27.0348 18H24.5348L20.8848 12.65L17.1848 18H14.7098L19.5598 11.15ZM40.7789 11.275C40.7789 12.3917 40.6289 13.3833 40.3289 14.25C40.0456 15.1 39.6289 15.825 39.0789 16.425C38.5456 17.025 37.8872 17.4833 37.1039 17.8C36.3372 18.1 35.4789 18.25 34.5289 18.25C33.6456 18.25 32.8289 18.1 32.0789 17.8C31.3289 17.4833 30.6789 17.025 30.1289 16.425C29.5789 15.825 29.1456 15.1 28.8289 14.25C28.5289 13.3833 28.3789 12.3917 28.3789 11.275C28.3789 9.79167 28.6289 8.54167 29.1289 7.525C29.6289 6.49167 30.3456 5.70833 31.2789 5.175C32.2122 4.625 33.3206 4.35 34.6039 4.35C35.8206 4.35 36.8872 4.625 37.8039 5.175C38.7372 5.70833 39.4622 6.49167 39.9789 7.525C40.5122 8.54167 40.7789 9.79167 40.7789 11.275ZM30.6539 11.275C30.6539 12.325 30.7872 13.2417 31.0539 14.025C31.3372 14.7917 31.7706 15.3833 32.3539 15.8C32.9372 16.2167 33.6789 16.425 34.5789 16.425C35.4789 16.425 36.2206 16.2167 36.8039 15.8C37.3872 15.3833 37.8122 14.7917 38.0789 14.025C38.3622 13.2417 38.5039 12.325 38.5039 11.275C38.5039 10.2083 38.3622 9.3 38.0789 8.55C37.7956 7.8 37.3622 7.225 36.7789 6.825C36.2122 6.40833 35.4706 6.2 34.5539 6.2C33.1872 6.2 32.1956 6.65 31.5789 7.55C30.9622 8.45 30.6539 9.69167 30.6539 11.275ZM54.2156 4.6V16.15H56.1656V22.65H54.0406V18H44.7156V22.65H42.6156V16.15H43.6906C44.4573 15.0833 45.0906 13.925 45.5906 12.675C46.1073 11.4083 46.4906 10.0917 46.7406 8.725C47.0073 7.34167 47.149 5.96667 47.1656 4.6H54.2156ZM49.1156 6.325C49.049 7.45833 48.874 8.63333 48.5906 9.85C48.3073 11.05 47.9406 12.2 47.4906 13.3C47.0573 14.4 46.549 15.35 45.9656 16.15H52.0906V6.325H49.1156Z" fill="url(#paint0_linear_6_672)"/>
<defs>
<linearGradient id="paint0_linear_6_672" x1="-9" y1="-8" x2="62.3638" y2="21.7186" gradientUnits="userSpaceOnUse">
<stop stop-color="#766AC8"/>
<stop offset="1" stop-color="#A968FC"/>
</linearGradient>
</defs>
</svg>
